SplineFontDB: 3.2
FontName: Reijima-BoldItalic
FullName: Reijima Bold Italic
FamilyName: Reijima
Weight: Bold
Copyright: Copyright (c) 2019 by Coji Morishita. All rights reserved.
Version: 1.000
ItalicAngle: -9
UnderlinePosition: -100
UnderlineWidth: 50
Ascent: 860
Descent: 140
InvalidEm: 0
LayerCount: 2
Layer: 0 0 "Back" 1
Layer: 1 0 "Fore" 0
FSType: 8
OS2Version: 0
OS2_WeightWidthSlopeOnly: 0
OS2_UseTypoMetrics: 0
CreationTime: 1707357821
ModificationTime: 1707357821
OS2TypoAscent: 0
OS2TypoAOffset: 1
OS2TypoDescent: 0
OS2TypoDOffset: 1
OS2TypoLinegap: 0
OS2WinAscent: 0
OS2WinAOffset: 1
OS2WinDescent: 0
OS2WinDOffset: 1
HheadAscent: 0
HheadAOffset: 1
HheadDescent: 0
HheadDOffset: 1
OS2Vendor: 'PfEd'
DEI: 91125
Encoding: UnicodeFull
Compacted: 1
UnicodeInterp: none
NameList: AGL For New Fonts
DisplaySize: -48
AntiAlias: 1
FitToEm: 0
WinInfo: 0 27 9
BeginPrivate: 3
BlueValues 24 [-10 0 520 530 730 750 ]
OtherBlues 12 [-220 -220 ]
ForceBold 4 true
EndPrivate
BeginChars: 1114125 969

StartChar: .notdef
Encoding: 1114112 -1 0
Width: 477
LayerCount: 2
Fore
SplineSet
328 -140 m 1
 17 -140 l 1
 176 860 l 1
 487 860 l 1
 328 -140 l 1
239 793 m 1
 234 760 l 1
 297 760 l 1
 291 723 l 1
 227 723 l 1
 221 690 l 1
 384 690 l 1
 389 723 l 1
 325 723 l 1
 331 760 l 1
 395 760 l 1
 400 793 l 1
 239 793 l 1
217 664 m 1
 201 560 l 1
 364 560 l 1
 369 594 l 1
 304 594 l 1
 315 664 l 1
 217 664 l 1
271 594 m 1
 239 594 l 1
 244 630 l 1
 277 630 l 1
 271 594 l 1
197 533 m 1
 191 500 l 1
 256 500 l 1
 250 463 l 1
 185 463 l 1
 180 430 l 1
 278 430 l 1
 289 500 l 1
 354 500 l 1
 359 533 l 1
 197 533 l 1
317 473 m 1
 307 407 l 1
 177 407 l 1
 171 373 l 1
 334 373 l 1
 350 473 l 1
 317 473 l 1
232 351 m 1
 224 295 l 1
 257 295 l 1
 261 318 l 1
 293 318 l 1
 285 271 l 1
 187 271 l 1
 200 351 l 1
 168 351 l 1
 150 238 l 1
 313 238 l 1
 330 351 l 1
 232 351 l 1
140 178 m 1
 122 65 l 1
 285 65 l 1
 303 178 l 1
 140 178 l 1
258 98 m 1
 160 98 l 1
 167 145 l 1
 265 145 l 1
 258 98 l 1
119 42 m 1
 114 9 l 1
 182 9 l 1
 106 -38 l 1
 101 -71 l 1
 264 -71 l 1
 269 -38 l 1
 169 -38 l 1
 245 9 l 1
 276 9 l 1
 281 42 l 1
 119 42 l 1
EndSplineSet
EndChar

StartChar: A
Encoding: 65 65 2
Width: 668
Flags: W
LayerCount: 2
Fore
SplineSet
464 0 m 1
 443 167 l 1
 189 167 l 1
 115 0 l 1
 -36 0 l 1
 312 730 l 1
 498 730 l 1
 615 0 l 1
 464 0 l 1
243 289 m 1
 427 289 l 1
 387 611 l 1
 385 611 l 1
 243 289 l 1
EndSplineSet
EndChar

StartChar: Aacute
Encoding: 193 193 3
Width: 684
Flags: W
LayerCount: 2
Fore
SplineSet
464 0 m 1
 443 167 l 1
 189 167 l 1
 115 0 l 1
 -36 0 l 1
 312 730 l 1
 498 730 l 1
 615 0 l 1
 464 0 l 1
243 289 m 1
 427 289 l 1
 387 611 l 1
 385 611 l 1
 243 289 l 1
466 770 m 1
 339 770 l 1
 453 980 l 1
 620 980 l 1
 466 770 l 1
EndSplineSet
EndChar

StartChar: Abreve
Encoding: 258 258 4
Width: 684
Flags: W
LayerCount: 2
Fore
SplineSet
464 0 m 1
 443 167 l 1
 189 167 l 1
 115 0 l 1
 -36 0 l 1
 312 730 l 1
 498 730 l 1
 615 0 l 1
 464 0 l 1
243 289 m 1
 427 289 l 1
 387 611 l 1
 385 611 l 1
 243 289 l 1
290 799 m 0
 261 815 239 837 225 866 c 0
 211 894 206 926 210 962 c 1
 341 962 l 1
 339 905 363 876 412 876 c 0
 461 876 493 905 509 962 c 1
 641 962 l 1
 634 926 619 894 596 866 c 0
 573 837 544 815 510 799 c 0
 474 783 437 775 396 775 c 0
 355 775 320 783 290 799 c 0
EndSplineSet
EndChar

StartChar: uni1EAE
Encoding: 7854 7854 5
Width: 668
Flags: W
LayerCount: 2
Fore
SplineSet
306 799 m 0
 277 815 255 837 241 866 c 0
 227 894 222 926 226 962 c 1
 344 962 l 1
 452 1160 l 1
 618 1160 l 1
 464 950 l 1
 358 950 l 1
 359 901 383 876 428 876 c 0
 477 876 509 905 525 962 c 1
 657 962 l 1
 650 926 635 894 612 866 c 0
 589 837 560 815 526 799 c 0
 490 783 453 775 412 775 c 0
 371 775 336 783 306 799 c 0
464 0 m 1
 443 167 l 1
 189 167 l 1
 115 0 l 1
 -36 0 l 1
 312 730 l 1
 498 730 l 1
 615 0 l 1
 464 0 l 1
243 289 m 1
 427 289 l 1
 387 611 l 1
 385 611 l 1
 243 289 l 1
EndSplineSet
EndChar

StartChar: uni1EB6
Encoding: 7862 7862 6
Width: 684
Flags: W
LayerCount: 2
Fore
SplineSet
464 0 m 1
 443 167 l 1
 189 167 l 1
 115 0 l 1
 -36 0 l 1
 312 730 l 1
 498 730 l 1
 615 0 l 1
 464 0 l 1
243 289 m 1
 427 289 l 1
 387 611 l 1
 385 611 l 1
 243 289 l 1
228 -71 m 1
 373 -71 l 1
 349 -219 l 1
 204 -219 l 1
 228 -71 l 1
290 799 m 0
 261 815 239 837 225 866 c 0
 211 894 206 926 210 962 c 1
 341 962 l 1
 339 905 363 876 412 876 c 0
 461 876 493 905 509 962 c 1
 641 962 l 1
 634 926 619 894 596 866 c 0
 573 837 544 815 510 799 c 0
 474 783 437 775 396 775 c 0
 355 775 320 783 290 799 c 0
EndSplineSet
EndChar

StartChar: uni1EB0
Encoding: 7856 7856 7
Width: 668
Flags: W
LayerCount: 2
Fore
SplineSet
486 894 m 0
 501 907 513 925 521 950 c 1
 415 950 l 1
 328 1160 l 1
 495 1160 l 1
 540 962 l 1
 657 962 l 1
 650 926 635 894 612 866 c 0
 589 837 560 815 526 799 c 0
 490 783 453 775 412 775 c 0
 371 775 336 783 306 799 c 0
 277 815 255 837 241 866 c 0
 227 894 222 926 226 962 c 1
 358 962 l 1
 356 905 379 876 428 876 c 0
 451 876 470 882 486 894 c 0
464 0 m 1
 443 167 l 1
 189 167 l 1
 115 0 l 1
 -36 0 l 1
 312 730 l 1
 498 730 l 1
 615 0 l 1
 464 0 l 1
243 289 m 1
 427 289 l 1
 387 611 l 1
 385 611 l 1
 243 289 l 1
EndSplineSet
EndChar

StartChar: uni1EB2
Encoding: 7858 7858 8
Width: 668
Flags: W
LayerCount: 2
Fore
SplineSet
522 952 m 1
 463 952 l 1
 475 979 482 1000 485 1016 c 0
 487 1030 484 1039 476 1044 c 0
 469 1049 453 1051 430 1051 c 0
 385 1051 341 1044 296 1031 c 1
 301 1134 l 1
 354 1146 411 1152 472 1152 c 0
 517 1152 550 1150 573 1144 c 0
 596 1140 611 1131 619 1118 c 0
 627 1106 629 1088 626 1065 c 0
 623 1050 619 1033 612 1014 c 0
 606 995 599 978 592 962 c 1
 657 962 l 1
 650 926 635 894 612 866 c 0
 589 837 560 815 526 799 c 0
 490 783 453 775 412 775 c 0
 371 775 336 783 306 799 c 0
 277 815 255 837 241 866 c 0
 227 894 222 926 226 962 c 1
 358 962 l 1
 356 905 379 876 428 876 c 0
 473 876 505 901 522 952 c 1
464 0 m 1
 443 167 l 1
 189 167 l 1
 115 0 l 1
 -36 0 l 1
 312 730 l 1
 498 730 l 1
 615 0 l 1
 464 0 l 1
243 289 m 1
 427 289 l 1
 387 611 l 1
 385 611 l 1
 243 289 l 1
EndSplineSet
EndChar

StartChar: uni1EB4
Encoding: 7860 7860 9
Width: 684
Flags: W
LayerCount: 2
Fore
SplineSet
464 0 m 1
 443 167 l 1
 189 167 l 1
 115 0 l 1
 -36 0 l 1
 312 730 l 1
 498 730 l 1
 615 0 l 1
 464 0 l 1
243 289 m 1
 427 289 l 1
 387 611 l 1
 385 611 l 1
 243 289 l 1
290 799 m 0
 261 815 239 837 225 866 c 0
 211 894 206 926 210 962 c 1
 341 962 l 1
 339 905 363 876 412 876 c 0
 461 876 493 905 509 962 c 1
 641 962 l 1
 634 926 619 894 596 866 c 0
 573 837 544 815 510 799 c 0
 474 783 437 775 396 775 c 0
 355 775 320 783 290 799 c 0
492 1012 m 0
 474 1018 452 1030 428 1046 c 0
 401 1064 382 1073 370 1073 c 0
 360 1073 352 1068 347 1060 c 0
 342 1050 337 1034 333 1011 c 1
 220 1011 l 1
 230 1074 246 1120 268 1150 c 0
 289 1180 318 1195 353 1195 c 0
 387 1195 426 1180 470 1150 c 0
 497 1132 516 1123 529 1123 c 0
 538 1123 546 1128 551 1136 c 0
 556 1146 561 1162 565 1185 c 1
 678 1185 l 1
 668 1122 652 1075 631 1046 c 0
 610 1016 581 1001 546 1001 c 0
 529 1001 512 1004 492 1012 c 0
EndSplineSet
EndChar

StartChar: Acircumflex
Encoding: 194 194 10
Width: 684
Flags: W
LayerCount: 2
Fore
SplineSet
464 0 m 1
 443 167 l 1
 189 167 l 1
 115 0 l 1
 -36 0 l 1
 312 730 l 1
 498 730 l 1
 615 0 l 1
 464 0 l 1
243 289 m 1
 427 289 l 1
 387 611 l 1
 385 611 l 1
 243 289 l 1
319 980 m 1
 544 980 l 1
 631 770 l 1
 478 770 l 1
 424 923 l 1
 422 923 l 1
 319 770 l 1
 167 770 l 1
 319 980 l 1
EndSplineSet
EndChar

StartChar: uni1EA4
Encoding: 7844 7844 11
Width: 669
Flags: W
LayerCount: 2
Fore
SplineSet
435 923 m 1
 332 770 l 1
 179 770 l 1
 332 980 l 1
 548 980 l 1
 646 1160 l 1
 812 1160 l 1
 658 950 l 1
 569 950 l 1
 644 770 l 1
 491 770 l 1
 437 923 l 1
 435 923 l 1
312 730 m 1
 498 730 l 1
 615 0 l 1
 464 0 l 1
 443 167 l 1
 189 167 l 1
 115 0 l 1
 -36 0 l 1
 312 730 l 1
243 289 m 1
 427 289 l 1
 387 611 l 1
 385 611 l 1
 243 289 l 1
EndSplineSet
EndChar

StartChar: uni1EAC
Encoding: 7852 7852 12
Width: 684
Flags: W
LayerCount: 2
Fore
SplineSet
464 0 m 1
 443 167 l 1
 189 167 l 1
 115 0 l 1
 -36 0 l 1
 312 730 l 1
 498 730 l 1
 615 0 l 1
 464 0 l 1
243 289 m 1
 427 289 l 1
 387 611 l 1
 385 611 l 1
 243 289 l 1
228 -71 m 1
 373 -71 l 1
 349 -219 l 1
 204 -219 l 1
 228 -71 l 1
319 980 m 1
 544 980 l 1
 631 770 l 1
 478 770 l 1
 424 923 l 1
 422 923 l 1
 319 770 l 1
 167 770 l 1
 319 980 l 1
EndSplineSet
EndChar

StartChar: uni1EA6
Encoding: 7846 7846 13
Width: 669
Flags: W
LayerCount: 2
Fore
SplineSet
312 950 m 1
 222 950 l 1
 135 1160 l 1
 302 1160 l 1
 343 980 l 1
 557 980 l 1
 645 770 l 1
 492 770 l 1
 438 923 l 1
 436 923 l 1
 333 770 l 1
 180 770 l 1
 312 950 l 1
465 0 m 1
 444 167 l 1
 189 167 l 1
 116 0 l 1
 -35 0 l 1
 313 730 l 1
 499 730 l 1
 616 0 l 1
 465 0 l 1
244 289 m 1
 428 289 l 1
 388 611 l 1
 386 611 l 1
 244 289 l 1
EndSplineSet
EndChar

StartChar: uni1EA8
Encoding: 7848 7848 14
Width: 668
Flags: W
LayerCount: 2
Fore
SplineSet
332 770 m 1
 179 770 l 1
 332 980 l 1
 545 980 l 1
 550 996 553 1007 554 1012 c 0
 556 1026 553 1035 546 1040 c 0
 538 1045 522 1047 499 1047 c 0
 454 1047 410 1040 365 1027 c 1
 369 1130 l 1
 422 1142 479 1148 541 1148 c 0
 586 1148 619 1146 642 1140 c 0
 665 1136 680 1127 688 1114 c 0
 696 1102 698 1084 695 1061 c 0
 692 1044 687 1026 680 1004 c 0
 673 984 664 965 655 948 c 1
 570 948 l 1
 644 770 l 1
 491 770 l 1
 437 923 l 1
 435 923 l 1
 332 770 l 1
464 0 m 1
 443 167 l 1
 189 167 l 1
 115 0 l 1
 -36 0 l 1
 312 730 l 1
 498 730 l 1
 615 0 l 1
 464 0 l 1
243 289 m 1
 427 289 l 1
 387 611 l 1
 385 611 l 1
 243 289 l 1
EndSplineSet
EndChar

StartChar: uni1EAA
Encoding: 7850 7850 15
Width: 684
Flags: W
LayerCount: 2
Fore
SplineSet
464 0 m 1
 443 167 l 1
 189 167 l 1
 115 0 l 1
 -36 0 l 1
 312 730 l 1
 498 730 l 1
 615 0 l 1
 464 0 l 1
243 289 m 1
 427 289 l 1
 387 611 l 1
 385 611 l 1
 243 289 l 1
319 980 m 1
 544 980 l 1
 631 770 l 1
 478 770 l 1
 424 923 l 1
 422 923 l 1
 319 770 l 1
 167 770 l 1
 319 980 l 1
492 1012 m 0
 474 1018 452 1030 428 1046 c 0
 401 1064 382 1073 370 1073 c 0
 360 1073 352 1068 347 1060 c 0
 342 1050 337 1034 333 1011 c 1
 220 1011 l 1
 230 1074 246 1120 268 1150 c 0
 289 1180 318 1195 353 1195 c 0
 387 1195 426 1180 470 1150 c 0
 497 1132 516 1123 529 1123 c 0
 538 1123 546 1128 551 1136 c 0
 556 1146 561 1162 565 1185 c 1
 678 1185 l 1
 668 1122 652 1075 631 1046 c 0
 610 1016 581 1001 546 1001 c 0
 529 1001 512 1004 492 1012 c 0
EndSplineSet
EndChar

StartChar: uni0200
Encoding: 512 512 16
Width: 684
Flags: W
LayerCount: 2
Fore
SplineSet
464 0 m 1
 443 167 l 1
 189 167 l 1
 115 0 l 1
 -36 0 l 1
 312 730 l 1
 498 730 l 1
 615 0 l 1
 464 0 l 1
243 289 m 1
 427 289 l 1
 387 611 l 1
 385 611 l 1
 243 289 l 1
152 980 m 1
 319 980 l 1
 367 770 l 1
 239 770 l 1
 152 980 l 1
387 980 m 1
 554 980 l 1
 602 770 l 1
 475 770 l 1
 387 980 l 1
EndSplineSet
EndChar

StartChar: Adieresis
Encoding: 196 196 17
Width: 684
Flags: W
LayerCount: 2
Fore
SplineSet
464 0 m 1
 443 167 l 1
 189 167 l 1
 115 0 l 1
 -36 0 l 1
 312 730 l 1
 498 730 l 1
 615 0 l 1
 464 0 l 1
243 289 m 1
 427 289 l 1
 387 611 l 1
 385 611 l 1
 243 289 l 1
222 949 m 1
 367 949 l 1
 344 801 l 1
 199 801 l 1
 222 949 l 1
477 949 m 1
 621 949 l 1
 598 801 l 1
 453 801 l 1
 477 949 l 1
EndSplineSet
EndChar

StartChar: uni1EA0
Encoding: 7840 7840 18
Width: 684
Flags: W
LayerCount: 2
Fore
SplineSet
464 0 m 1
 443 167 l 1
 189 167 l 1
 115 0 l 1
 -36 0 l 1
 312 730 l 1
 498 730 l 1
 615 0 l 1
 464 0 l 1
243 289 m 1
 427 289 l 1
 387 611 l 1
 385 611 l 1
 243 289 l 1
228 -71 m 1
 373 -71 l 1
 349 -219 l 1
 204 -219 l 1
 228 -71 l 1
EndSplineSet
EndChar

StartChar: Agrave
Encoding: 192 192 19
Width: 684
Flags: W
LayerCount: 2
Fore
SplineSet
464 0 m 1
 443 167 l 1
 189 167 l 1
 115 0 l 1
 -36 0 l 1
 312 730 l 1
 498 730 l 1
 615 0 l 1
 464 0 l 1
243 289 m 1
 427 289 l 1
 387 611 l 1
 385 611 l 1
 243 289 l 1
271 980 m 1
 437 980 l 1
 485 770 l 1
 358 770 l 1
 271 980 l 1
EndSplineSet
EndChar

StartChar: uni1EA2
Encoding: 7842 7842 20
Width: 684
Flags: W
LayerCount: 2
Fore
SplineSet
464 0 m 1
 443 167 l 1
 189 167 l 1
 115 0 l 1
 -36 0 l 1
 312 730 l 1
 498 730 l 1
 615 0 l 1
 464 0 l 1
243 289 m 1
 427 289 l 1
 387 611 l 1
 385 611 l 1
 243 289 l 1
495 849 m 0
 497 863 494 872 486 877 c 0
 479 882 464 884 441 884 c 0
 396 884 352 877 307 864 c 1
 311 967 l 1
 364 979 421 985 483 985 c 0
 528 985 561 982 584 978 c 0
 606 972 621 964 630 952 c 0
 638 939 640 921 636 898 c 0
 633 881 628 862 622 842 c 0
 614 820 606 802 597 785 c 1
 473 785 l 1
 485 812 492 833 495 849 c 0
EndSplineSet
EndChar

StartChar: uni0202
Encoding: 514 514 21
Width: 684
Flags: W
LayerCount: 2
Fore
SplineSet
464 0 m 1
 443 167 l 1
 189 167 l 1
 115 0 l 1
 -36 0 l 1
 312 730 l 1
 498 730 l 1
 615 0 l 1
 464 0 l 1
243 289 m 1
 427 289 l 1
 387 611 l 1
 385 611 l 1
 243 289 l 1
534 951 m 0
 563 935 585 913 599 884 c 0
 613 856 618 824 614 788 c 1
 481 788 l 1
 483 845 460 874 412 874 c 0
 363 874 330 845 314 788 c 1
 183 788 l 1
 190 824 205 856 228 884 c 0
 251 913 280 935 314 951 c 0
 350 967 387 975 428 975 c 0
 469 975 504 967 534 951 c 0
EndSplineSet
EndChar

StartChar: Amacron
Encoding: 256 256 22
Width: 684
Flags: W
LayerCount: 2
Fore
SplineSet
464 0 m 1
 443 167 l 1
 189 167 l 1
 115 0 l 1
 -36 0 l 1
 312 730 l 1
 498 730 l 1
 615 0 l 1
 464 0 l 1
243 289 m 1
 427 289 l 1
 387 611 l 1
 385 611 l 1
 243 289 l 1
225 927 m 1
 610 927 l 1
 593 823 l 1
 209 823 l 1
 225 927 l 1
EndSplineSet
EndChar

StartChar: Aogonek
Encoding: 260 260 23
Width: 675
Flags: W
LayerCount: 2
Fore
SplineSet
672 -197 m 1
 636 -211 596 -218 553 -218 c 0
 497 -218 455 -208 428 -188 c 0
 401 -167 390 -139 396 -102 c 0
 402 -65 424 -29 463 5 c 1
 443 167 l 1
 189 167 l 1
 115 0 l 1
 -36 0 l 1
 312 730 l 1
 498 730 l 1
 615 0 l 1
 558 -29 527 -56 523 -81 c 0
 521 -92 525 -101 534 -106 c 0
 544 -112 559 -115 579 -115 c 0
 609 -115 640 -109 672 -96 c 1
 672 -197 l 1
243 289 m 1
 427 289 l 1
 387 611 l 1
 385 611 l 1
 243 289 l 1
EndSplineSet
EndChar

StartChar: Aring
Encoding: 197 197 24
Width: 668
Flags: W
LayerCount: 2
Fore
SplineSet
443 167 m 1
 189 167 l 1
 115 0 l 1
 -36 0 l 1
 306 719 l 1
 291 734 281 752 274 772 c 0
 268 794 267 816 271 840 c 0
 276 869 287 895 304 919 c 0
 321 943 343 962 368 976 c 0
 394 990 421 997 448 997 c 0
 476 997 501 990 522 976 c 0
 543 962 559 943 569 919 c 0
 579 895 582 869 577 840 c 0
 573 815 564 792 551 771 c 0
 538 750 521 732 500 717 c 1
 615 0 l 1
 464 0 l 1
 443 167 l 1
386 886 m 0
 371 873 363 858 360 840 c 0
 357 822 361 807 372 794 c 0
 382 781 396 775 413 775 c 0
 431 775 447 781 462 794 c 0
 476 807 484 822 487 840 c 0
 490 858 486 873 476 886 c 0
 466 899 452 905 434 905 c 0
 416 905 400 899 386 886 c 0
243 289 m 1
 427 289 l 1
 387 611 l 1
 385 611 l 1
 243 289 l 1
EndSplineSet
EndChar

StartChar: Aringacute
Encoding: 506 506 25
Width: 668
Flags: W
LayerCount: 2
Fore
SplineSet
443 167 m 1
 189 167 l 1
 115 0 l 1
 -36 0 l 1
 306 719 l 1
 291 734 281 752 274 772 c 0
 268 794 267 816 271 840 c 0
 275 863 283 885 296 906 c 0
 308 927 323 944 342 958 c 1
 453 1162 l 1
 620 1162 l 1
 493 990 l 1
 524 980 547 961 562 934 c 0
 578 907 583 875 577 840 c 0
 573 815 564 792 551 771 c 0
 538 750 521 732 500 717 c 1
 615 0 l 1
 464 0 l 1
 443 167 l 1
462 794 m 0
 476 807 484 822 487 840 c 0
 490 858 486 873 476 886 c 0
 466 899 452 905 434 905 c 0
 417 905 401 899 386 886 c 0
 371 873 363 858 360 840 c 0
 357 822 361 807 372 794 c 0
 382 781 396 775 413 775 c 0
 432 775 448 781 462 794 c 0
243 289 m 1
 427 289 l 1
 387 611 l 1
 385 611 l 1
 243 289 l 1
EndSplineSet
EndChar

StartChar: Atilde
Encoding: 195 195 26
Width: 684
Flags: W
LayerCount: 2
Fore
SplineSet
464 0 m 1
 443 167 l 1
 189 167 l 1
 115 0 l 1
 -36 0 l 1
 312 730 l 1
 498 730 l 1
 615 0 l 1
 464 0 l 1
243 289 m 1
 427 289 l 1
 387 611 l 1
 385 611 l 1
 243 289 l 1
456 788 m 0
 438 796 416 807 392 823 c 0
 365 841 346 850 334 850 c 0
 324 850 316 846 311 836 c 0
 306 828 301 811 297 788 c 1
 184 788 l 1
 194 851 210 897 232 927 c 0
 253 957 282 972 317 972 c 0
 351 972 390 957 434 927 c 0
 461 909 480 900 493 900 c 0
 502 900 510 904 515 914 c 0
 520 922 525 939 529 962 c 1
 642 962 l 1
 632 899 616 852 595 822 c 0
 574 793 545 778 510 778 c 0
 493 778 476 782 456 788 c 0
EndSplineSet
EndChar

StartChar: AE
Encoding: 198 198 27
Width: 853
Flags: W
LayerCount: 2
Fore
SplineSet
850 611 m 1
 588 611 l 1
 561 438 l 1
 803 438 l 1
 785 323 l 1
 542 323 l 1
 510 119 l 1
 772 119 l 1
 753 0 l 1
 354 0 l 1
 381 167 l 1
 199 167 l 1
 115 0 l 1
 -36 0 l 1
 355 730 l 1
 869 730 l 1
 850 611 l 1
261 289 m 1
 400 289 l 1
 452 617 l 1
 426 617 l 1
 261 289 l 1
EndSplineSet
EndChar

StartChar: AEacute
Encoding: 508 508 28
Width: 876
Flags: W
LayerCount: 2
Fore
SplineSet
850 611 m 1
 588 611 l 1
 561 438 l 1
 803 438 l 1
 785 323 l 1
 542 323 l 1
 510 119 l 1
 772 119 l 1
 753 0 l 1
 354 0 l 1
 381 167 l 1
 199 167 l 1
 115 0 l 1
 -36 0 l 1
 355 730 l 1
 869 730 l 1
 850 611 l 1
261 289 m 1
 400 289 l 1
 452 617 l 1
 426 617 l 1
 261 289 l 1
591 770 m 1
 464 770 l 1
 578 980 l 1
 745 980 l 1
 591 770 l 1
EndSplineSet
EndChar

StartChar: B
Encoding: 66 66 29
Width: 636
Flags: W
LayerCount: 2
Fore
SplineSet
570 328 m 0
 592 298 600 258 592 207 c 0
 570 69 457 0 252 0 c 2
 23 0 l 1
 139 730 l 1
 361 730 l 2
 552 730 639 671 620 552 c 0
 613 508 596 472 567 444 c 0
 538 415 501 397 456 388 c 1
 456 386 l 1
 509 378 546 359 570 328 c 0
258 613 m 1
 230 437 l 1
 321 437 l 2
 371 437 409 444 434 458 c 0
 459 473 474 496 479 527 c 0
 484 558 476 580 456 593 c 0
 436 606 400 613 349 613 c 2
 258 613 l 1
401 142 m 0
 431 159 449 185 454 220 c 0
 459 255 450 281 426 298 c 0
 401 315 360 323 303 323 c 2
 212 323 l 1
 179 117 l 1
 270 117 l 2
 327 117 371 125 401 142 c 0
EndSplineSet
EndChar

StartChar: C
Encoding: 67 67 30
Width: 673
Flags: W
LayerCount: 2
Fore
SplineSet
160 34 m 0
 110 64 76 107 57 164 c 0
 38 220 34 287 46 365 c 0
 59 443 84 510 121 566 c 0
 158 623 206 666 264 696 c 0
 323 725 390 740 465 740 c 0
 556 740 633 718 694 674 c 1
 620 563 l 1
 567 599 511 617 451 617 c 0
 381 617 323 595 276 550 c 0
 229 506 200 444 188 365 c 0
 175 286 185 224 218 180 c 0
 250 135 301 113 371 113 c 0
 431 113 493 131 557 167 c 1
 596 56 l 1
 521 12 437 -10 346 -10 c 0
 271 -10 208 5 160 34 c 0
EndSplineSet
EndChar

StartChar: Cacute
Encoding: 262 262 31
Width: 693
Flags: W
LayerCount: 2
Fore
SplineSet
160 34 m 0
 110 64 76 107 57 164 c 0
 38 220 34 287 46 365 c 0
 59 443 84 510 121 566 c 0
 158 623 206 666 264 696 c 0
 323 725 390 740 465 740 c 0
 556 740 633 718 694 674 c 1
 620 563 l 1
 567 599 511 617 451 617 c 0
 381 617 323 595 276 550 c 0
 229 506 200 444 188 365 c 0
 175 286 185 224 218 180 c 0
 250 135 301 113 371 113 c 0
 431 113 493 131 557 167 c 1
 596 56 l 1
 521 12 437 -10 346 -10 c 0
 271 -10 208 5 160 34 c 0
504 770 m 1
 377 770 l 1
 491 980 l 1
 658 980 l 1
 504 770 l 1
EndSplineSet
EndChar

StartChar: Ccaron
Encoding: 268 268 32
Width: 693
Flags: W
LayerCount: 2
Fore
SplineSet
160 34 m 0
 110 64 76 107 57 164 c 0
 38 220 34 287 46 365 c 0
 59 443 84 510 121 566 c 0
 158 623 206 666 264 696 c 0
 323 725 390 740 465 740 c 0
 556 740 633 718 694 674 c 1
 620 563 l 1
 567 599 511 617 451 617 c 0
 381 617 323 595 276 550 c 0
 229 506 200 444 188 365 c 0
 175 286 185 224 218 180 c 0
 250 135 301 113 371 113 c 0
 431 113 493 131 557 167 c 1
 596 56 l 1
 521 12 437 -10 346 -10 c 0
 271 -10 208 5 160 34 c 0
238 980 m 1
 391 980 l 1
 445 827 l 1
 447 827 l 1
 550 980 l 1
 702 980 l 1
 549 770 l 1
 324 770 l 1
 238 980 l 1
EndSplineSet
EndChar

StartChar: Ccedilla
Encoding: 199 199 33
Width: 673
Flags: W
LayerCount: 2
Fore
SplineSet
596 56 m 1
 544 26 488 6 427 -4 c 1
 451 -35 460 -68 455 -102 c 0
 449 -139 429 -167 396 -188 c 0
 362 -208 317 -218 261 -218 c 0
 218 -218 181 -211 148 -197 c 1
 180 -96 l 1
 207 -109 236 -115 267 -115 c 0
 286 -115 302 -112 314 -106 c 0
 325 -100 332 -92 334 -81 c 0
 338 -57 318 -32 275 -5 c 1
 186 8 121 47 82 112 c 0
 42 176 30 260 46 365 c 0
 59 443 84 510 121 566 c 0
 158 623 206 666 264 696 c 0
 323 725 390 740 465 740 c 0
 556 740 633 718 694 674 c 1
 620 563 l 1
 567 599 511 617 451 617 c 0
 381 617 323 595 276 550 c 0
 229 506 200 444 188 365 c 0
 175 286 185 224 218 180 c 0
 250 135 301 113 371 113 c 0
 431 113 493 131 557 167 c 1
 596 56 l 1
EndSplineSet
EndChar

StartChar: Ccircumflex
Encoding: 264 264 34
Width: 693
Flags: W
LayerCount: 2
Fore
SplineSet
160 34 m 0
 110 64 76 107 57 164 c 0
 38 220 34 287 46 365 c 0
 59 443 84 510 121 566 c 0
 158 623 206 666 264 696 c 0
 323 725 390 740 465 740 c 0
 556 740 633 718 694 674 c 1
 620 563 l 1
 567 599 511 617 451 617 c 0
 381 617 323 595 276 550 c 0
 229 506 200 444 188 365 c 0
 175 286 185 224 218 180 c 0
 250 135 301 113 371 113 c 0
 431 113 493 131 557 167 c 1
 596 56 l 1
 521 12 437 -10 346 -10 c 0
 271 -10 208 5 160 34 c 0
357 980 m 1
 582 980 l 1
 669 770 l 1
 516 770 l 1
 462 923 l 1
 460 923 l 1
 357 770 l 1
 205 770 l 1
 357 980 l 1
EndSplineSet
EndChar

StartChar: Cdotaccent
Encoding: 266 266 35
Width: 693
Flags: W
LayerCount: 2
Fore
SplineSet
160 34 m 0
 110 64 76 107 57 164 c 0
 38 220 34 287 46 365 c 0
 59 443 84 510 121 566 c 0
 158 623 206 666 264 696 c 0
 323 725 390 740 465 740 c 0
 556 740 633 718 694 674 c 1
 620 563 l 1
 567 599 511 617 451 617 c 0
 381 617 323 595 276 550 c 0
 229 506 200 444 188 365 c 0
 175 286 185 224 218 180 c 0
 250 135 301 113 371 113 c 0
 431 113 493 131 557 167 c 1
 596 56 l 1
 521 12 437 -10 346 -10 c 0
 271 -10 208 5 160 34 c 0
427 949 m 1
 572 949 l 1
 548 801 l 1
 403 801 l 1
 427 949 l 1
EndSplineSet
EndChar

StartChar: D
Encoding: 68 68 36
Width: 667
Flags: W
LayerCount: 2
Fore
SplineSet
342 730 m 2
 466 730 553 700 602 642 c 0
 651 582 666 490 647 365 c 0
 627 240 583 148 514 88 c 0
 446 30 350 0 226 0 c 2
 23 0 l 1
 139 730 l 1
 342 730 l 2
382 144 m 0
 415 161 442 187 462 222 c 0
 482 257 497 305 506 365 c 0
 515 425 516 473 507 508 c 0
 498 543 480 569 452 586 c 0
 423 602 383 610 332 610 c 2
 257 610 l 1
 179 120 l 1
 254 120 l 2
 305 120 348 128 382 144 c 0
EndSplineSet
EndChar

StartChar: uni01C4
Encoding: 452 452 37
Width: 1292
Flags: W
LayerCount: 2
Fore
SplineSet
342 730 m 2
 466 730 553 700 602 642 c 0
 651 582 666 490 647 365 c 0
 627 240 583 148 514 88 c 0
 446 30 350 0 226 0 c 2
 23 0 l 1
 139 730 l 1
 342 730 l 2
382 144 m 0
 415 161 442 187 462 222 c 0
 482 257 497 305 506 365 c 0
 515 425 516 473 507 508 c 0
 498 543 480 569 452 586 c 0
 423 602 383 610 332 610 c 2
 257 610 l 1
 179 120 l 1
 254 120 l 2
 305 120 348 128 382 144 c 0
681 122 m 1
 1103 606 l 1
 1103 608 l 1
 758 608 l 1
 777 730 l 1
 1287 730 l 1
 1267 608 l 1
 846 124 l 1
 846 122 l 1
 1191 122 l 1
 1171 0 l 1
 662 0 l 1
 681 122 l 1
830 980 m 1
 983 980 l 1
 1037 827 l 1
 1039 827 l 1
 1142 980 l 1
 1294 980 l 1
 1141 770 l 1
 916 770 l 1
 830 980 l 1
EndSplineSet
EndChar

StartChar: Eth
Encoding: 208 208 38
Width: 726
Flags: W
LayerCount: 2
Fore
SplineSet
661 642 m 0
 710 582 725 490 705 365 c 0
 685 240 641 148 574 88 c 0
 506 30 409 0 284 0 c 2
 83 0 l 1
 132 312 l 1
 27 312 l 1
 44 418 l 1
 149 418 l 1
 198 730 l 1
 400 730 l 2
 525 730 612 700 661 642 c 0
442 144 m 0
 475 161 502 187 522 222 c 0
 541 257 556 305 565 365 c 0
 574 425 575 473 566 508 c 0
 558 543 540 569 511 586 c 0
 482 602 442 610 390 610 c 2
 316 610 l 1
 286 418 l 1
 456 418 l 1
 439 312 l 1
 269 312 l 1
 239 120 l 1
 312 120 l 2
 365 120 408 128 442 144 c 0
EndSplineSet
EndChar

StartChar: Dcaron
Encoding: 270 270 39
Width: 689
Flags: W
LayerCount: 2
Fore
SplineSet
342 730 m 2
 466 730 553 700 602 642 c 0
 651 582 666 490 647 365 c 0
 627 240 583 148 514 88 c 0
 446 30 350 0 226 0 c 2
 23 0 l 1
 139 730 l 1
 342 730 l 2
382 144 m 0
 415 161 442 187 462 222 c 0
 482 257 497 305 506 365 c 0
 515 425 516 473 507 508 c 0
 498 543 480 569 452 586 c 0
 423 602 383 610 332 610 c 2
 257 610 l 1
 179 120 l 1
 254 120 l 2
 305 120 348 128 382 144 c 0
203 980 m 1
 356 980 l 1
 410 827 l 1
 412 827 l 1
 515 980 l 1
 667 980 l 1
 514 770 l 1
 289 770 l 1
 203 980 l 1
EndSplineSet
EndChar

StartChar: Dcroat
Encoding: 272 272 40
Width: 746
Flags: W
LayerCount: 2
Fore
SplineSet
661 642 m 0
 710 582 725 490 705 365 c 0
 685 240 641 148 574 88 c 0
 506 30 409 0 284 0 c 2
 83 0 l 1
 132 312 l 1
 27 312 l 1
 44 418 l 1
 149 418 l 1
 198 730 l 1
 400 730 l 2
 525 730 612 700 661 642 c 0
442 144 m 0
 475 161 502 187 522 222 c 0
 541 257 556 305 565 365 c 0
 574 425 575 473 566 508 c 0
 558 543 540 569 511 586 c 0
 482 602 442 610 390 610 c 2
 316 610 l 1
 286 418 l 1
 456 418 l 1
 439 312 l 1
 269 312 l 1
 239 120 l 1
 312 120 l 2
 365 120 408 128 442 144 c 0
EndSplineSet
EndChar

StartChar: uni01C5
Encoding: 453 453 41
Width: 1223
Flags: W
LayerCount: 2
Fore
SplineSet
342 730 m 2
 466 730 553 700 602 642 c 0
 651 582 666 490 647 365 c 0
 627 240 583 148 514 88 c 0
 446 30 350 0 226 0 c 2
 23 0 l 1
 139 730 l 1
 342 730 l 2
382 144 m 0
 415 161 442 187 462 222 c 0
 482 257 497 305 506 365 c 0
 515 425 516 473 507 508 c 0
 498 543 480 569 452 586 c 0
 423 602 383 610 332 610 c 2
 257 610 l 1
 179 120 l 1
 254 120 l 2
 305 120 348 128 382 144 c 0
700 107 m 1
 998 411 l 1
 998 413 l 1
 749 413 l 1
 766 520 l 1
 1180 520 l 1
 1163 413 l 1
 865 109 l 1
 864 107 l 1
 1114 107 l 1
 1097 0 l 1
 683 0 l 1
 700 107 l 1
776 770 m 1
 929 770 l 1
 983 617 l 1
 985 617 l 1
 1088 770 l 1
 1240 770 l 1
 1087 560 l 1
 862 560 l 1
 776 770 l 1
EndSplineSet
EndChar

StartChar: E
Encoding: 69 69 42
Width: 581
Flags: W
LayerCount: 2
Fore
SplineSet
139 730 m 1
 597 730 l 1
 578 611 l 1
 257 611 l 1
 230 438 l 1
 531 438 l 1
 512 323 l 1
 212 323 l 1
 179 119 l 1
 500 119 l 1
 481 0 l 1
 23 0 l 1
 139 730 l 1
EndSplineSet
EndChar

StartChar: Eacute
Encoding: 201 201 43
Width: 603
Flags: W
LayerCount: 2
Fore
SplineSet
139 730 m 1
 597 730 l 1
 578 611 l 1
 257 611 l 1
 230 438 l 1
 531 438 l 1
 512 323 l 1
 212 323 l 1
 179 119 l 1
 500 119 l 1
 481 0 l 1
 23 0 l 1
 139 730 l 1
434 770 m 1
 307 770 l 1
 421 980 l 1
 588 980 l 1
 434 770 l 1
EndSplineSet
EndChar

StartChar: Ebreve
Encoding: 276 276 44
Width: 603
Flags: W
LayerCount: 2
Fore
SplineSet
139 730 m 1
 597 730 l 1
 578 611 l 1
 257 611 l 1
 230 438 l 1
 531 438 l 1
 512 323 l 1
 212 323 l 1
 179 119 l 1
 500 119 l 1
 481 0 l 1
 23 0 l 1
 139 730 l 1
258 799 m 0
 229 815 207 837 193 866 c 0
 179 894 174 926 178 962 c 1
 309 962 l 1
 307 905 331 876 380 876 c 0
 429 876 461 905 477 962 c 1
 609 962 l 1
 602 926 587 894 564 866 c 0
 541 837 512 815 478 799 c 0
 442 783 405 775 364 775 c 0
 323 775 288 783 258 799 c 0
EndSplineSet
EndChar

StartChar: Ecaron
Encoding: 282 282 45
Width: 603
Flags: W
LayerCount: 2
Fore
SplineSet
139 730 m 1
 597 730 l 1
 578 611 l 1
 257 611 l 1
 230 438 l 1
 531 438 l 1
 512 323 l 1
 212 323 l 1
 179 119 l 1
 500 119 l 1
 481 0 l 1
 23 0 l 1
 139 730 l 1
168 980 m 1
 321 980 l 1
 375 827 l 1
 377 827 l 1
 480 980 l 1
 632 980 l 1
 479 770 l 1
 254 770 l 1
 168 980 l 1
EndSplineSet
EndChar

StartChar: Ecircumflex
Encoding: 202 202 46
Width: 603
Flags: W
LayerCount: 2
Fore
SplineSet
139 730 m 1
 597 730 l 1
 578 611 l 1
 257 611 l 1
 230 438 l 1
 531 438 l 1
 512 323 l 1
 212 323 l 1
 179 119 l 1
 500 119 l 1
 481 0 l 1
 23 0 l 1
 139 730 l 1
287 980 m 1
 512 980 l 1
 599 770 l 1
 446 770 l 1
 392 923 l 1
 390 923 l 1
 287 770 l 1
 135 770 l 1
 287 980 l 1
EndSplineSet
EndChar

StartChar: uni1EBE
Encoding: 7870 7870 47
Width: 589
Flags: W
LayerCount: 2
Fore
SplineSet
623 950 m 1
 534 950 l 1
 608 770 l 1
 455 770 l 1
 401 923 l 1
 399 923 l 1
 296 770 l 1
 143 770 l 1
 296 980 l 1
 512 980 l 1
 610 1160 l 1
 776 1160 l 1
 623 950 l 1
23 0 m 1
 139 730 l 1
 597 730 l 1
 578 611 l 1
 257 611 l 1
 230 438 l 1
 531 438 l 1
 513 323 l 1
 212 323 l 1
 179 119 l 1
 500 119 l 1
 481 0 l 1
 23 0 l 1
EndSplineSet
EndChar

StartChar: uni1EC6
Encoding: 7878 7878 48
Width: 603
Flags: W
LayerCount: 2
Fore
SplineSet
139 730 m 1
 597 730 l 1
 578 611 l 1
 257 611 l 1
 230 438 l 1
 531 438 l 1
 512 323 l 1
 212 323 l 1
 179 119 l 1
 500 119 l 1
 481 0 l 1
 23 0 l 1
 139 730 l 1
196 -71 m 1
 341 -71 l 1
 317 -219 l 1
 172 -219 l 1
 196 -71 l 1
287 980 m 1
 512 980 l 1
 599 770 l 1
 446 770 l 1
 392 923 l 1
 390 923 l 1
 287 770 l 1
 135 770 l 1
 287 980 l 1
EndSplineSet
EndChar

StartChar: uni1EC0
Encoding: 7872 7872 49
Width: 589
Flags: W
LayerCount: 2
Fore
SplineSet
304 770 m 1
 151 770 l 1
 282 950 l 1
 193 950 l 1
 106 1160 l 1
 273 1160 l 1
 314 980 l 1
 528 980 l 1
 616 770 l 1
 463 770 l 1
 408 923 l 1
 407 923 l 1
 304 770 l 1
31 0 m 1
 147 730 l 1
 604 730 l 1
 585 611 l 1
 265 611 l 1
 238 438 l 1
 538 438 l 1
 520 323 l 1
 219 323 l 1
 187 119 l 1
 508 119 l 1
 489 0 l 1
 31 0 l 1
EndSplineSet
EndChar

StartChar: uni1EC2
Encoding: 7874 7874 50
Width: 582
Flags: W
LayerCount: 2
Fore
SplineSet
534 948 m 1
 608 770 l 1
 455 770 l 1
 401 923 l 1
 399 923 l 1
 296 770 l 1
 143 770 l 1
 296 980 l 1
 509 980 l 1
 514 996 517 1007 518 1012 c 0
 520 1026 517 1035 510 1040 c 0
 502 1045 487 1047 464 1047 c 0
 419 1047 374 1040 329 1027 c 1
 334 1130 l 1
 387 1142 444 1148 505 1148 c 0
 550 1148 583 1146 606 1140 c 0
 629 1136 644 1127 652 1114 c 0
 660 1102 662 1084 659 1061 c 0
 656 1044 651 1026 644 1004 c 0
 637 984 628 965 619 948 c 1
 534 948 l 1
23 0 m 1
 139 730 l 1
 597 730 l 1
 578 611 l 1
 257 611 l 1
 230 438 l 1
 531 438 l 1
 513 323 l 1
 212 323 l 1
 179 119 l 1
 500 119 l 1
 481 0 l 1
 23 0 l 1
EndSplineSet
EndChar

StartChar: uni1EC4
Encoding: 7876 7876 51
Width: 603
Flags: W
LayerCount: 2
Fore
SplineSet
139 730 m 1
 597 730 l 1
 578 611 l 1
 257 611 l 1
 230 438 l 1
 531 438 l 1
 512 323 l 1
 212 323 l 1
 179 119 l 1
 500 119 l 1
 481 0 l 1
 23 0 l 1
 139 730 l 1
287 980 m 1
 512 980 l 1
 599 770 l 1
 446 770 l 1
 392 923 l 1
 390 923 l 1
 287 770 l 1
 135 770 l 1
 287 980 l 1
460 1012 m 0
 442 1018 420 1030 396 1046 c 0
 369 1064 350 1073 338 1073 c 0
 328 1073 320 1068 315 1060 c 0
 310 1050 305 1034 301 1011 c 1
 188 1011 l 1
 198 1074 214 1120 236 1150 c 0
 257 1180 286 1195 321 1195 c 0
 355 1195 394 1180 438 1150 c 0
 465 1132 484 1123 497 1123 c 0
 506 1123 514 1128 519 1136 c 0
 524 1146 529 1162 533 1185 c 1
 646 1185 l 1
 636 1122 620 1075 599 1046 c 0
 578 1016 549 1001 514 1001 c 0
 497 1001 480 1004 460 1012 c 0
EndSplineSet
EndChar

StartChar: uni0204
Encoding: 516 516 52
Width: 603
Flags: W
LayerCount: 2
Fore
SplineSet
139 730 m 1
 597 730 l 1
 578 611 l 1
 257 611 l 1
 230 438 l 1
 531 438 l 1
 512 323 l 1
 212 323 l 1
 179 119 l 1
 500 119 l 1
 481 0 l 1
 23 0 l 1
 139 730 l 1
120 980 m 1
 287 980 l 1
 335 770 l 1
 207 770 l 1
 120 980 l 1
355 980 m 1
 522 980 l 1
 570 770 l 1
 443 770 l 1
 355 980 l 1
EndSplineSet
EndChar

StartChar: Edieresis
Encoding: 203 203 53
Width: 603
Flags: W
LayerCount: 2
Fore
SplineSet
139 730 m 1
 597 730 l 1
 578 611 l 1
 257 611 l 1
 230 438 l 1
 531 438 l 1
 512 323 l 1
 212 323 l 1
 179 119 l 1
 500 119 l 1
 481 0 l 1
 23 0 l 1
 139 730 l 1
190 949 m 1
 335 949 l 1
 312 801 l 1
 167 801 l 1
 190 949 l 1
445 949 m 1
 589 949 l 1
 566 801 l 1
 421 801 l 1
 445 949 l 1
EndSplineSet
EndChar

StartChar: Edotaccent
Encoding: 278 278 54
Width: 603
Flags: W
LayerCount: 2
Fore
SplineSet
139 730 m 1
 597 730 l 1
 578 611 l 1
 257 611 l 1
 230 438 l 1
 531 438 l 1
 512 323 l 1
 212 323 l 1
 179 119 l 1
 500 119 l 1
 481 0 l 1
 23 0 l 1
 139 730 l 1
357 949 m 1
 502 949 l 1
 478 801 l 1
 333 801 l 1
 357 949 l 1
EndSplineSet
EndChar

StartChar: uni1EB8
Encoding: 7864 7864 55
Width: 603
Flags: W
LayerCount: 2
Fore
SplineSet
139 730 m 1
 597 730 l 1
 578 611 l 1
 257 611 l 1
 230 438 l 1
 531 438 l 1
 512 323 l 1
 212 323 l 1
 179 119 l 1
 500 119 l 1
 481 0 l 1
 23 0 l 1
 139 730 l 1
196 -71 m 1
 341 -71 l 1
 317 -219 l 1
 172 -219 l 1
 196 -71 l 1
EndSplineSet
EndChar

StartChar: Egrave
Encoding: 200 200 56
Width: 603
Flags: W
LayerCount: 2
Fore
SplineSet
139 730 m 1
 597 730 l 1
 578 611 l 1
 257 611 l 1
 230 438 l 1
 531 438 l 1
 512 323 l 1
 212 323 l 1
 179 119 l 1
 500 119 l 1
 481 0 l 1
 23 0 l 1
 139 730 l 1
239 980 m 1
 405 980 l 1
 453 770 l 1
 326 770 l 1
 239 980 l 1
EndSplineSet
EndChar

StartChar: uni1EBA
Encoding: 7866 7866 57
Width: 603
Flags: W
LayerCount: 2
Fore
SplineSet
139 730 m 1
 597 730 l 1
 578 611 l 1
 257 611 l 1
 230 438 l 1
 531 438 l 1
 512 323 l 1
 212 323 l 1
 179 119 l 1
 500 119 l 1
 481 0 l 1
 23 0 l 1
 139 730 l 1
463 849 m 0
 465 863 462 872 454 877 c 0
 447 882 432 884 409 884 c 0
 364 884 320 877 275 864 c 1
 279 967 l 1
 332 979 389 985 451 985 c 0
 496 985 529 982 552 978 c 0
 574 972 589 964 598 952 c 0
 606 939 608 921 604 898 c 0
 601 881 596 862 590 842 c 0
 582 820 574 802 565 785 c 1
 441 785 l 1
 453 812 460 833 463 849 c 0
EndSplineSet
EndChar

StartChar: uni0206
Encoding: 518 518 58
Width: 603
Flags: W
LayerCount: 2
Fore
SplineSet
139 730 m 1
 597 730 l 1
 578 611 l 1
 257 611 l 1
 230 438 l 1
 531 438 l 1
 512 323 l 1
 212 323 l 1
 179 119 l 1
 500 119 l 1
 481 0 l 1
 23 0 l 1
 139 730 l 1
502 951 m 0
 531 935 553 913 567 884 c 0
 581 856 586 824 582 788 c 1
 449 788 l 1
 451 845 428 874 380 874 c 0
 331 874 298 845 282 788 c 1
 151 788 l 1
 158 824 173 856 196 884 c 0
 219 913 248 935 282 951 c 0
 318 967 355 975 396 975 c 0
 437 975 472 967 502 951 c 0
EndSplineSet
EndChar

StartChar: Emacron
Encoding: 274 274 59
Width: 603
Flags: W
LayerCount: 2
Fore
SplineSet
139 730 m 1
 597 730 l 1
 578 611 l 1
 257 611 l 1
 230 438 l 1
 531 438 l 1
 512 323 l 1
 212 323 l 1
 179 119 l 1
 500 119 l 1
 481 0 l 1
 23 0 l 1
 139 730 l 1
193 927 m 1
 578 927 l 1
 561 823 l 1
 177 823 l 1
 193 927 l 1
EndSplineSet
EndChar

StartChar: Eogonek
Encoding: 280 280 60
Width: 587
Flags: W
LayerCount: 2
Fore
SplineSet
538 -197 m 1
 502 -211 462 -218 419 -218 c 0
 363 -218 321 -208 294 -188 c 0
 267 -167 256 -139 262 -102 c 0
 267 -67 288 -33 323 0 c 1
 23 0 l 1
 139 730 l 1
 597 730 l 1
 578 611 l 1
 257 611 l 1
 230 438 l 1
 531 438 l 1
 512 323 l 1
 212 323 l 1
 179 119 l 1
 500 119 l 1
 481 0 l 1
 424 -29 393 -56 389 -81 c 0
 387 -92 391 -101 400 -106 c 0
 410 -112 425 -115 445 -115 c 0
 475 -115 506 -109 538 -96 c 1
 538 -197 l 1
EndSplineSet
EndChar

StartChar: uni1EBC
Encoding: 7868 7868 61
Width: 603
Flags: W
LayerCount: 2
Fore
SplineSet
139 730 m 1
 597 730 l 1
 578 611 l 1
 257 611 l 1
 230 438 l 1
 531 438 l 1
 512 323 l 1
 212 323 l 1
 179 119 l 1
 500 119 l 1
 481 0 l 1
 23 0 l 1
 139 730 l 1
424 788 m 0
 406 796 384 807 360 823 c 0
 333 841 314 850 302 850 c 0
 292 850 284 846 279 836 c 0
 274 828 269 811 265 788 c 1
 152 788 l 1
 162 851 178 897 200 927 c 0
 221 957 250 972 285 972 c 0
 319 972 358 957 402 927 c 0
 429 909 448 900 461 900 c 0
 470 900 478 904 483 914 c 0
 488 922 493 939 497 962 c 1
 610 962 l 1
 600 899 584 852 563 822 c 0
 542 793 513 778 478 778 c 0
 461 778 444 782 424 788 c 0
EndSplineSet
EndChar

StartChar: F
Encoding: 70 70 62
Width: 572
Flags: W
LayerCount: 2
Fore
SplineSet
139 730 m 1
 597 730 l 1
 577 608 l 1
 257 608 l 1
 227 420 l 1
 528 420 l 1
 509 301 l 1
 208 301 l 1
 160 0 l 1
 23 0 l 1
 139 730 l 1
EndSplineSet
EndChar

StartChar: G
Encoding: 71 71 63
Width: 748
Flags: W
LayerCount: 2
Fore
SplineSet
714 435 m 1
 653 48 l 1
 614 29 571 15 522 5 c 0
 473 -5 424 -10 374 -10 c 0
 293 -10 226 5 173 34 c 0
 120 64 82 107 60 164 c 0
 39 220 34 287 46 365 c 0
 59 443 85 510 124 566 c 0
 164 623 215 666 278 696 c 0
 341 725 412 740 493 740 c 0
 590 740 669 719 728 676 c 1
 657 569 l 1
 603 603 542 620 474 620 c 0
 394 620 330 598 280 554 c 0
 232 511 201 448 188 365 c 0
 175 282 186 219 221 176 c 0
 256 132 314 110 393 110 c 0
 440 110 486 117 529 132 c 1
 558 317 l 1
 361 317 l 1
 380 435 l 1
 714 435 l 1
EndSplineSet
EndChar

StartChar: Gbreve
Encoding: 286 286 64
Width: 771
Flags: W
LayerCount: 2
Fore
SplineSet
714 435 m 1
 653 48 l 1
 614 29 571 15 522 5 c 0
 473 -5 424 -10 374 -10 c 0
 293 -10 226 5 173 34 c 0
 120 64 82 107 60 164 c 0
 39 220 34 287 46 365 c 0
 59 443 85 510 124 566 c 0
 164 623 215 666 278 696 c 0
 341 725 412 740 493 740 c 0
 590 740 669 719 728 676 c 1
 657 569 l 1
 603 603 542 620 474 620 c 0
 394 620 330 598 280 554 c 0
 232 511 201 448 188 365 c 0
 175 282 186 219 221 176 c 0
 256 132 314 110 393 110 c 0
 440 110 486 117 529 132 c 1
 558 317 l 1
 361 317 l 1
 380 435 l 1
 714 435 l 1
352 799 m 0
 323 815 301 837 287 866 c 0
 273 894 268 926 272 962 c 1
 403 962 l 1
 401 905 425 876 474 876 c 0
 523 876 555 905 571 962 c 1
 703 962 l 1
 696 926 681 894 658 866 c 0
 635 837 606 815 572 799 c 0
 536 783 499 775 458 775 c 0
 417 775 382 783 352 799 c 0
EndSplineSet
EndChar

StartChar: Gcaron
Encoding: 486 486 65
Width: 771
Flags: W
LayerCount: 2
Fore
SplineSet
714 435 m 1
 653 48 l 1
 614 29 571 15 522 5 c 0
 473 -5 424 -10 374 -10 c 0
 293 -10 226 5 173 34 c 0
 120 64 82 107 60 164 c 0
 39 220 34 287 46 365 c 0
 59 443 85 510 124 566 c 0
 164 623 215 666 278 696 c 0
 341 725 412 740 493 740 c 0
 590 740 669 719 728 676 c 1
 657 569 l 1
 603 603 542 620 474 620 c 0
 394 620 330 598 280 554 c 0
 232 511 201 448 188 365 c 0
 175 282 186 219 221 176 c 0
 256 132 314 110 393 110 c 0
 440 110 486 117 529 132 c 1
 558 317 l 1
 361 317 l 1
 380 435 l 1
 714 435 l 1
261 980 m 1
 414 980 l 1
 468 827 l 1
 470 827 l 1
 573 980 l 1
 725 980 l 1
 572 770 l 1
 347 770 l 1
 261 980 l 1
EndSplineSet
EndChar

StartChar: Gcircumflex
Encoding: 284 284 66
Width: 771
Flags: W
LayerCount: 2
Fore
SplineSet
714 435 m 1
 653 48 l 1
 614 29 571 15 522 5 c 0
 473 -5 424 -10 374 -10 c 0
 293 -10 226 5 173 34 c 0
 120 64 82 107 60 164 c 0
 39 220 34 287 46 365 c 0
 59 443 85 510 124 566 c 0
 164 623 215 666 278 696 c 0
 341 725 412 740 493 740 c 0
 590 740 669 719 728 676 c 1
 657 569 l 1
 603 603 542 620 474 620 c 0
 394 620 330 598 280 554 c 0
 232 511 201 448 188 365 c 0
 175 282 186 219 221 176 c 0
 256 132 314 110 393 110 c 0
 440 110 486 117 529 132 c 1
 558 317 l 1
 361 317 l 1
 380 435 l 1
 714 435 l 1
380 980 m 1
 605 980 l 1
 692 770 l 1
 539 770 l 1
 485 923 l 1
 483 923 l 1
 380 770 l 1
 228 770 l 1
 380 980 l 1
EndSplineSet
EndChar

StartChar: uni0122
Encoding: 290 290 67
Width: 771
Flags: W
LayerCount: 2
Fore
SplineSet
714 435 m 1
 653 48 l 1
 614 29 571 15 522 5 c 0
 473 -5 424 -10 374 -10 c 0
 293 -10 226 5 173 34 c 0
 120 64 82 107 60 164 c 0
 39 220 34 287 46 365 c 0
 59 443 85 510 124 566 c 0
 164 623 215 666 278 696 c 0
 341 725 412 740 493 740 c 0
 590 740 669 719 728 676 c 1
 657 569 l 1
 603 603 542 620 474 620 c 0
 394 620 330 598 280 554 c 0
 232 511 201 448 188 365 c 0
 175 282 186 219 221 176 c 0
 256 132 314 110 393 110 c 0
 440 110 486 117 529 132 c 1
 558 317 l 1
 361 317 l 1
 380 435 l 1
 714 435 l 1
264 -250 m 1
 136 -250 l 1
 251 -40 l 1
 418 -40 l 1
 264 -250 l 1
EndSplineSet
EndChar

StartChar: Gdotaccent
Encoding: 288 288 68
Width: 771
Flags: W
LayerCount: 2
Fore
SplineSet
714 435 m 1
 653 48 l 1
 614 29 571 15 522 5 c 0
 473 -5 424 -10 374 -10 c 0
 293 -10 226 5 173 34 c 0
 120 64 82 107 60 164 c 0
 39 220 34 287 46 365 c 0
 59 443 85 510 124 566 c 0
 164 623 215 666 278 696 c 0
 341 725 412 740 493 740 c 0
 590 740 669 719 728 676 c 1
 657 569 l 1
 603 603 542 620 474 620 c 0
 394 620 330 598 280 554 c 0
 232 511 201 448 188 365 c 0
 175 282 186 219 221 176 c 0
 256 132 314 110 393 110 c 0
 440 110 486 117 529 132 c 1
 558 317 l 1
 361 317 l 1
 380 435 l 1
 714 435 l 1
450 949 m 1
 595 949 l 1
 571 801 l 1
 426 801 l 1
 450 949 l 1
EndSplineSet
EndChar

StartChar: H
Encoding: 72 72 69
Width: 695
Flags: W
LayerCount: 2
Fore
SplineSet
560 730 m 1
 697 730 l 1
 582 0 l 1
 445 0 l 1
 496 322 l 1
 211 322 l 1
 160 0 l 1
 23 0 l 1
 139 730 l 1
 276 730 l 1
 231 445 l 1
 515 445 l 1
 560 730 l 1
EndSplineSet
EndChar

StartChar: Hbar
Encoding: 294 294 70
Width: 785
Flags: W
LayerCount: 2
Fore
SplineSet
819 649 m 1
 803 543 l 1
 712 543 l 1
 626 0 l 1
 489 0 l 1
 540 322 l 1
 256 322 l 1
 205 0 l 1
 68 0 l 1
 154 543 l 1
 65 543 l 1
 81 649 l 1
 171 649 l 1
 183 730 l 1
 321 730 l 1
 308 649 l 1
 592 649 l 1
 605 730 l 1
 742 730 l 1
 729 649 l 1
 819 649 l 1
560 445 m 1
 575 543 l 1
 291 543 l 1
 276 445 l 1
 560 445 l 1
EndSplineSet
EndChar

StartChar: Hcircumflex
Encoding: 292 292 71
Width: 720
Flags: W
LayerCount: 2
Fore
SplineSet
560 730 m 1
 697 730 l 1
 582 0 l 1
 445 0 l 1
 496 322 l 1
 211 322 l 1
 160 0 l 1
 23 0 l 1
 139 730 l 1
 276 730 l 1
 231 445 l 1
 515 445 l 1
 560 730 l 1
337 980 m 1
 562 980 l 1
 649 770 l 1
 496 770 l 1
 442 923 l 1
 440 923 l 1
 337 770 l 1
 185 770 l 1
 337 980 l 1
EndSplineSet
EndChar

StartChar: I
Encoding: 73 73 72
Width: 293
Flags: W
LayerCount: 2
Fore
SplineSet
146 730 m 1
 289 730 l 1
 174 0 l 1
 31 0 l 1
 146 730 l 1
EndSplineSet
EndChar

StartChar: Iacute
Encoding: 205 205 73
Width: 311
Flags: W
LayerCount: 2
Fore
SplineSet
146 730 m 1
 289 730 l 1
 174 0 l 1
 31 0 l 1
 146 730 l 1
280 770 m 1
 153 770 l 1
 267 980 l 1
 434 980 l 1
 280 770 l 1
EndSplineSet
EndChar

StartChar: Ibreve
Encoding: 300 300 74
Width: 311
Flags: W
LayerCount: 2
Fore
SplineSet
146 730 m 1
 289 730 l 1
 174 0 l 1
 31 0 l 1
 146 730 l 1
104 799 m 0
 75 815 53 837 39 866 c 0
 25 894 20 926 24 962 c 1
 155 962 l 1
 153 905 177 876 226 876 c 0
 275 876 307 905 323 962 c 1
 455 962 l 1
 448 926 433 894 410 866 c 0
 387 837 358 815 324 799 c 0
 288 783 251 775 210 775 c 0
 169 775 134 783 104 799 c 0
EndSplineSet
EndChar

StartChar: Icircumflex
Encoding: 206 206 75
Width: 311
Flags: W
LayerCount: 2
Fore
SplineSet
146 730 m 1
 289 730 l 1
 174 0 l 1
 31 0 l 1
 146 730 l 1
133 980 m 1
 358 980 l 1
 445 770 l 1
 292 770 l 1
 238 923 l 1
 236 923 l 1
 133 770 l 1
 -19 770 l 1
 133 980 l 1
EndSplineSet
EndChar

StartChar: uni0208
Encoding: 520 520 76
Width: 311
Flags: W
LayerCount: 2
Fore
SplineSet
146 730 m 1
 289 730 l 1
 174 0 l 1
 31 0 l 1
 146 730 l 1
-35 980 m 1
 132 980 l 1
 180 770 l 1
 52 770 l 1
 -35 980 l 1
200 980 m 1
 367 980 l 1
 415 770 l 1
 288 770 l 1
 200 980 l 1
EndSplineSet
EndChar

StartChar: Idieresis
Encoding: 207 207 77
Width: 311
Flags: W
LayerCount: 2
Fore
SplineSet
146 730 m 1
 289 730 l 1
 174 0 l 1
 31 0 l 1
 146 730 l 1
36 949 m 1
 181 949 l 1
 158 801 l 1
 13 801 l 1
 36 949 l 1
291 949 m 1
 435 949 l 1
 412 801 l 1
 267 801 l 1
 291 949 l 1
EndSplineSet
EndChar

StartChar: Idotaccent
Encoding: 304 304 78
Width: 311
Flags: W
LayerCount: 2
Fore
SplineSet
146 730 m 1
 289 730 l 1
 174 0 l 1
 31 0 l 1
 146 730 l 1
203 949 m 1
 348 949 l 1
 324 801 l 1
 179 801 l 1
 203 949 l 1
EndSplineSet
EndChar

StartChar: uni1ECA
Encoding: 7882 7882 79
Width: 311
Flags: W
LayerCount: 2
Fore
SplineSet
146 730 m 1
 289 730 l 1
 174 0 l 1
 31 0 l 1
 146 730 l 1
42 -71 m 1
 187 -71 l 1
 163 -219 l 1
 18 -219 l 1
 42 -71 l 1
EndSplineSet
EndChar

StartChar: Igrave
Encoding: 204 204 80
Width: 311
Flags: W
LayerCount: 2
Fore
SplineSet
146 730 m 1
 289 730 l 1
 174 0 l 1
 31 0 l 1
 146 730 l 1
84 980 m 1
 250 980 l 1
 298 770 l 1
 171 770 l 1
 84 980 l 1
EndSplineSet
EndChar

StartChar: uni1EC8
Encoding: 7880 7880 81
Width: 311
Flags: W
LayerCount: 2
Fore
SplineSet
146 730 m 1
 289 730 l 1
 174 0 l 1
 31 0 l 1
 146 730 l 1
309 849 m 0
 311 863 308 872 300 877 c 0
 293 882 278 884 255 884 c 0
 210 884 166 877 121 864 c 1
 125 967 l 1
 178 979 235 985 297 985 c 0
 342 985 375 982 398 978 c 0
 420 972 435 964 444 952 c 0
 452 939 454 921 450 898 c 0
 447 881 442 862 436 842 c 0
 428 820 420 802 411 785 c 1
 287 785 l 1
 299 812 306 833 309 849 c 0
EndSplineSet
EndChar

StartChar: uni020A
Encoding: 522 522 82
Width: 311
Flags: W
LayerCount: 2
Fore
SplineSet
146 730 m 1
 289 730 l 1
 174 0 l 1
 31 0 l 1
 146 730 l 1
348 951 m 0
 377 935 399 913 413 884 c 0
 427 856 432 824 428 788 c 1
 295 788 l 1
 297 845 274 874 226 874 c 0
 177 874 144 845 128 788 c 1
 -3 788 l 1
 4 824 19 856 42 884 c 0
 65 913 94 935 128 951 c 0
 164 967 201 975 242 975 c 0
 283 975 318 967 348 951 c 0
EndSplineSet
EndChar

StartChar: Imacron
Encoding: 298 298 83
Width: 311
Flags: W
LayerCount: 2
Fore
SplineSet
146 730 m 1
 289 730 l 1
 174 0 l 1
 31 0 l 1
 146 730 l 1
38 927 m 1
 423 927 l 1
 406 823 l 1
 22 823 l 1
 38 927 l 1
EndSplineSet
EndChar

StartChar: Iogonek
Encoding: 302 302 84
Width: 303
Flags: W
LayerCount: 2
Fore
SplineSet
235 -197 m 1
 199 -211 159 -218 116 -218 c 0
 60 -218 18 -208 -9 -188 c 0
 -36 -167 -47 -139 -41 -102 c 0
 -34 -61 -8 -23 37 14 c 1
 150 730 l 1
 294 730 l 1
 178 0 l 1
 121 -29 90 -56 86 -81 c 0
 84 -92 88 -101 98 -106 c 0
 107 -112 122 -115 142 -115 c 0
 172 -115 203 -109 235 -96 c 1
 235 -197 l 1
EndSplineSet
EndChar

StartChar: Itilde
Encoding: 296 296 85
Width: 311
Flags: W
LayerCount: 2
Fore
SplineSet
146 730 m 1
 289 730 l 1
 174 0 l 1
 31 0 l 1
 146 730 l 1
270 788 m 0
 250 796 229 807 205 823 c 0
 178 841 159 850 147 850 c 0
 137 850 129 846 124 836 c 0
 119 828 114 811 110 788 c 1
 -3 788 l 1
 7 851 23 897 44 927 c 0
 66 957 95 972 130 972 c 0
 164 972 203 957 247 927 c 0
 274 909 293 900 306 900 c 0
 315 900 323 904 328 914 c 0
 333 922 338 939 342 962 c 1
 455 962 l 1
 445 899 429 852 408 822 c 0
 387 793 358 778 323 778 c 0
 306 778 288 782 270 788 c 0
EndSplineSet
EndChar

StartChar: J
Encoding: 74 74 86
Width: 556
Flags: W
LayerCount: 2
Fore
SplineSet
68 4 m 0
 31 12 -3 26 -33 43 c 1
 26 162 l 1
 83 131 137 115 190 115 c 0
 237 115 273 128 300 155 c 0
 327 182 345 223 354 280 c 2
 425 730 l 1
 565 730 l 1
 494 280 l 2
 478 181 445 108 395 60 c 0
 345 14 274 -10 183 -10 c 0
 144 -10 105 -6 68 4 c 0
EndSplineSet
EndChar

StartChar: Jcircumflex
Encoding: 308 308 87
Width: 573
Flags: W
LayerCount: 2
Fore
SplineSet
68 4 m 0
 31 12 -3 26 -33 43 c 1
 26 162 l 1
 83 131 137 115 190 115 c 0
 237 115 273 128 300 155 c 0
 327 182 345 223 354 280 c 2
 425 730 l 1
 565 730 l 1
 494 280 l 2
 478 181 445 108 395 60 c 0
 345 14 274 -10 183 -10 c 0
 144 -10 105 -6 68 4 c 0
264 980 m 1
 489 980 l 1
 576 770 l 1
 423 770 l 1
 369 923 l 1
 367 923 l 1
 264 770 l 1
 112 770 l 1
 264 980 l 1
EndSplineSet
EndChar

StartChar: K
Encoding: 75 75 88
Width: 653
Flags: W
LayerCount: 2
Fore
SplineSet
139 730 m 1
 276 730 l 1
 227 421 l 1
 229 421 l 1
 534 730 l 1
 697 730 l 1
 350 383 l 1
 592 0 l 1
 428 0 l 1
 217 347 l 1
 215 347 l 1
 160 0 l 1
 23 0 l 1
 139 730 l 1
EndSplineSet
EndChar

StartChar: uni0136
Encoding: 310 310 89
Width: 673
Flags: W
LayerCount: 2
Fore
SplineSet
139 730 m 1
 276 730 l 1
 227 421 l 1
 229 421 l 1
 534 730 l 1
 697 730 l 1
 350 383 l 1
 592 0 l 1
 428 0 l 1
 217 347 l 1
 215 347 l 1
 160 0 l 1
 23 0 l 1
 139 730 l 1
181 -250 m 1
 53 -250 l 1
 168 -40 l 1
 335 -40 l 1
 181 -250 l 1
EndSplineSet
EndChar

StartChar: L
Encoding: 76 76 90
Width: 568
Flags: W
LayerCount: 2
Fore
SplineSet
139 730 m 1
 280 730 l 1
 184 123 l 1
 513 123 l 1
 494 0 l 1
 23 0 l 1
 139 730 l 1
EndSplineSet
EndChar

StartChar: uni01C7
Encoding: 455 455 91
Width: 1181
Flags: W
LayerCount: 2
Fore
SplineSet
139 730 m 1
 280 730 l 1
 184 123 l 1
 513 123 l 1
 494 0 l 1
 23 0 l 1
 139 730 l 1
676 4 m 0
 639 12 605 26 575 43 c 1
 634 162 l 1
 691 131 745 115 798 115 c 0
 845 115 881 128 908 155 c 0
 935 182 953 223 962 280 c 2
 1033 730 l 1
 1173 730 l 1
 1102 280 l 2
 1086 181 1053 108 1003 60 c 0
 953 14 882 -10 791 -10 c 0
 752 -10 713 -6 676 4 c 0
EndSplineSet
EndChar

StartChar: Lacute
Encoding: 313 313 92
Width: 588
Flags: W
LayerCount: 2
Fore
SplineSet
139 730 m 1
 280 730 l 1
 184 123 l 1
 513 123 l 1
 494 0 l 1
 23 0 l 1
 139 730 l 1
418 770 m 1
 291 770 l 1
 405 980 l 1
 572 980 l 1
 418 770 l 1
EndSplineSet
EndChar

StartChar: Lcaron
Encoding: 317 317 93
Width: 620
Flags: W
LayerCount: 2
Fore
SplineSet
139 730 m 1
 280 730 l 1
 184 123 l 1
 513 123 l 1
 494 0 l 1
 23 0 l 1
 139 730 l 1
511 770 m 1
 664 770 l 1
 502 470 l 1
 388 470 l 1
 511 770 l 1
EndSplineSet
EndChar

StartChar: uni013B
Encoding: 315 315 94
Width: 588
Flags: W
LayerCount: 2
Fore
SplineSet
139 730 m 1
 280 730 l 1
 184 123 l 1
 513 123 l 1
 494 0 l 1
 23 0 l 1
 139 730 l 1
155 -250 m 1
 27 -250 l 1
 142 -40 l 1
 309 -40 l 1
 155 -250 l 1
EndSplineSet
EndChar

StartChar: Ldot
Encoding: 319 319 95
Width: 623
Flags: W
LayerCount: 2
Fore
SplineSet
139 730 m 1
 280 730 l 1
 184 123 l 1
 513 123 l 1
 494 0 l 1
 23 0 l 1
 139 730 l 1
408 451 m 1
 558 451 l 1
 533 298 l 1
 384 298 l 1
 408 451 l 1
EndSplineSet
EndChar

StartChar: uni01C8
Encoding: 456 456 96
Width: 930
Flags: W
LayerCount: 2
Fore
SplineSet
139 730 m 1
 280 730 l 1
 184 123 l 1
 513 123 l 1
 494 0 l 1
 23 0 l 1
 139 730 l 1
785 743 m 1
 916 743 l 1
 896 617 l 1
 765 617 l 1
 785 743 l 1
587 -112 m 0
 613 -104 632 -91 644 -71 c 0
 655 -51 664 -18 671 27 c 2
 750 520 l 1
 881 520 l 1
 803 27 l 2
 792 -41 775 -93 751 -130 c 0
 727 -166 692 -192 646 -207 c 0
 600 -222 536 -230 455 -230 c 1
 465 -122 l 1
 520 -122 561 -118 587 -112 c 0
EndSplineSet
EndChar

StartChar: Lslash
Encoding: 321 321 97
Width: 663
Flags: W
LayerCount: 2
Fore
SplineSet
279 123 m 1
 608 123 l 1
 589 0 l 1
 118 0 l 1
 162 276 l 1
 41 228 l 1
 14 328 l 1
 180 393 l 1
 234 730 l 1
 375 730 l 1
 331 453 l 1
 456 502 l 1
 483 402 l 1
 312 335 l 1
 279 123 l 1
EndSplineSet
EndChar

StartChar: M
Encoding: 77 77 98
Width: 848
Flags: W
LayerCount: 2
Fore
SplineSet
139 730 m 1
 311 730 l 1
 426 302 l 1
 428 302 l 1
 679 730 l 1
 851 730 l 1
 736 0 l 1
 599 0 l 1
 679 510 l 1
 677 510 l 1
 467 155 l 1
 341 155 l 1
 243 510 l 1
 241 510 l 1
 160 0 l 1
 23 0 l 1
 139 730 l 1
EndSplineSet
EndChar

StartChar: N
Encoding: 78 78 99
Width: 704
Flags: W
LayerCount: 2
Fore
SplineSet
139 730 m 1
 283 730 l 1
 489 230 l 1
 491 230 l 1
 570 730 l 1
 707 730 l 1
 592 0 l 1
 448 0 l 1
 242 500 l 1
 240 500 l 1
 160 0 l 1
 23 0 l 1
 139 730 l 1
EndSplineSet
EndChar

StartChar: uni01CA
Encoding: 458 458 100
Width: 1303
Flags: W
LayerCount: 2
Fore
SplineSet
139 730 m 1
 283 730 l 1
 489 230 l 1
 491 230 l 1
 570 730 l 1
 707 730 l 1
 592 0 l 1
 448 0 l 1
 242 500 l 1
 240 500 l 1
 160 0 l 1
 23 0 l 1
 139 730 l 1
798 4 m 0
 761 12 727 26 697 43 c 1
 756 162 l 1
 813 131 867 115 920 115 c 0
 967 115 1003 128 1030 155 c 0
 1057 182 1075 223 1084 280 c 2
 1155 730 l 1
 1295 730 l 1
 1224 280 l 2
 1208 181 1175 108 1125 60 c 0
 1075 14 1004 -10 913 -10 c 0
 874 -10 835 -6 798 4 c 0
EndSplineSet
EndChar

StartChar: Nacute
Encoding: 323 323 101
Width: 730
Flags: W
LayerCount: 2
Fore
SplineSet
139 730 m 1
 283 730 l 1
 489 230 l 1
 491 230 l 1
 570 730 l 1
 707 730 l 1
 592 0 l 1
 448 0 l 1
 242 500 l 1
 240 500 l 1
 160 0 l 1
 23 0 l 1
 139 730 l 1
490 770 m 1
 363 770 l 1
 477 980 l 1
 644 980 l 1
 490 770 l 1
EndSplineSet
EndChar

StartChar: Ncaron
Encoding: 327 327 102
Width: 730
Flags: W
LayerCount: 2
Fore
SplineSet
139 730 m 1
 283 730 l 1
 489 230 l 1
 491 230 l 1
 570 730 l 1
 707 730 l 1
 592 0 l 1
 448 0 l 1
 242 500 l 1
 240 500 l 1
 160 0 l 1
 23 0 l 1
 139 730 l 1
223 980 m 1
 376 980 l 1
 430 827 l 1
 432 827 l 1
 535 980 l 1
 687 980 l 1
 534 770 l 1
 309 770 l 1
 223 980 l 1
EndSplineSet
EndChar

StartChar: uni0145
Encoding: 325 325 103
Width: 730
Flags: W
LayerCount: 2
Fore
SplineSet
139 730 m 1
 283 730 l 1
 489 230 l 1
 491 230 l 1
 570 730 l 1
 707 730 l 1
 592 0 l 1
 448 0 l 1
 242 500 l 1
 240 500 l 1
 160 0 l 1
 23 0 l 1
 139 730 l 1
226 -250 m 1
 98 -250 l 1
 213 -40 l 1
 380 -40 l 1
 226 -250 l 1
EndSplineSet
EndChar

StartChar: Eng
Encoding: 330 330 104
Width: 704
Flags: W
LayerCount: 2
Fore
SplineSet
707 730 m 1
 589 -14 l 2
 577 -89 554 -143 521 -176 c 0
 488 -208 438 -224 372 -224 c 0
 334 -224 294 -219 252 -208 c 1
 287 -96 l 1
 312 -103 337 -107 362 -107 c 0
 390 -107 411 -100 424 -86 c 0
 438 -72 448 -48 453 -14 c 1
 453 -13 l 1
 240 487 l 1
 238 487 l 1
 160 0 l 1
 23 0 l 1
 139 730 l 1
 283 730 l 1
 491 243 l 1
 493 243 l 1
 570 730 l 1
 707 730 l 1
EndSplineSet
EndChar

StartChar: uni01CB
Encoding: 459 459 105
Width: 1072
Flags: W
LayerCount: 2
Fore
SplineSet
139 730 m 1
 283 730 l 1
 489 230 l 1
 491 230 l 1
 570 730 l 1
 707 730 l 1
 592 0 l 1
 448 0 l 1
 242 500 l 1
 240 500 l 1
 160 0 l 1
 23 0 l 1
 139 730 l 1
927 743 m 1
 1058 743 l 1
 1038 617 l 1
 907 617 l 1
 927 743 l 1
729 -112 m 0
 755 -104 774 -91 786 -71 c 0
 797 -51 806 -18 813 27 c 2
 892 520 l 1
 1023 520 l 1
 945 27 l 2
 934 -41 917 -93 893 -130 c 0
 869 -166 834 -192 788 -207 c 0
 742 -222 678 -230 597 -230 c 1
 607 -122 l 1
 662 -122 703 -118 729 -112 c 0
EndSplineSet
EndChar

StartChar: Ntilde
Encoding: 209 209 106
Width: 730
Flags: W
LayerCount: 2
Fore
SplineSet
139 730 m 1
 283 730 l 1
 489 230 l 1
 491 230 l 1
 570 730 l 1
 707 730 l 1
 592 0 l 1
 448 0 l 1
 242 500 l 1
 240 500 l 1
 160 0 l 1
 23 0 l 1
 139 730 l 1
480 788 m 0
 460 796 439 807 415 823 c 0
 388 841 369 850 357 850 c 0
 347 850 339 846 334 836 c 0
 329 828 324 811 320 788 c 1
 207 788 l 1
 217 851 233 897 254 927 c 0
 276 957 305 972 340 972 c 0
 374 972 413 957 457 927 c 0
 484 909 503 900 516 900 c 0
 525 900 533 904 538 914 c 0
 543 922 548 939 552 962 c 1
 665 962 l 1
 655 899 639 852 618 822 c 0
 597 793 568 778 533 778 c 0
 516 778 498 782 480 788 c 0
EndSplineSet
EndChar

StartChar: O
Encoding: 79 79 107
Width: 787
Flags: W
LayerCount: 2
Fore
SplineSet
162 36 m 0
 114 66 79 109 58 166 c 0
 38 222 34 288 46 365 c 0
 58 442 83 508 122 564 c 0
 160 621 208 664 267 694 c 0
 326 725 392 740 466 740 c 0
 540 740 602 725 651 694 c 0
 700 664 735 621 754 564 c 0
 774 508 778 442 766 365 c 0
 754 288 729 222 692 166 c 0
 654 109 605 66 546 36 c 0
 487 5 420 -10 347 -10 c 0
 273 -10 212 5 162 36 c 0
539 179 m 0
 584 223 613 285 626 365 c 0
 639 445 629 507 598 551 c 0
 567 595 516 617 446 617 c 0
 377 617 320 595 274 551 c 0
 230 507 201 445 188 365 c 0
 175 285 184 223 216 179 c 0
 246 135 297 113 366 113 c 0
 436 113 494 135 539 179 c 0
EndSplineSet
EndChar

StartChar: Oacute
Encoding: 211 211 108
Width: 809
Flags: W
LayerCount: 2
Fore
SplineSet
162 36 m 0
 114 66 79 109 58 166 c 0
 38 222 34 288 46 365 c 0
 58 442 83 508 122 564 c 0
 160 621 208 664 267 694 c 0
 326 725 392 740 466 740 c 0
 540 740 602 725 651 694 c 0
 700 664 735 621 754 564 c 0
 774 508 778 442 766 365 c 0
 754 288 729 222 692 166 c 0
 654 109 605 66 546 36 c 0
 487 5 420 -10 347 -10 c 0
 273 -10 212 5 162 36 c 0
539 179 m 0
 584 223 613 285 626 365 c 0
 639 445 629 507 598 551 c 0
 567 595 516 617 446 617 c 0
 377 617 320 595 274 551 c 0
 230 507 201 445 188 365 c 0
 175 285 184 223 216 179 c 0
 246 135 297 113 366 113 c 0
 436 113 494 135 539 179 c 0
529 770 m 1
 402 770 l 1
 516 980 l 1
 683 980 l 1
 529 770 l 1
EndSplineSet
EndChar

StartChar: Obreve
Encoding: 334 334 109
Width: 809
Flags: W
LayerCount: 2
Fore
SplineSet
162 36 m 0
 114 66 79 109 58 166 c 0
 38 222 34 288 46 365 c 0
 58 442 83 508 122 564 c 0
 160 621 208 664 267 694 c 0
 326 725 392 740 466 740 c 0
 540 740 602 725 651 694 c 0
 700 664 735 621 754 564 c 0
 774 508 778 442 766 365 c 0
 754 288 729 222 692 166 c 0
 654 109 605 66 546 36 c 0
 487 5 420 -10 347 -10 c 0
 273 -10 212 5 162 36 c 0
539 179 m 0
 584 223 613 285 626 365 c 0
 639 445 629 507 598 551 c 0
 567 595 516 617 446 617 c 0
 377 617 320 595 274 551 c 0
 230 507 201 445 188 365 c 0
 175 285 184 223 216 179 c 0
 246 135 297 113 366 113 c 0
 436 113 494 135 539 179 c 0
354 799 m 0
 324 815 302 837 288 866 c 0
 274 894 269 926 273 962 c 1
 404 962 l 1
 402 905 426 876 475 876 c 0
 524 876 556 905 572 962 c 1
 704 962 l 1
 697 926 682 894 659 866 c 0
 636 837 608 815 572 799 c 0
 538 783 500 775 459 775 c 0
 418 775 383 783 354 799 c 0
EndSplineSet
EndChar

StartChar: Ocircumflex
Encoding: 212 212 110
Width: 809
Flags: W
LayerCount: 2
Fore
SplineSet
162 36 m 0
 114 66 79 109 58 166 c 0
 38 222 34 288 46 365 c 0
 58 442 83 508 122 564 c 0
 160 621 208 664 267 694 c 0
 326 725 392 740 466 740 c 0
 540 740 602 725 651 694 c 0
 700 664 735 621 754 564 c 0
 774 508 778 442 766 365 c 0
 754 288 729 222 692 166 c 0
 654 109 605 66 546 36 c 0
 487 5 420 -10 347 -10 c 0
 273 -10 212 5 162 36 c 0
539 179 m 0
 584 223 613 285 626 365 c 0
 639 445 629 507 598 551 c 0
 567 595 516 617 446 617 c 0
 377 617 320 595 274 551 c 0
 230 507 201 445 188 365 c 0
 175 285 184 223 216 179 c 0
 246 135 297 113 366 113 c 0
 436 113 494 135 539 179 c 0
381 980 m 1
 606 980 l 1
 693 770 l 1
 540 770 l 1
 486 923 l 1
 484 923 l 1
 381 770 l 1
 229 770 l 1
 381 980 l 1
EndSplineSet
EndChar

StartChar: uni1ED0
Encoding: 7888 7888 111
Width: 787
Flags: W
LayerCount: 2
Fore
SplineSet
494 923 m 1
 391 770 l 1
 238 770 l 1
 391 980 l 1
 606 980 l 1
 705 1160 l 1
 871 1160 l 1
 717 950 l 1
 628 950 l 1
 703 770 l 1
 550 770 l 1
 495 923 l 1
 494 923 l 1
650 694 m 0
 700 664 735 621 754 564 c 0
 774 508 778 442 766 365 c 0
 754 288 729 222 692 166 c 0
 654 109 605 66 546 36 c 0
 487 5 420 -10 347 -10 c 0
 273 -10 212 5 162 36 c 0
 114 66 79 109 58 166 c 0
 38 222 34 288 46 365 c 0
 58 442 83 508 122 564 c 0
 160 621 208 664 267 694 c 0
 326 725 392 740 466 740 c 0
 539 740 601 725 650 694 c 0
539 179 m 0
 584 223 613 285 626 365 c 0
 639 445 629 507 598 551 c 0
 567 595 516 617 446 617 c 0
 377 617 320 595 274 551 c 0
 230 507 201 445 188 365 c 0
 175 285 184 223 216 179 c 0
 246 135 297 113 366 113 c 0
 436 113 494 135 539 179 c 0
EndSplineSet
EndChar

StartChar: uni1ED8
Encoding: 7896 7896 112
Width: 809
Flags: W
LayerCount: 2
Fore
SplineSet
162 36 m 0
 114 66 79 109 58 166 c 0
 38 222 34 288 46 365 c 0
 58 442 83 508 122 564 c 0
 160 621 208 664 267 694 c 0
 326 725 392 740 466 740 c 0
 540 740 602 725 651 694 c 0
 700 664 735 621 754 564 c 0
 774 508 778 442 766 365 c 0
 754 288 729 222 692 166 c 0
 654 109 605 66 546 36 c 0
 487 5 420 -10 347 -10 c 0
 273 -10 212 5 162 36 c 0
539 179 m 0
 584 223 613 285 626 365 c 0
 639 445 629 507 598 551 c 0
 567 595 516 617 446 617 c 0
 377 617 320 595 274 551 c 0
 230 507 201 445 188 365 c 0
 175 285 184 223 216 179 c 0
 246 135 297 113 366 113 c 0
 436 113 494 135 539 179 c 0
290 -71 m 1
 435 -71 l 1
 411 -219 l 1
 266 -219 l 1
 290 -71 l 1
381 980 m 1
 606 980 l 1
 693 770 l 1
 540 770 l 1
 486 923 l 1
 484 923 l 1
 381 770 l 1
 229 770 l 1
 381 980 l 1
EndSplineSet
EndChar

StartChar: uni1ED2
Encoding: 7890 7890 113
Width: 787
Flags: W
LayerCount: 2
Fore
SplineSet
369 950 m 1
 281 950 l 1
 194 1160 l 1
 361 1160 l 1
 402 980 l 1
 615 980 l 1
 703 770 l 1
 550 770 l 1
 495 923 l 1
 494 923 l 1
 391 770 l 1
 238 770 l 1
 369 950 l 1
650 694 m 0
 700 664 735 621 754 564 c 0
 774 508 778 442 766 365 c 0
 754 288 729 222 692 166 c 0
 654 109 605 66 546 36 c 0
 487 5 420 -10 347 -10 c 0
 273 -10 212 5 162 36 c 0
 114 66 79 109 58 166 c 0
 38 222 34 288 46 365 c 0
 58 442 83 508 122 564 c 0
 160 621 208 664 267 694 c 0
 326 725 392 740 466 740 c 0
 539 740 601 725 650 694 c 0
539 179 m 0
 584 223 613 285 626 365 c 0
 639 445 629 507 598 551 c 0
 567 595 516 617 446 617 c 0
 377 617 320 595 274 551 c 0
 230 507 201 445 188 365 c 0
 175 285 184 223 216 179 c 0
 246 135 297 113 366 113 c 0
 436 113 494 135 539 179 c 0
EndSplineSet
EndChar

StartChar: uni1ED4
Encoding: 7892 7892 114
Width: 787
Flags: W
LayerCount: 2
Fore
SplineSet
391 770 m 1
 238 770 l 1
 391 980 l 1
 604 980 l 1
 609 996 612 1007 612 1012 c 0
 614 1026 611 1035 604 1040 c 0
 597 1045 581 1047 558 1047 c 0
 513 1047 469 1040 424 1027 c 1
 428 1130 l 1
 481 1142 538 1148 600 1148 c 0
 645 1148 678 1146 701 1140 c 0
 724 1136 739 1127 747 1114 c 0
 755 1102 757 1084 754 1061 c 0
 751 1044 746 1026 739 1004 c 0
 732 984 723 965 714 948 c 1
 629 948 l 1
 703 770 l 1
 550 770 l 1
 495 923 l 1
 494 923 l 1
 391 770 l 1
650 694 m 0
 700 664 735 621 754 564 c 0
 774 508 778 442 766 365 c 0
 754 288 729 222 692 166 c 0
 654 109 605 66 546 36 c 0
 487 5 420 -10 347 -10 c 0
 273 -10 212 5 162 36 c 0
 114 66 79 109 58 166 c 0
 38 222 34 288 46 365 c 0
 58 442 83 508 122 564 c 0
 160 621 208 664 267 694 c 0
 326 725 392 740 466 740 c 0
 539 740 601 725 650 694 c 0
539 179 m 0
 584 223 613 285 626 365 c 0
 639 445 629 507 598 551 c 0
 567 595 516 617 446 617 c 0
 377 617 320 595 274 551 c 0
 230 507 201 445 188 365 c 0
 175 285 184 223 216 179 c 0
 246 135 297 113 366 113 c 0
 436 113 494 135 539 179 c 0
EndSplineSet
EndChar

StartChar: uni1ED6
Encoding: 7894 7894 115
Width: 809
Flags: W
LayerCount: 2
Fore
SplineSet
162 36 m 0
 114 66 79 109 58 166 c 0
 38 222 34 288 46 365 c 0
 58 442 83 508 122 564 c 0
 160 621 208 664 267 694 c 0
 326 725 392 740 466 740 c 0
 540 740 602 725 651 694 c 0
 700 664 735 621 754 564 c 0
 774 508 778 442 766 365 c 0
 754 288 729 222 692 166 c 0
 654 109 605 66 546 36 c 0
 487 5 420 -10 347 -10 c 0
 273 -10 212 5 162 36 c 0
539 179 m 0
 584 223 613 285 626 365 c 0
 639 445 629 507 598 551 c 0
 567 595 516 617 446 617 c 0
 377 617 320 595 274 551 c 0
 230 507 201 445 188 365 c 0
 175 285 184 223 216 179 c 0
 246 135 297 113 366 113 c 0
 436 113 494 135 539 179 c 0
381 980 m 1
 606 980 l 1
 693 770 l 1
 540 770 l 1
 486 923 l 1
 484 923 l 1
 381 770 l 1
 229 770 l 1
 381 980 l 1
554 1012 m 0
 536 1018 514 1030 490 1046 c 0
 463 1064 444 1073 432 1073 c 0
 422 1073 414 1068 409 1060 c 0
 404 1050 399 1034 395 1011 c 1
 282 1011 l 1
 292 1074 308 1120 330 1150 c 0
 351 1180 380 1195 415 1195 c 0
 449 1195 488 1180 532 1150 c 0
 559 1132 578 1123 591 1123 c 0
 600 1123 608 1128 613 1136 c 0
 618 1146 623 1162 627 1185 c 1
 740 1185 l 1
 730 1122 714 1075 693 1046 c 0
 672 1016 643 1001 608 1001 c 0
 591 1001 574 1004 554 1012 c 0
EndSplineSet
EndChar

StartChar: uni020C
Encoding: 524 524 116
Width: 809
Flags: W
LayerCount: 2
Fore
SplineSet
162 36 m 0
 114 66 79 109 58 166 c 0
 38 222 34 288 46 365 c 0
 58 442 83 508 122 564 c 0
 160 621 208 664 267 694 c 0
 326 725 392 740 466 740 c 0
 540 740 602 725 651 694 c 0
 700 664 735 621 754 564 c 0
 774 508 778 442 766 365 c 0
 754 288 729 222 692 166 c 0
 654 109 605 66 546 36 c 0
 487 5 420 -10 347 -10 c 0
 273 -10 212 5 162 36 c 0
539 179 m 0
 584 223 613 285 626 365 c 0
 639 445 629 507 598 551 c 0
 567 595 516 617 446 617 c 0
 377 617 320 595 274 551 c 0
 230 507 201 445 188 365 c 0
 175 285 184 223 216 179 c 0
 246 135 297 113 366 113 c 0
 436 113 494 135 539 179 c 0
214 980 m 1
 381 980 l 1
 429 770 l 1
 301 770 l 1
 214 980 l 1
449 980 m 1
 616 980 l 1
 664 770 l 1
 537 770 l 1
 449 980 l 1
EndSplineSet
EndChar

StartChar: Odieresis
Encoding: 214 214 117
Width: 809
Flags: W
LayerCount: 2
Fore
SplineSet
162 36 m 0
 114 66 79 109 58 166 c 0
 38 222 34 288 46 365 c 0
 58 442 83 508 122 564 c 0
 160 621 208 664 267 694 c 0
 326 725 392 740 466 740 c 0
 540 740 602 725 651 694 c 0
 700 664 735 621 754 564 c 0
 774 508 778 442 766 365 c 0
 754 288 729 222 692 166 c 0
 654 109 605 66 546 36 c 0
 487 5 420 -10 347 -10 c 0
 273 -10 212 5 162 36 c 0
539 179 m 0
 584 223 613 285 626 365 c 0
 639 445 629 507 598 551 c 0
 567 595 516 617 446 617 c 0
 377 617 320 595 274 551 c 0
 230 507 201 445 188 365 c 0
 175 285 184 223 216 179 c 0
 246 135 297 113 366 113 c 0
 436 113 494 135 539 179 c 0
285 949 m 1
 430 949 l 1
 407 801 l 1
 262 801 l 1
 285 949 l 1
540 949 m 1
 684 949 l 1
 661 801 l 1
 516 801 l 1
 540 949 l 1
EndSplineSet
EndChar

StartChar: uni022A
Encoding: 554 554 118
Width: 809
Flags: W
LayerCount: 2
Fore
SplineSet
162 36 m 0
 114 66 79 109 58 166 c 0
 38 222 34 288 46 365 c 0
 58 442 83 508 122 564 c 0
 160 621 208 664 267 694 c 0
 326 725 392 740 466 740 c 0
 540 740 602 725 651 694 c 0
 700 664 735 621 754 564 c 0
 774 508 778 442 766 365 c 0
 754 288 729 222 692 166 c 0
 654 109 605 66 546 36 c 0
 487 5 420 -10 347 -10 c 0
 273 -10 212 5 162 36 c 0
539 179 m 0
 584 223 613 285 626 365 c 0
 639 445 629 507 598 551 c 0
 567 595 516 617 446 617 c 0
 377 617 320 595 274 551 c 0
 230 507 201 445 188 365 c 0
 175 285 184 223 216 179 c 0
 246 135 297 113 366 113 c 0
 436 113 494 135 539 179 c 0
285 949 m 1
 430 949 l 1
 407 801 l 1
 262 801 l 1
 285 949 l 1
540 949 m 1
 684 949 l 1
 661 801 l 1
 516 801 l 1
 540 949 l 1
322 1146 m 1
 707 1146 l 1
 690 1042 l 1
 306 1042 l 1
 322 1146 l 1
EndSplineSet
EndChar

StartChar: uni0230
Encoding: 560 560 119
Width: 809
Flags: W
LayerCount: 2
Fore
SplineSet
162 36 m 0
 114 66 79 109 58 166 c 0
 38 222 34 288 46 365 c 0
 58 442 83 508 122 564 c 0
 160 621 208 664 267 694 c 0
 326 725 392 740 466 740 c 0
 540 740 602 725 651 694 c 0
 700 664 735 621 754 564 c 0
 774 508 778 442 766 365 c 0
 754 288 729 222 692 166 c 0
 654 109 605 66 546 36 c 0
 487 5 420 -10 347 -10 c 0
 273 -10 212 5 162 36 c 0
539 179 m 0
 584 223 613 285 626 365 c 0
 639 445 629 507 598 551 c 0
 567 595 516 617 446 617 c 0
 377 617 320 595 274 551 c 0
 230 507 201 445 188 365 c 0
 175 285 184 223 216 179 c 0
 246 135 297 113 366 113 c 0
 436 113 494 135 539 179 c 0
451 949 m 1
 596 949 l 1
 572 801 l 1
 427 801 l 1
 451 949 l 1
322 1146 m 1
 707 1146 l 1
 690 1042 l 1
 306 1042 l 1
 322 1146 l 1
EndSplineSet
EndChar

StartChar: uni1ECC
Encoding: 7884 7884 120
Width: 809
Flags: W
LayerCount: 2
Fore
SplineSet
162 36 m 0
 114 66 79 109 58 166 c 0
 38 222 34 288 46 365 c 0
 58 442 83 508 122 564 c 0
 160 621 208 664 267 694 c 0
 326 725 392 740 466 740 c 0
 540 740 602 725 651 694 c 0
 700 664 735 621 754 564 c 0
 774 508 778 442 766 365 c 0
 754 288 729 222 692 166 c 0
 654 109 605 66 546 36 c 0
 487 5 420 -10 347 -10 c 0
 273 -10 212 5 162 36 c 0
539 179 m 0
 584 223 613 285 626 365 c 0
 639 445 629 507 598 551 c 0
 567 595 516 617 446 617 c 0
 377 617 320 595 274 551 c 0
 230 507 201 445 188 365 c 0
 175 285 184 223 216 179 c 0
 246 135 297 113 366 113 c 0
 436 113 494 135 539 179 c 0
290 -71 m 1
 435 -71 l 1
 411 -219 l 1
 266 -219 l 1
 290 -71 l 1
EndSplineSet
EndChar

StartChar: Ograve
Encoding: 210 210 121
Width: 809
Flags: W
LayerCount: 2
Fore
SplineSet
162 36 m 0
 114 66 79 109 58 166 c 0
 38 222 34 288 46 365 c 0
 58 442 83 508 122 564 c 0
 160 621 208 664 267 694 c 0
 326 725 392 740 466 740 c 0
 540 740 602 725 651 694 c 0
 700 664 735 621 754 564 c 0
 774 508 778 442 766 365 c 0
 754 288 729 222 692 166 c 0
 654 109 605 66 546 36 c 0
 487 5 420 -10 347 -10 c 0
 273 -10 212 5 162 36 c 0
539 179 m 0
 584 223 613 285 626 365 c 0
 639 445 629 507 598 551 c 0
 567 595 516 617 446 617 c 0
 377 617 320 595 274 551 c 0
 230 507 201 445 188 365 c 0
 175 285 184 223 216 179 c 0
 246 135 297 113 366 113 c 0
 436 113 494 135 539 179 c 0
333 980 m 1
 499 980 l 1
 547 770 l 1
 420 770 l 1
 333 980 l 1
EndSplineSet
EndChar

StartChar: uni1ECE
Encoding: 7886 7886 122
Width: 809
Flags: W
LayerCount: 2
Fore
SplineSet
162 36 m 0
 114 66 79 109 58 166 c 0
 38 222 34 288 46 365 c 0
 58 442 83 508 122 564 c 0
 160 621 208 664 267 694 c 0
 326 725 392 740 466 740 c 0
 540 740 602 725 651 694 c 0
 700 664 735 621 754 564 c 0
 774 508 778 442 766 365 c 0
 754 288 729 222 692 166 c 0
 654 109 605 66 546 36 c 0
 487 5 420 -10 347 -10 c 0
 273 -10 212 5 162 36 c 0
539 179 m 0
 584 223 613 285 626 365 c 0
 639 445 629 507 598 551 c 0
 567 595 516 617 446 617 c 0
 377 617 320 595 274 551 c 0
 230 507 201 445 188 365 c 0
 175 285 184 223 216 179 c 0
 246 135 297 113 366 113 c 0
 436 113 494 135 539 179 c 0
558 849 m 0
 560 863 557 872 550 877 c 0
 542 882 527 884 504 884 c 0
 459 884 415 877 370 864 c 1
 374 967 l 1
 427 979 484 985 546 985 c 0
 591 985 624 982 646 978 c 0
 669 972 684 964 692 952 c 0
 701 939 703 921 699 898 c 0
 696 881 692 862 684 842 c 0
 678 820 669 802 660 785 c 1
 536 785 l 1
 548 812 555 833 558 849 c 0
EndSplineSet
EndChar

StartChar: Ohorn
Encoding: 416 416 123
Width: 812
Flags: W
LayerCount: 2
Fore
SplineSet
836 610 m 0
 815 583 788 566 756 559 c 1
 774 504 777 440 766 365 c 0
 754 288 729 222 692 166 c 0
 654 109 605 66 546 36 c 0
 487 5 420 -10 347 -10 c 0
 273 -10 212 5 162 36 c 0
 114 66 79 109 58 166 c 0
 38 222 34 288 46 365 c 0
 58 442 83 508 122 564 c 0
 160 621 208 664 267 694 c 0
 326 725 392 740 466 740 c 0
 563 740 637 715 690 665 c 1
 705 665 718 670 728 682 c 0
 739 692 746 708 749 727 c 0
 752 742 752 761 752 784 c 0
 750 806 748 824 745 838 c 1
 877 838 l 1
 884 798 885 756 878 712 c 0
 871 670 857 636 836 610 c 0
539 179 m 0
 584 223 613 285 626 365 c 0
 639 445 629 507 598 551 c 0
 567 595 516 617 446 617 c 0
 377 617 320 595 274 551 c 0
 230 507 201 445 188 365 c 0
 175 285 184 223 216 179 c 0
 246 135 297 113 366 113 c 0
 436 113 494 135 539 179 c 0
EndSplineSet
EndChar

StartChar: uni1EDA
Encoding: 7898 7898 124
Width: 832
Flags: W
LayerCount: 2
Fore
SplineSet
836 610 m 0
 815 583 788 566 756 559 c 1
 774 504 777 440 766 365 c 0
 754 288 729 222 692 166 c 0
 654 109 605 66 546 36 c 0
 487 5 420 -10 347 -10 c 0
 273 -10 212 5 162 36 c 0
 114 66 79 109 58 166 c 0
 38 222 34 288 46 365 c 0
 58 442 83 508 122 564 c 0
 160 621 208 664 267 694 c 0
 326 725 392 740 466 740 c 0
 563 740 637 715 690 665 c 1
 705 665 718 670 728 682 c 0
 739 692 746 708 749 727 c 0
 752 742 752 761 752 784 c 0
 750 806 748 824 745 838 c 1
 877 838 l 1
 884 798 885 756 878 712 c 0
 871 670 857 636 836 610 c 0
539 179 m 0
 584 223 613 285 626 365 c 0
 639 445 629 507 598 551 c 0
 567 595 516 617 446 617 c 0
 377 617 320 595 274 551 c 0
 230 507 201 445 188 365 c 0
 175 285 184 223 216 179 c 0
 246 135 297 113 366 113 c 0
 436 113 494 135 539 179 c 0
529 770 m 1
 402 770 l 1
 516 980 l 1
 683 980 l 1
 529 770 l 1
EndSplineSet
EndChar

StartChar: uni1EE2
Encoding: 7906 7906 125
Width: 832
Flags: W
LayerCount: 2
Fore
SplineSet
836 610 m 0
 815 583 788 566 756 559 c 1
 774 504 777 440 766 365 c 0
 754 288 729 222 692 166 c 0
 654 109 605 66 546 36 c 0
 487 5 420 -10 347 -10 c 0
 273 -10 212 5 162 36 c 0
 114 66 79 109 58 166 c 0
 38 222 34 288 46 365 c 0
 58 442 83 508 122 564 c 0
 160 621 208 664 267 694 c 0
 326 725 392 740 466 740 c 0
 563 740 637 715 690 665 c 1
 705 665 718 670 728 682 c 0
 739 692 746 708 749 727 c 0
 752 742 752 761 752 784 c 0
 750 806 748 824 745 838 c 1
 877 838 l 1
 884 798 885 756 878 712 c 0
 871 670 857 636 836 610 c 0
539 179 m 0
 584 223 613 285 626 365 c 0
 639 445 629 507 598 551 c 0
 567 595 516 617 446 617 c 0
 377 617 320 595 274 551 c 0
 230 507 201 445 188 365 c 0
 175 285 184 223 216 179 c 0
 246 135 297 113 366 113 c 0
 436 113 494 135 539 179 c 0
290 -71 m 1
 435 -71 l 1
 411 -219 l 1
 266 -219 l 1
 290 -71 l 1
EndSplineSet
EndChar

StartChar: uni1EDC
Encoding: 7900 7900 126
Width: 832
Flags: W
LayerCount: 2
Fore
SplineSet
836 610 m 0
 815 583 788 566 756 559 c 1
 774 504 777 440 766 365 c 0
 754 288 729 222 692 166 c 0
 654 109 605 66 546 36 c 0
 487 5 420 -10 347 -10 c 0
 273 -10 212 5 162 36 c 0
 114 66 79 109 58 166 c 0
 38 222 34 288 46 365 c 0
 58 442 83 508 122 564 c 0
 160 621 208 664 267 694 c 0
 326 725 392 740 466 740 c 0
 563 740 637 715 690 665 c 1
 705 665 718 670 728 682 c 0
 739 692 746 708 749 727 c 0
 752 742 752 761 752 784 c 0
 750 806 748 824 745 838 c 1
 877 838 l 1
 884 798 885 756 878 712 c 0
 871 670 857 636 836 610 c 0
539 179 m 0
 584 223 613 285 626 365 c 0
 639 445 629 507 598 551 c 0
 567 595 516 617 446 617 c 0
 377 617 320 595 274 551 c 0
 230 507 201 445 188 365 c 0
 175 285 184 223 216 179 c 0
 246 135 297 113 366 113 c 0
 436 113 494 135 539 179 c 0
333 980 m 1
 499 980 l 1
 547 770 l 1
 420 770 l 1
 333 980 l 1
EndSplineSet
EndChar

StartChar: uni1EDE
Encoding: 7902 7902 127
Width: 832
Flags: W
LayerCount: 2
Fore
SplineSet
836 610 m 0
 815 583 788 566 756 559 c 1
 774 504 777 440 766 365 c 0
 754 288 729 222 692 166 c 0
 654 109 605 66 546 36 c 0
 487 5 420 -10 347 -10 c 0
 273 -10 212 5 162 36 c 0
 114 66 79 109 58 166 c 0
 38 222 34 288 46 365 c 0
 58 442 83 508 122 564 c 0
 160 621 208 664 267 694 c 0
 326 725 392 740 466 740 c 0
 563 740 637 715 690 665 c 1
 705 665 718 670 728 682 c 0
 739 692 746 708 749 727 c 0
 752 742 752 761 752 784 c 0
 750 806 748 824 745 838 c 1
 877 838 l 1
 884 798 885 756 878 712 c 0
 871 670 857 636 836 610 c 0
539 179 m 0
 584 223 613 285 626 365 c 0
 639 445 629 507 598 551 c 0
 567 595 516 617 446 617 c 0
 377 617 320 595 274 551 c 0
 230 507 201 445 188 365 c 0
 175 285 184 223 216 179 c 0
 246 135 297 113 366 113 c 0
 436 113 494 135 539 179 c 0
558 849 m 0
 560 863 557 872 550 877 c 0
 542 882 527 884 504 884 c 0
 459 884 415 877 370 864 c 1
 374 967 l 1
 427 979 484 985 546 985 c 0
 591 985 624 982 646 978 c 0
 669 972 684 964 692 952 c 0
 701 939 703 921 699 898 c 0
 696 881 692 862 684 842 c 0
 678 820 669 802 660 785 c 1
 536 785 l 1
 548 812 555 833 558 849 c 0
EndSplineSet
EndChar

StartChar: uni1EE0
Encoding: 7904 7904 128
Width: 832
Flags: W
LayerCount: 2
Fore
SplineSet
836 610 m 0
 815 583 788 566 756 559 c 1
 774 504 777 440 766 365 c 0
 754 288 729 222 692 166 c 0
 654 109 605 66 546 36 c 0
 487 5 420 -10 347 -10 c 0
 273 -10 212 5 162 36 c 0
 114 66 79 109 58 166 c 0
 38 222 34 288 46 365 c 0
 58 442 83 508 122 564 c 0
 160 621 208 664 267 694 c 0
 326 725 392 740 466 740 c 0
 563 740 637 715 690 665 c 1
 705 665 718 670 728 682 c 0
 739 692 746 708 749 727 c 0
 752 742 752 761 752 784 c 0
 750 806 748 824 745 838 c 1
 877 838 l 1
 884 798 885 756 878 712 c 0
 871 670 857 636 836 610 c 0
539 179 m 0
 584 223 613 285 626 365 c 0
 639 445 629 507 598 551 c 0
 567 595 516 617 446 617 c 0
 377 617 320 595 274 551 c 0
 230 507 201 445 188 365 c 0
 175 285 184 223 216 179 c 0
 246 135 297 113 366 113 c 0
 436 113 494 135 539 179 c 0
518 788 m 0
 500 796 478 807 454 823 c 0
 427 841 408 850 396 850 c 0
 386 850 378 846 373 836 c 0
 368 828 363 811 359 788 c 1
 246 788 l 1
 256 851 272 897 294 927 c 0
 315 957 344 972 379 972 c 0
 413 972 452 957 496 927 c 0
 523 909 542 900 555 900 c 0
 564 900 572 904 577 914 c 0
 582 922 587 939 591 962 c 1
 704 962 l 1
 694 899 678 852 657 822 c 0
 636 793 607 778 572 778 c 0
 555 778 538 782 518 788 c 0
EndSplineSet
EndChar

StartChar: Ohungarumlaut
Encoding: 336 336 129
Width: 809
Flags: W
LayerCount: 2
Fore
SplineSet
162 36 m 0
 114 66 79 109 58 166 c 0
 38 222 34 288 46 365 c 0
 58 442 83 508 122 564 c 0
 160 621 208 664 267 694 c 0
 326 725 392 740 466 740 c 0
 540 740 602 725 651 694 c 0
 700 664 735 621 754 564 c 0
 774 508 778 442 766 365 c 0
 754 288 729 222 692 166 c 0
 654 109 605 66 546 36 c 0
 487 5 420 -10 347 -10 c 0
 273 -10 212 5 162 36 c 0
539 179 m 0
 584 223 613 285 626 365 c 0
 639 445 629 507 598 551 c 0
 567 595 516 617 446 617 c 0
 377 617 320 595 274 551 c 0
 230 507 201 445 188 365 c 0
 175 285 184 223 216 179 c 0
 246 135 297 113 366 113 c 0
 436 113 494 135 539 179 c 0
412 770 m 1
 285 770 l 1
 399 980 l 1
 566 980 l 1
 412 770 l 1
652 770 m 1
 525 770 l 1
 639 980 l 1
 806 980 l 1
 652 770 l 1
EndSplineSet
EndChar

StartChar: uni020E
Encoding: 526 526 130
Width: 809
Flags: W
LayerCount: 2
Fore
SplineSet
162 36 m 0
 114 66 79 109 58 166 c 0
 38 222 34 288 46 365 c 0
 58 442 83 508 122 564 c 0
 160 621 208 664 267 694 c 0
 326 725 392 740 466 740 c 0
 540 740 602 725 651 694 c 0
 700 664 735 621 754 564 c 0
 774 508 778 442 766 365 c 0
 754 288 729 222 692 166 c 0
 654 109 605 66 546 36 c 0
 487 5 420 -10 347 -10 c 0
 273 -10 212 5 162 36 c 0
539 179 m 0
 584 223 613 285 626 365 c 0
 639 445 629 507 598 551 c 0
 567 595 516 617 446 617 c 0
 377 617 320 595 274 551 c 0
 230 507 201 445 188 365 c 0
 175 285 184 223 216 179 c 0
 246 135 297 113 366 113 c 0
 436 113 494 135 539 179 c 0
596 951 m 0
 626 935 648 913 662 884 c 0
 676 856 681 824 677 788 c 1
 544 788 l 1
 546 845 523 874 475 874 c 0
 426 874 393 845 377 788 c 1
 246 788 l 1
 253 824 268 856 291 884 c 0
 314 913 342 935 378 951 c 0
 412 967 450 975 491 975 c 0
 532 975 567 967 596 951 c 0
EndSplineSet
EndChar

StartChar: Omacron
Encoding: 332 332 131
Width: 809
Flags: W
LayerCount: 2
Fore
SplineSet
162 36 m 0
 114 66 79 109 58 166 c 0
 38 222 34 288 46 365 c 0
 58 442 83 508 122 564 c 0
 160 621 208 664 267 694 c 0
 326 725 392 740 466 740 c 0
 540 740 602 725 651 694 c 0
 700 664 735 621 754 564 c 0
 774 508 778 442 766 365 c 0
 754 288 729 222 692 166 c 0
 654 109 605 66 546 36 c 0
 487 5 420 -10 347 -10 c 0
 273 -10 212 5 162 36 c 0
539 179 m 0
 584 223 613 285 626 365 c 0
 639 445 629 507 598 551 c 0
 567 595 516 617 446 617 c 0
 377 617 320 595 274 551 c 0
 230 507 201 445 188 365 c 0
 175 285 184 223 216 179 c 0
 246 135 297 113 366 113 c 0
 436 113 494 135 539 179 c 0
287 927 m 1
 672 927 l 1
 655 823 l 1
 271 823 l 1
 287 927 l 1
EndSplineSet
EndChar

StartChar: uni01EA
Encoding: 490 490 132
Width: 787
Flags: W
LayerCount: 2
Fore
SplineSet
320 -81 m 0
 318 -92 322 -101 332 -106 c 0
 341 -112 356 -115 376 -115 c 0
 406 -115 437 -109 469 -96 c 1
 469 -197 l 1
 433 -211 393 -218 350 -218 c 0
 294 -218 252 -208 225 -188 c 0
 198 -167 187 -139 193 -102 c 0
 199 -66 219 -32 254 -1 c 1
 173 17 115 58 78 122 c 0
 41 186 31 267 46 365 c 0
 58 442 83 508 122 564 c 0
 160 621 208 664 267 694 c 0
 326 725 392 740 466 740 c 0
 540 740 602 725 651 694 c 0
 700 664 735 621 754 564 c 0
 774 508 778 442 766 365 c 0
 749 258 708 172 644 106 c 0
 578 41 497 3 398 -7 c 1
 349 -34 323 -58 320 -81 c 0
216 179 m 0
 246 135 297 113 366 113 c 0
 436 113 494 135 539 179 c 0
 584 223 613 285 626 365 c 0
 639 445 629 507 598 551 c 0
 567 595 516 617 446 617 c 0
 377 617 320 595 274 551 c 0
 230 507 201 445 188 365 c 0
 175 285 184 223 216 179 c 0
EndSplineSet
EndChar

StartChar: Oslash
Encoding: 216 216 133
Width: 787
Flags: W
LayerCount: 2
Fore
SplineSet
766 519 m 0
 775 473 775 422 766 365 c 0
 754 288 729 222 692 166 c 0
 654 109 605 66 546 36 c 0
 487 5 420 -10 347 -10 c 0
 278 -10 221 3 175 29 c 1
 110 -43 l 1
 34 23 l 1
 97 93 l 1
 72 126 55 165 46 211 c 0
 37 257 37 308 46 365 c 0
 58 442 83 508 122 564 c 0
 160 621 208 664 267 694 c 0
 326 725 392 740 466 740 c 0
 534 740 592 727 639 702 c 1
 702 773 l 1
 778 707 l 1
 716 637 l 1
 741 604 757 565 766 519 c 0
199 208 m 1
 545 596 l 1
 518 610 485 617 446 617 c 0
 377 617 320 595 274 551 c 0
 230 507 201 445 188 365 c 0
 178 302 182 250 199 208 c 1
539 179 m 0
 584 223 613 285 626 365 c 0
 636 429 632 482 613 523 c 1
 268 134 l 1
 295 120 328 113 366 113 c 0
 436 113 494 135 539 179 c 0
EndSplineSet
EndChar

StartChar: Oslashacute
Encoding: 510 510 134
Width: 809
Flags: W
LayerCount: 2
Fore
SplineSet
766 519 m 0
 775 473 775 422 766 365 c 0
 754 288 729 222 692 166 c 0
 654 109 605 66 546 36 c 0
 487 5 420 -10 347 -10 c 0
 278 -10 221 3 175 29 c 1
 110 -43 l 1
 34 23 l 1
 97 93 l 1
 72 126 55 165 46 211 c 0
 37 257 37 308 46 365 c 0
 58 442 83 508 122 564 c 0
 160 621 208 664 267 694 c 0
 326 725 392 740 466 740 c 0
 534 740 592 727 639 702 c 1
 702 773 l 1
 778 707 l 1
 716 637 l 1
 741 604 757 565 766 519 c 0
199 208 m 1
 545 596 l 1
 518 610 485 617 446 617 c 0
 377 617 320 595 274 551 c 0
 230 507 201 445 188 365 c 0
 178 302 182 250 199 208 c 1
539 179 m 0
 584 223 613 285 626 365 c 0
 636 429 632 482 613 523 c 1
 268 134 l 1
 295 120 328 113 366 113 c 0
 436 113 494 135 539 179 c 0
529 770 m 1
 402 770 l 1
 516 980 l 1
 683 980 l 1
 529 770 l 1
EndSplineSet
EndChar

StartChar: Otilde
Encoding: 213 213 135
Width: 809
Flags: W
LayerCount: 2
Fore
SplineSet
162 36 m 0
 114 66 79 109 58 166 c 0
 38 222 34 288 46 365 c 0
 58 442 83 508 122 564 c 0
 160 621 208 664 267 694 c 0
 326 725 392 740 466 740 c 0
 540 740 602 725 651 694 c 0
 700 664 735 621 754 564 c 0
 774 508 778 442 766 365 c 0
 754 288 729 222 692 166 c 0
 654 109 605 66 546 36 c 0
 487 5 420 -10 347 -10 c 0
 273 -10 212 5 162 36 c 0
539 179 m 0
 584 223 613 285 626 365 c 0
 639 445 629 507 598 551 c 0
 567 595 516 617 446 617 c 0
 377 617 320 595 274 551 c 0
 230 507 201 445 188 365 c 0
 175 285 184 223 216 179 c 0
 246 135 297 113 366 113 c 0
 436 113 494 135 539 179 c 0
518 788 m 0
 500 796 478 807 454 823 c 0
 427 841 408 850 396 850 c 0
 386 850 378 846 373 836 c 0
 368 828 363 811 359 788 c 1
 246 788 l 1
 256 851 272 897 294 927 c 0
 315 957 344 972 379 972 c 0
 413 972 452 957 496 927 c 0
 523 909 542 900 555 900 c 0
 564 900 572 904 577 914 c 0
 582 922 587 939 591 962 c 1
 704 962 l 1
 694 899 678 852 657 822 c 0
 636 793 607 778 572 778 c 0
 555 778 538 782 518 788 c 0
EndSplineSet
EndChar

StartChar: uni022C
Encoding: 556 556 136
Width: 809
Flags: W
LayerCount: 2
Fore
SplineSet
162 36 m 0
 114 66 79 109 58 166 c 0
 38 222 34 288 46 365 c 0
 58 442 83 508 122 564 c 0
 160 621 208 664 267 694 c 0
 326 725 392 740 466 740 c 0
 540 740 602 725 651 694 c 0
 700 664 735 621 754 564 c 0
 774 508 778 442 766 365 c 0
 754 288 729 222 692 166 c 0
 654 109 605 66 546 36 c 0
 487 5 420 -10 347 -10 c 0
 273 -10 212 5 162 36 c 0
539 179 m 0
 584 223 613 285 626 365 c 0
 639 445 629 507 598 551 c 0
 567 595 516 617 446 617 c 0
 377 617 320 595 274 551 c 0
 230 507 201 445 188 365 c 0
 175 285 184 223 216 179 c 0
 246 135 297 113 366 113 c 0
 436 113 494 135 539 179 c 0
518 788 m 0
 500 796 478 807 454 823 c 0
 427 841 408 850 396 850 c 0
 386 850 378 846 373 836 c 0
 368 828 363 811 359 788 c 1
 246 788 l 1
 256 851 272 897 294 927 c 0
 315 957 344 972 379 972 c 0
 413 972 452 957 496 927 c 0
 523 909 542 900 555 900 c 0
 564 900 572 904 577 914 c 0
 582 922 587 939 591 962 c 1
 704 962 l 1
 694 899 678 852 657 822 c 0
 636 793 607 778 572 778 c 0
 555 778 538 782 518 788 c 0
326 1169 m 1
 711 1169 l 1
 694 1065 l 1
 310 1065 l 1
 326 1169 l 1
EndSplineSet
EndChar

StartChar: OE
Encoding: 338 338 137
Width: 1002
Flags: W
LayerCount: 2
Fore
SplineSet
679 611 m 1
 652 438 l 1
 952 438 l 1
 934 323 l 1
 634 323 l 1
 601 119 l 1
 921 119 l 1
 902 0 l 1
 445 0 l 1
 446 1 l 1
 414 -6 381 -10 347 -10 c 0
 273 -10 212 5 162 36 c 0
 114 66 79 109 58 166 c 0
 38 222 34 288 46 365 c 0
 58 442 83 508 122 564 c 0
 160 621 208 664 267 694 c 0
 326 725 392 740 466 740 c 0
 500 740 532 736 561 729 c 1
 561 730 l 1
 1018 730 l 1
 999 611 l 1
 679 611 l 1
467 134 m 1
 540 596 l 1
 515 610 483 617 446 617 c 0
 377 617 320 595 274 551 c 0
 230 507 201 445 188 365 c 0
 175 285 184 223 216 179 c 0
 246 135 297 113 366 113 c 0
 404 113 438 120 467 134 c 1
EndSplineSet
EndChar

StartChar: P
Encoding: 80 80 138
Width: 609
Flags: W
LayerCount: 2
Fore
SplineSet
568 671 m 0
 614 632 630 571 617 490 c 0
 604 410 570 350 516 310 c 0
 460 269 385 249 288 249 c 2
 200 249 l 1
 160 0 l 1
 23 0 l 1
 139 730 l 1
 338 730 l 2
 446 730 523 710 568 671 c 0
422 397 m 0
 452 416 470 447 477 489 c 0
 484 531 475 562 451 581 c 0
 427 600 385 610 326 610 c 2
 257 610 l 1
 219 368 l 1
 287 368 l 2
 347 368 392 378 422 397 c 0
EndSplineSet
EndChar

StartChar: Thorn
Encoding: 222 222 139
Width: 609
Flags: W
LayerCount: 2
Fore
SplineSet
550 556 m 0
 595 517 612 456 599 375 c 0
 574 215 464 135 270 135 c 2
 182 135 l 1
 160 0 l 1
 23 0 l 1
 139 730 l 1
 276 730 l 1
 258 615 l 1
 320 615 l 2
 427 615 504 595 550 556 c 0
403 282 m 0
 434 302 452 333 459 374 c 0
 466 416 457 447 433 466 c 0
 409 485 367 495 307 495 c 2
 239 495 l 1
 201 253 l 1
 269 253 l 2
 328 253 372 263 403 282 c 0
EndSplineSet
EndChar

StartChar: Q
Encoding: 81 81 140
Width: 791
Flags: W
LayerCount: 2
Fore
SplineSet
713 -61 m 1
 591 -139 l 1
 566 -95 534 -62 494 -42 c 0
 455 -20 406 -10 347 -10 c 0
 273 -10 212 5 162 36 c 0
 114 66 79 109 58 166 c 0
 38 222 34 288 46 365 c 0
 58 442 83 508 122 564 c 0
 160 621 208 664 267 694 c 0
 326 725 392 740 466 740 c 0
 540 740 602 725 651 694 c 0
 700 664 735 621 754 564 c 0
 774 508 778 442 766 365 c 0
 755 294 732 232 698 179 c 0
 662 126 618 84 564 53 c 1
 629 26 678 -12 713 -61 c 1
216 179 m 0
 246 135 297 113 366 113 c 0
 436 113 494 135 539 179 c 0
 584 223 613 285 626 365 c 0
 639 445 629 507 598 551 c 0
 567 595 516 617 446 617 c 0
 377 617 320 595 274 551 c 0
 230 507 201 445 188 365 c 0
 175 285 184 223 216 179 c 0
EndSplineSet
EndChar

StartChar: R
Encoding: 82 82 141
Width: 637
Flags: W
LayerCount: 2
Fore
SplineSet
207 286 m 1
 206 286 l 1
 160 0 l 1
 23 0 l 1
 139 730 l 1
 345 730 l 2
 451 730 526 712 571 676 c 0
 616 641 632 585 620 510 c 0
 599 379 514 305 364 289 c 1
 565 0 l 1
 404 0 l 1
 207 286 l 1
257 610 m 1
 224 399 l 1
 299 399 l 2
 356 399 398 407 428 424 c 0
 456 441 474 467 479 504 c 0
 485 541 476 568 453 584 c 0
 430 602 390 610 333 610 c 2
 257 610 l 1
EndSplineSet
EndChar

StartChar: Racute
Encoding: 340 340 142
Width: 658
Flags: W
LayerCount: 2
Fore
SplineSet
207 286 m 1
 206 286 l 1
 160 0 l 1
 23 0 l 1
 139 730 l 1
 345 730 l 2
 451 730 526 712 571 676 c 0
 616 641 632 585 620 510 c 0
 599 379 514 305 364 289 c 1
 565 0 l 1
 404 0 l 1
 207 286 l 1
257 610 m 1
 224 399 l 1
 299 399 l 2
 356 399 398 407 428 424 c 0
 456 441 474 467 479 504 c 0
 485 541 476 568 453 584 c 0
 430 602 390 610 333 610 c 2
 257 610 l 1
441 770 m 1
 314 770 l 1
 428 980 l 1
 595 980 l 1
 441 770 l 1
EndSplineSet
EndChar

StartChar: Rcaron
Encoding: 344 344 143
Width: 658
Flags: W
LayerCount: 2
Fore
SplineSet
207 286 m 1
 206 286 l 1
 160 0 l 1
 23 0 l 1
 139 730 l 1
 345 730 l 2
 451 730 526 712 571 676 c 0
 616 641 632 585 620 510 c 0
 599 379 514 305 364 289 c 1
 565 0 l 1
 404 0 l 1
 207 286 l 1
257 610 m 1
 224 399 l 1
 299 399 l 2
 356 399 398 407 428 424 c 0
 456 441 474 467 479 504 c 0
 485 541 476 568 453 584 c 0
 430 602 390 610 333 610 c 2
 257 610 l 1
175 980 m 1
 328 980 l 1
 382 827 l 1
 384 827 l 1
 487 980 l 1
 639 980 l 1
 486 770 l 1
 261 770 l 1
 175 980 l 1
EndSplineSet
EndChar

StartChar: uni0156
Encoding: 342 342 144
Width: 658
Flags: W
LayerCount: 2
Fore
SplineSet
207 286 m 1
 206 286 l 1
 160 0 l 1
 23 0 l 1
 139 730 l 1
 345 730 l 2
 451 730 526 712 571 676 c 0
 616 641 632 585 620 510 c 0
 599 379 514 305 364 289 c 1
 565 0 l 1
 404 0 l 1
 207 286 l 1
257 610 m 1
 224 399 l 1
 299 399 l 2
 356 399 398 407 428 424 c 0
 456 441 474 467 479 504 c 0
 485 541 476 568 453 584 c 0
 430 602 390 610 333 610 c 2
 257 610 l 1
178 -250 m 1
 50 -250 l 1
 165 -40 l 1
 332 -40 l 1
 178 -250 l 1
EndSplineSet
EndChar

StartChar: uni0210
Encoding: 528 528 145
Width: 658
Flags: W
LayerCount: 2
Fore
SplineSet
207 286 m 1
 206 286 l 1
 160 0 l 1
 23 0 l 1
 139 730 l 1
 345 730 l 2
 451 730 526 712 571 676 c 0
 616 641 632 585 620 510 c 0
 599 379 514 305 364 289 c 1
 565 0 l 1
 404 0 l 1
 207 286 l 1
257 610 m 1
 224 399 l 1
 299 399 l 2
 356 399 398 407 428 424 c 0
 456 441 474 467 479 504 c 0
 485 541 476 568 453 584 c 0
 430 602 390 610 333 610 c 2
 257 610 l 1
127 980 m 1
 294 980 l 1
 342 770 l 1
 214 770 l 1
 127 980 l 1
362 980 m 1
 529 980 l 1
 577 770 l 1
 450 770 l 1
 362 980 l 1
EndSplineSet
EndChar

StartChar: uni0212
Encoding: 530 530 146
Width: 658
Flags: W
LayerCount: 2
Fore
SplineSet
207 286 m 1
 206 286 l 1
 160 0 l 1
 23 0 l 1
 139 730 l 1
 345 730 l 2
 451 730 526 712 571 676 c 0
 616 641 632 585 620 510 c 0
 599 379 514 305 364 289 c 1
 565 0 l 1
 404 0 l 1
 207 286 l 1
257 610 m 1
 224 399 l 1
 299 399 l 2
 356 399 398 407 428 424 c 0
 456 441 474 467 479 504 c 0
 485 541 476 568 453 584 c 0
 430 602 390 610 333 610 c 2
 257 610 l 1
508 951 m 0
 538 935 560 913 574 884 c 0
 588 856 593 824 589 788 c 1
 456 788 l 1
 458 845 435 874 387 874 c 0
 338 874 305 845 289 788 c 1
 158 788 l 1
 165 824 180 856 203 884 c 0
 226 913 254 935 290 951 c 0
 324 967 362 975 403 975 c 0
 444 975 479 967 508 951 c 0
EndSplineSet
EndChar

StartChar: S
Encoding: 83 83 147
Width: 603
Flags: W
LayerCount: 2
Fore
SplineSet
110 6 m 0
 68 17 34 32 7 52 c 1
 69 167 l 1
 97 150 128 136 162 126 c 0
 196 117 230 112 263 112 c 0
 304 112 336 120 361 135 c 0
 386 150 400 172 405 201 c 0
 408 220 405 235 398 247 c 0
 391 259 379 269 363 277 c 0
 347 285 325 294 297 304 c 0
 242 323 199 343 167 364 c 0
 135 384 112 408 98 436 c 0
 84 463 80 497 87 537 c 0
 98 602 128 652 179 688 c 0
 230 722 297 740 382 740 c 0
 424 740 465 736 506 726 c 0
 547 718 581 706 608 691 c 1
 546 576 l 1
 522 589 494 600 463 607 c 0
 432 614 401 618 370 618 c 0
 329 618 296 611 272 598 c 0
 248 584 234 564 230 537 c 0
 226 512 233 492 250 478 c 0
 268 464 298 450 339 437 c 0
 393 416 436 396 468 376 c 0
 500 355 523 331 536 303 c 0
 550 275 554 241 548 201 c 0
 537 134 506 82 452 45 c 0
 400 8 330 -10 244 -10 c 0
 195 -10 150 -5 110 6 c 0
EndSplineSet
EndChar

StartChar: Sacute
Encoding: 346 346 148
Width: 623
Flags: W
LayerCount: 2
Fore
SplineSet
110 6 m 0
 68 17 34 32 7 52 c 1
 69 167 l 1
 97 150 128 136 162 126 c 0
 196 117 230 112 263 112 c 0
 304 112 336 120 361 135 c 0
 386 150 400 172 405 201 c 0
 408 220 405 235 398 247 c 0
 391 259 379 269 363 277 c 0
 347 285 325 294 297 304 c 0
 242 323 199 343 167 364 c 0
 135 384 112 408 98 436 c 0
 84 463 80 497 87 537 c 0
 98 602 128 652 179 688 c 0
 230 722 297 740 382 740 c 0
 424 740 465 736 506 726 c 0
 547 718 581 706 608 691 c 1
 546 576 l 1
 522 589 494 600 463 607 c 0
 432 614 401 618 370 618 c 0
 329 618 296 611 272 598 c 0
 248 584 234 564 230 537 c 0
 226 512 233 492 250 478 c 0
 268 464 298 450 339 437 c 0
 393 416 436 396 468 376 c 0
 500 355 523 331 536 303 c 0
 550 275 554 241 548 201 c 0
 537 134 506 82 452 45 c 0
 400 8 330 -10 244 -10 c 0
 195 -10 150 -5 110 6 c 0
434 770 m 1
 307 770 l 1
 421 980 l 1
 588 980 l 1
 434 770 l 1
EndSplineSet
EndChar

StartChar: Scaron
Encoding: 352 352 149
Width: 623
Flags: W
LayerCount: 2
Fore
SplineSet
110 6 m 0
 68 17 34 32 7 52 c 1
 69 167 l 1
 97 150 128 136 162 126 c 0
 196 117 230 112 263 112 c 0
 304 112 336 120 361 135 c 0
 386 150 400 172 405 201 c 0
 408 220 405 235 398 247 c 0
 391 259 379 269 363 277 c 0
 347 285 325 294 297 304 c 0
 242 323 199 343 167 364 c 0
 135 384 112 408 98 436 c 0
 84 463 80 497 87 537 c 0
 98 602 128 652 179 688 c 0
 230 722 297 740 382 740 c 0
 424 740 465 736 506 726 c 0
 547 718 581 706 608 691 c 1
 546 576 l 1
 522 589 494 600 463 607 c 0
 432 614 401 618 370 618 c 0
 329 618 296 611 272 598 c 0
 248 584 234 564 230 537 c 0
 226 512 233 492 250 478 c 0
 268 464 298 450 339 437 c 0
 393 416 436 396 468 376 c 0
 500 355 523 331 536 303 c 0
 550 275 554 241 548 201 c 0
 537 134 506 82 452 45 c 0
 400 8 330 -10 244 -10 c 0
 195 -10 150 -5 110 6 c 0
168 980 m 1
 321 980 l 1
 375 827 l 1
 377 827 l 1
 480 980 l 1
 632 980 l 1
 479 770 l 1
 254 770 l 1
 168 980 l 1
EndSplineSet
EndChar

StartChar: Scedilla
Encoding: 350 350 150
Width: 603
Flags: W
LayerCount: 2
Fore
SplineSet
486 74 m 0
 454 40 410 16 357 3 c 1
 384 -30 394 -65 388 -102 c 0
 382 -139 362 -167 329 -188 c 0
 296 -208 251 -218 194 -218 c 0
 151 -218 114 -211 82 -197 c 1
 114 -96 l 1
 142 -109 171 -115 201 -115 c 0
 221 -115 237 -112 248 -106 c 0
 259 -101 266 -92 268 -81 c 0
 271 -59 254 -35 217 -9 c 1
 174 -8 135 -2 98 8 c 0
 62 19 32 33 7 52 c 1
 69 167 l 1
 97 150 128 136 162 126 c 0
 196 117 230 112 263 112 c 0
 304 112 336 120 361 135 c 0
 386 150 400 172 405 201 c 0
 408 220 405 235 398 247 c 0
 391 259 379 269 363 277 c 0
 347 285 325 294 297 304 c 0
 242 323 199 343 167 364 c 0
 135 384 112 408 98 436 c 0
 84 463 80 497 87 537 c 0
 98 602 128 652 179 688 c 0
 230 722 297 740 382 740 c 0
 424 740 465 736 506 726 c 0
 547 718 581 706 608 691 c 1
 546 576 l 1
 522 589 494 600 463 607 c 0
 432 614 401 618 370 618 c 0
 329 618 296 611 272 598 c 0
 248 584 234 564 230 537 c 0
 226 512 233 492 250 478 c 0
 268 464 298 450 339 437 c 0
 393 416 436 396 468 376 c 0
 500 355 523 331 536 303 c 0
 550 275 554 241 548 201 c 0
 540 150 520 108 486 74 c 0
EndSplineSet
EndChar

StartChar: Scircumflex
Encoding: 348 348 151
Width: 623
Flags: W
LayerCount: 2
Fore
SplineSet
110 6 m 0
 68 17 34 32 7 52 c 1
 69 167 l 1
 97 150 128 136 162 126 c 0
 196 117 230 112 263 112 c 0
 304 112 336 120 361 135 c 0
 386 150 400 172 405 201 c 0
 408 220 405 235 398 247 c 0
 391 259 379 269 363 277 c 0
 347 285 325 294 297 304 c 0
 242 323 199 343 167 364 c 0
 135 384 112 408 98 436 c 0
 84 463 80 497 87 537 c 0
 98 602 128 652 179 688 c 0
 230 722 297 740 382 740 c 0
 424 740 465 736 506 726 c 0
 547 718 581 706 608 691 c 1
 546 576 l 1
 522 589 494 600 463 607 c 0
 432 614 401 618 370 618 c 0
 329 618 296 611 272 598 c 0
 248 584 234 564 230 537 c 0
 226 512 233 492 250 478 c 0
 268 464 298 450 339 437 c 0
 393 416 436 396 468 376 c 0
 500 355 523 331 536 303 c 0
 550 275 554 241 548 201 c 0
 537 134 506 82 452 45 c 0
 400 8 330 -10 244 -10 c 0
 195 -10 150 -5 110 6 c 0
287 980 m 1
 512 980 l 1
 599 770 l 1
 446 770 l 1
 392 923 l 1
 390 923 l 1
 287 770 l 1
 135 770 l 1
 287 980 l 1
EndSplineSet
EndChar

StartChar: uni0218
Encoding: 536 536 152
Width: 623
Flags: W
LayerCount: 2
Fore
SplineSet
110 6 m 0
 68 17 34 32 7 52 c 1
 69 167 l 1
 97 150 128 136 162 126 c 0
 196 117 230 112 263 112 c 0
 304 112 336 120 361 135 c 0
 386 150 400 172 405 201 c 0
 408 220 405 235 398 247 c 0
 391 259 379 269 363 277 c 0
 347 285 325 294 297 304 c 0
 242 323 199 343 167 364 c 0
 135 384 112 408 98 436 c 0
 84 463 80 497 87 537 c 0
 98 602 128 652 179 688 c 0
 230 722 297 740 382 740 c 0
 424 740 465 736 506 726 c 0
 547 718 581 706 608 691 c 1
 546 576 l 1
 522 589 494 600 463 607 c 0
 432 614 401 618 370 618 c 0
 329 618 296 611 272 598 c 0
 248 584 234 564 230 537 c 0
 226 512 233 492 250 478 c 0
 268 464 298 450 339 437 c 0
 393 416 436 396 468 376 c 0
 500 355 523 331 536 303 c 0
 550 275 554 241 548 201 c 0
 537 134 506 82 452 45 c 0
 400 8 330 -10 244 -10 c 0
 195 -10 150 -5 110 6 c 0
171 -250 m 1
 43 -250 l 1
 158 -40 l 1
 325 -40 l 1
 171 -250 l 1
EndSplineSet
EndChar

StartChar: uni1E9E
Encoding: 7838 7838 153
Width: 672
Flags: W
LayerCount: 2
Fore
SplineSet
236 12 m 1
 273 132 l 1
 306 119 337 113 366 113 c 0
 404 113 434 121 456 136 c 0
 478 151 491 174 496 203 c 0
 501 235 493 258 470 272 c 0
 447 286 408 293 352 293 c 2
 346 293 l 1
 363 400 l 1
 486 541 l 1
 489 566 482 585 464 598 c 0
 448 611 420 617 382 617 c 0
 337 617 304 608 282 590 c 0
 261 573 247 543 240 502 c 2
 160 0 l 1
 23 0 l 1
 103 502 l 2
 128 661 228 740 401 740 c 0
 570 740 643 667 620 522 c 1
 500 389 l 1
 500 387 l 1
 553 380 592 361 614 330 c 0
 638 298 645 255 636 200 c 0
 625 133 597 81 550 44 c 0
 503 8 442 -10 366 -10 c 0
 321 -10 278 -3 236 12 c 1
EndSplineSet
EndChar

StartChar: uni018F
Encoding: 399 399 154
Width: 738
Flags: W
LayerCount: 2
Fore
SplineSet
662 643 m 0
 719 578 737 486 718 365 c 0
 705 287 681 220 645 164 c 0
 609 107 563 64 507 34 c 0
 451 5 388 -10 317 -10 c 0
 248 -10 190 4 146 34 c 0
 100 62 69 104 52 159 c 0
 34 214 31 279 43 356 c 0
 48 386 53 409 58 425 c 1
 590 425 l 1
 597 490 584 539 550 570 c 0
 516 601 460 617 382 617 c 0
 303 617 224 603 147 574 c 1
 141 692 l 1
 176 707 216 719 260 728 c 0
 305 736 349 740 392 740 c 0
 516 740 606 708 662 643 c 0
569 306 m 1
 174 306 l 1
 165 177 221 113 342 113 c 0
 461 113 537 177 569 306 c 1
EndSplineSet
EndChar

StartChar: T
Encoding: 84 84 155
Width: 623
Flags: W
LayerCount: 2
Fore
SplineSet
292 607 m 1
 76 607 l 1
 95 730 l 1
 668 730 l 1
 649 607 l 1
 433 607 l 1
 337 0 l 1
 196 0 l 1
 292 607 l 1
EndSplineSet
EndChar

StartChar: Tbar
Encoding: 358 358 156
Width: 672
Flags: W
LayerCount: 2
Fore
SplineSet
674 607 m 1
 458 607 l 1
 420 368 l 1
 582 368 l 1
 565 262 l 1
 403 262 l 1
 362 0 l 1
 221 0 l 1
 262 262 l 1
 101 262 l 1
 118 368 l 1
 279 368 l 1
 317 607 l 1
 101 607 l 1
 121 730 l 1
 694 730 l 1
 674 607 l 1
EndSplineSet
EndChar

StartChar: Tcaron
Encoding: 356 356 157
Width: 640
Flags: W
LayerCount: 2
Fore
SplineSet
292 607 m 1
 76 607 l 1
 95 730 l 1
 668 730 l 1
 649 607 l 1
 433 607 l 1
 337 0 l 1
 196 0 l 1
 292 607 l 1
178 980 m 1
 331 980 l 1
 385 827 l 1
 387 827 l 1
 490 980 l 1
 642 980 l 1
 489 770 l 1
 264 770 l 1
 178 980 l 1
EndSplineSet
EndChar

StartChar: uni0162
Encoding: 354 354 158
Width: 623
Flags: W
LayerCount: 2
Fore
SplineSet
433 607 m 1
 340 16 l 1
 375 -22 390 -61 383 -102 c 0
 377 -139 357 -167 324 -188 c 0
 290 -208 245 -218 189 -218 c 0
 146 -218 108 -211 77 -197 c 1
 108 -96 l 1
 136 -109 165 -115 196 -115 c 0
 215 -115 231 -112 242 -106 c 0
 253 -100 260 -92 262 -81 c 0
 266 -56 244 -29 196 0 c 1
 292 607 l 1
 76 607 l 1
 95 730 l 1
 668 730 l 1
 649 607 l 1
 433 607 l 1
EndSplineSet
EndChar

StartChar: uni021A
Encoding: 538 538 159
Width: 640
Flags: W
LayerCount: 2
Fore
SplineSet
292 607 m 1
 76 607 l 1
 95 730 l 1
 668 730 l 1
 649 607 l 1
 433 607 l 1
 337 0 l 1
 196 0 l 1
 292 607 l 1
181 -250 m 1
 53 -250 l 1
 168 -40 l 1
 335 -40 l 1
 181 -250 l 1
EndSplineSet
EndChar

StartChar: U
Encoding: 85 85 160
Width: 685
Flags: W
LayerCount: 2
Fore
SplineSet
98 62 m 0
 58 109 45 179 60 270 c 2
 133 730 l 1
 270 730 l 1
 200 287 l 2
 190 226 194 181 212 154 c 0
 231 127 265 113 315 113 c 0
 366 113 404 127 432 154 c 0
 458 181 477 226 487 287 c 2
 557 730 l 1
 694 730 l 1
 621 270 l 2
 606 179 571 109 516 62 c 0
 461 14 387 -10 296 -10 c 0
 204 -10 138 14 98 62 c 0
EndSplineSet
EndChar

StartChar: Uacute
Encoding: 218 218 161
Width: 709
Flags: W
LayerCount: 2
Fore
SplineSet
98 62 m 0
 58 109 45 179 60 270 c 2
 133 730 l 1
 270 730 l 1
 200 287 l 2
 190 226 194 181 212 154 c 0
 231 127 265 113 315 113 c 0
 366 113 404 127 432 154 c 0
 458 181 477 226 487 287 c 2
 557 730 l 1
 694 730 l 1
 621 270 l 2
 606 179 571 109 516 62 c 0
 461 14 387 -10 296 -10 c 0
 204 -10 138 14 98 62 c 0
479 770 m 1
 352 770 l 1
 466 980 l 1
 633 980 l 1
 479 770 l 1
EndSplineSet
EndChar

StartChar: Ubreve
Encoding: 364 364 162
Width: 709
Flags: W
LayerCount: 2
Fore
SplineSet
98 62 m 0
 58 109 45 179 60 270 c 2
 133 730 l 1
 270 730 l 1
 200 287 l 2
 190 226 194 181 212 154 c 0
 231 127 265 113 315 113 c 0
 366 113 404 127 432 154 c 0
 458 181 477 226 487 287 c 2
 557 730 l 1
 694 730 l 1
 621 270 l 2
 606 179 571 109 516 62 c 0
 461 14 387 -10 296 -10 c 0
 204 -10 138 14 98 62 c 0
304 799 m 0
 274 815 252 837 238 866 c 0
 224 894 219 926 223 962 c 1
 354 962 l 1
 352 905 376 876 425 876 c 0
 474 876 506 905 522 962 c 1
 654 962 l 1
 647 926 632 894 609 866 c 0
 586 837 558 815 522 799 c 0
 488 783 450 775 409 775 c 0
 368 775 333 783 304 799 c 0
EndSplineSet
EndChar

StartChar: Ucircumflex
Encoding: 219 219 163
Width: 709
Flags: W
LayerCount: 2
Fore
SplineSet
98 62 m 0
 58 109 45 179 60 270 c 2
 133 730 l 1
 270 730 l 1
 200 287 l 2
 190 226 194 181 212 154 c 0
 231 127 265 113 315 113 c 0
 366 113 404 127 432 154 c 0
 458 181 477 226 487 287 c 2
 557 730 l 1
 694 730 l 1
 621 270 l 2
 606 179 571 109 516 62 c 0
 461 14 387 -10 296 -10 c 0
 204 -10 138 14 98 62 c 0
331 980 m 1
 556 980 l 1
 643 770 l 1
 490 770 l 1
 436 923 l 1
 434 923 l 1
 331 770 l 1
 179 770 l 1
 331 980 l 1
EndSplineSet
EndChar

StartChar: uni0214
Encoding: 532 532 164
Width: 709
Flags: W
LayerCount: 2
Fore
SplineSet
98 62 m 0
 58 109 45 179 60 270 c 2
 133 730 l 1
 270 730 l 1
 200 287 l 2
 190 226 194 181 212 154 c 0
 231 127 265 113 315 113 c 0
 366 113 404 127 432 154 c 0
 458 181 477 226 487 287 c 2
 557 730 l 1
 694 730 l 1
 621 270 l 2
 606 179 571 109 516 62 c 0
 461 14 387 -10 296 -10 c 0
 204 -10 138 14 98 62 c 0
164 980 m 1
 331 980 l 1
 379 770 l 1
 251 770 l 1
 164 980 l 1
399 980 m 1
 566 980 l 1
 614 770 l 1
 487 770 l 1
 399 980 l 1
EndSplineSet
EndChar

StartChar: Udieresis
Encoding: 220 220 165
Width: 709
Flags: W
LayerCount: 2
Fore
SplineSet
98 62 m 0
 58 109 45 179 60 270 c 2
 133 730 l 1
 270 730 l 1
 200 287 l 2
 190 226 194 181 212 154 c 0
 231 127 265 113 315 113 c 0
 366 113 404 127 432 154 c 0
 458 181 477 226 487 287 c 2
 557 730 l 1
 694 730 l 1
 621 270 l 2
 606 179 571 109 516 62 c 0
 461 14 387 -10 296 -10 c 0
 204 -10 138 14 98 62 c 0
235 949 m 1
 380 949 l 1
 357 801 l 1
 212 801 l 1
 235 949 l 1
490 949 m 1
 634 949 l 1
 611 801 l 1
 466 801 l 1
 490 949 l 1
EndSplineSet
EndChar

StartChar: uni1EE4
Encoding: 7908 7908 166
Width: 709
Flags: W
LayerCount: 2
Fore
SplineSet
98 62 m 0
 58 109 45 179 60 270 c 2
 133 730 l 1
 270 730 l 1
 200 287 l 2
 190 226 194 181 212 154 c 0
 231 127 265 113 315 113 c 0
 366 113 404 127 432 154 c 0
 458 181 477 226 487 287 c 2
 557 730 l 1
 694 730 l 1
 621 270 l 2
 606 179 571 109 516 62 c 0
 461 14 387 -10 296 -10 c 0
 204 -10 138 14 98 62 c 0
240 -71 m 1
 385 -71 l 1
 361 -219 l 1
 216 -219 l 1
 240 -71 l 1
EndSplineSet
EndChar

StartChar: Ugrave
Encoding: 217 217 167
Width: 709
Flags: W
LayerCount: 2
Fore
SplineSet
98 62 m 0
 58 109 45 179 60 270 c 2
 133 730 l 1
 270 730 l 1
 200 287 l 2
 190 226 194 181 212 154 c 0
 231 127 265 113 315 113 c 0
 366 113 404 127 432 154 c 0
 458 181 477 226 487 287 c 2
 557 730 l 1
 694 730 l 1
 621 270 l 2
 606 179 571 109 516 62 c 0
 461 14 387 -10 296 -10 c 0
 204 -10 138 14 98 62 c 0
283 980 m 1
 449 980 l 1
 497 770 l 1
 370 770 l 1
 283 980 l 1
EndSplineSet
EndChar

StartChar: uni1EE6
Encoding: 7910 7910 168
Width: 709
Flags: W
LayerCount: 2
Fore
SplineSet
98 62 m 0
 58 109 45 179 60 270 c 2
 133 730 l 1
 270 730 l 1
 200 287 l 2
 190 226 194 181 212 154 c 0
 231 127 265 113 315 113 c 0
 366 113 404 127 432 154 c 0
 458 181 477 226 487 287 c 2
 557 730 l 1
 694 730 l 1
 621 270 l 2
 606 179 571 109 516 62 c 0
 461 14 387 -10 296 -10 c 0
 204 -10 138 14 98 62 c 0
508 849 m 0
 510 863 507 872 500 877 c 0
 492 882 477 884 454 884 c 0
 409 884 365 877 320 864 c 1
 324 967 l 1
 377 979 434 985 496 985 c 0
 541 985 574 982 596 978 c 0
 619 972 634 964 642 952 c 0
 651 939 653 921 649 898 c 0
 646 881 642 862 634 842 c 0
 628 820 619 802 610 785 c 1
 486 785 l 1
 498 812 505 833 508 849 c 0
EndSplineSet
EndChar

StartChar: Uhorn
Encoding: 431 431 169
Width: 809
Flags: W
LayerCount: 2
Fore
SplineSet
899 712 m 0
 891 662 873 623 846 596 c 0
 818 569 782 555 739 555 c 0
 714 555 691 559 668 568 c 1
 621 270 l 2
 606 179 571 109 516 62 c 0
 461 14 387 -10 296 -10 c 0
 205 -10 139 14 98 62 c 0
 58 109 45 179 60 270 c 2
 133 730 l 1
 270 730 l 1
 200 287 l 2
 190 226 194 181 212 154 c 0
 231 127 265 113 315 113 c 0
 366 113 404 127 432 154 c 0
 458 181 477 226 487 287 c 2
 557 730 l 1
 694 730 l 1
 685 671 l 1
 692 667 701 665 710 665 c 0
 726 665 739 670 750 682 c 0
 760 692 767 708 770 727 c 0
 773 742 774 761 773 784 c 0
 772 806 770 824 766 838 c 1
 898 838 l 1
 905 798 906 756 899 712 c 0
EndSplineSet
EndChar

StartChar: uni1EE8
Encoding: 7912 7912 170
Width: 829
Flags: W
LayerCount: 2
Fore
SplineSet
899 712 m 0
 891 662 873 623 846 596 c 0
 818 569 782 555 739 555 c 0
 714 555 691 559 668 568 c 1
 621 270 l 2
 606 179 571 109 516 62 c 0
 461 14 387 -10 296 -10 c 0
 205 -10 139 14 98 62 c 0
 58 109 45 179 60 270 c 2
 133 730 l 1
 270 730 l 1
 200 287 l 2
 190 226 194 181 212 154 c 0
 231 127 265 113 315 113 c 0
 366 113 404 127 432 154 c 0
 458 181 477 226 487 287 c 2
 557 730 l 1
 694 730 l 1
 685 671 l 1
 692 667 701 665 710 665 c 0
 726 665 739 670 750 682 c 0
 760 692 767 708 770 727 c 0
 773 742 774 761 773 784 c 0
 772 806 770 824 766 838 c 1
 898 838 l 1
 905 798 906 756 899 712 c 0
479 770 m 1
 352 770 l 1
 466 980 l 1
 633 980 l 1
 479 770 l 1
EndSplineSet
EndChar

StartChar: uni1EF0
Encoding: 7920 7920 171
Width: 829
Flags: W
LayerCount: 2
Fore
SplineSet
899 712 m 0
 891 662 873 623 846 596 c 0
 818 569 782 555 739 555 c 0
 714 555 691 559 668 568 c 1
 621 270 l 2
 606 179 571 109 516 62 c 0
 461 14 387 -10 296 -10 c 0
 205 -10 139 14 98 62 c 0
 58 109 45 179 60 270 c 2
 133 730 l 1
 270 730 l 1
 200 287 l 2
 190 226 194 181 212 154 c 0
 231 127 265 113 315 113 c 0
 366 113 404 127 432 154 c 0
 458 181 477 226 487 287 c 2
 557 730 l 1
 694 730 l 1
 685 671 l 1
 692 667 701 665 710 665 c 0
 726 665 739 670 750 682 c 0
 760 692 767 708 770 727 c 0
 773 742 774 761 773 784 c 0
 772 806 770 824 766 838 c 1
 898 838 l 1
 905 798 906 756 899 712 c 0
240 -71 m 1
 385 -71 l 1
 361 -219 l 1
 216 -219 l 1
 240 -71 l 1
EndSplineSet
EndChar

StartChar: uni1EEA
Encoding: 7914 7914 172
Width: 829
Flags: W
LayerCount: 2
Fore
SplineSet
899 712 m 0
 891 662 873 623 846 596 c 0
 818 569 782 555 739 555 c 0
 714 555 691 559 668 568 c 1
 621 270 l 2
 606 179 571 109 516 62 c 0
 461 14 387 -10 296 -10 c 0
 205 -10 139 14 98 62 c 0
 58 109 45 179 60 270 c 2
 133 730 l 1
 270 730 l 1
 200 287 l 2
 190 226 194 181 212 154 c 0
 231 127 265 113 315 113 c 0
 366 113 404 127 432 154 c 0
 458 181 477 226 487 287 c 2
 557 730 l 1
 694 730 l 1
 685 671 l 1
 692 667 701 665 710 665 c 0
 726 665 739 670 750 682 c 0
 760 692 767 708 770 727 c 0
 773 742 774 761 773 784 c 0
 772 806 770 824 766 838 c 1
 898 838 l 1
 905 798 906 756 899 712 c 0
283 980 m 1
 449 980 l 1
 497 770 l 1
 370 770 l 1
 283 980 l 1
EndSplineSet
EndChar

StartChar: uni1EEC
Encoding: 7916 7916 173
Width: 829
Flags: W
LayerCount: 2
Fore
SplineSet
899 712 m 0
 891 662 873 623 846 596 c 0
 818 569 782 555 739 555 c 0
 714 555 691 559 668 568 c 1
 621 270 l 2
 606 179 571 109 516 62 c 0
 461 14 387 -10 296 -10 c 0
 205 -10 139 14 98 62 c 0
 58 109 45 179 60 270 c 2
 133 730 l 1
 270 730 l 1
 200 287 l 2
 190 226 194 181 212 154 c 0
 231 127 265 113 315 113 c 0
 366 113 404 127 432 154 c 0
 458 181 477 226 487 287 c 2
 557 730 l 1
 694 730 l 1
 685 671 l 1
 692 667 701 665 710 665 c 0
 726 665 739 670 750 682 c 0
 760 692 767 708 770 727 c 0
 773 742 774 761 773 784 c 0
 772 806 770 824 766 838 c 1
 898 838 l 1
 905 798 906 756 899 712 c 0
508 849 m 0
 510 863 507 872 500 877 c 0
 492 882 477 884 454 884 c 0
 409 884 365 877 320 864 c 1
 324 967 l 1
 377 979 434 985 496 985 c 0
 541 985 574 982 596 978 c 0
 619 972 634 964 642 952 c 0
 651 939 653 921 649 898 c 0
 646 881 642 862 634 842 c 0
 628 820 619 802 610 785 c 1
 486 785 l 1
 498 812 505 833 508 849 c 0
EndSplineSet
EndChar

StartChar: uni1EEE
Encoding: 7918 7918 174
Width: 829
Flags: W
LayerCount: 2
Fore
SplineSet
899 712 m 0
 891 662 873 623 846 596 c 0
 818 569 782 555 739 555 c 0
 714 555 691 559 668 568 c 1
 621 270 l 2
 606 179 571 109 516 62 c 0
 461 14 387 -10 296 -10 c 0
 205 -10 139 14 98 62 c 0
 58 109 45 179 60 270 c 2
 133 730 l 1
 270 730 l 1
 200 287 l 2
 190 226 194 181 212 154 c 0
 231 127 265 113 315 113 c 0
 366 113 404 127 432 154 c 0
 458 181 477 226 487 287 c 2
 557 730 l 1
 694 730 l 1
 685 671 l 1
 692 667 701 665 710 665 c 0
 726 665 739 670 750 682 c 0
 760 692 767 708 770 727 c 0
 773 742 774 761 773 784 c 0
 772 806 770 824 766 838 c 1
 898 838 l 1
 905 798 906 756 899 712 c 0
468 788 m 0
 450 796 428 807 404 823 c 0
 377 841 358 850 346 850 c 0
 336 850 328 846 323 836 c 0
 318 828 313 811 309 788 c 1
 196 788 l 1
 206 851 222 897 244 927 c 0
 265 957 294 972 329 972 c 0
 363 972 402 957 446 927 c 0
 473 909 492 900 505 900 c 0
 514 900 522 904 527 914 c 0
 532 922 537 939 541 962 c 1
 654 962 l 1
 644 899 628 852 607 822 c 0
 586 793 557 778 522 778 c 0
 505 778 488 782 468 788 c 0
EndSplineSet
EndChar

StartChar: Uhungarumlaut
Encoding: 368 368 175
Width: 709
Flags: W
LayerCount: 2
Fore
SplineSet
98 62 m 0
 58 109 45 179 60 270 c 2
 133 730 l 1
 270 730 l 1
 200 287 l 2
 190 226 194 181 212 154 c 0
 231 127 265 113 315 113 c 0
 366 113 404 127 432 154 c 0
 458 181 477 226 487 287 c 2
 557 730 l 1
 694 730 l 1
 621 270 l 2
 606 179 571 109 516 62 c 0
 461 14 387 -10 296 -10 c 0
 204 -10 138 14 98 62 c 0
362 770 m 1
 235 770 l 1
 349 980 l 1
 516 980 l 1
 362 770 l 1
602 770 m 1
 475 770 l 1
 589 980 l 1
 756 980 l 1
 602 770 l 1
EndSplineSet
EndChar

StartChar: uni0216
Encoding: 534 534 176
Width: 709
Flags: W
LayerCount: 2
Fore
SplineSet
98 62 m 0
 58 109 45 179 60 270 c 2
 133 730 l 1
 270 730 l 1
 200 287 l 2
 190 226 194 181 212 154 c 0
 231 127 265 113 315 113 c 0
 366 113 404 127 432 154 c 0
 458 181 477 226 487 287 c 2
 557 730 l 1
 694 730 l 1
 621 270 l 2
 606 179 571 109 516 62 c 0
 461 14 387 -10 296 -10 c 0
 204 -10 138 14 98 62 c 0
546 951 m 0
 576 935 598 913 612 884 c 0
 626 856 631 824 627 788 c 1
 494 788 l 1
 496 845 473 874 425 874 c 0
 376 874 343 845 327 788 c 1
 196 788 l 1
 203 824 218 856 241 884 c 0
 264 913 292 935 328 951 c 0
 362 967 400 975 441 975 c 0
 482 975 517 967 546 951 c 0
EndSplineSet
EndChar

StartChar: Umacron
Encoding: 362 362 177
Width: 709
Flags: W
LayerCount: 2
Fore
SplineSet
98 62 m 0
 58 109 45 179 60 270 c 2
 133 730 l 1
 270 730 l 1
 200 287 l 2
 190 226 194 181 212 154 c 0
 231 127 265 113 315 113 c 0
 366 113 404 127 432 154 c 0
 458 181 477 226 487 287 c 2
 557 730 l 1
 694 730 l 1
 621 270 l 2
 606 179 571 109 516 62 c 0
 461 14 387 -10 296 -10 c 0
 204 -10 138 14 98 62 c 0
237 927 m 1
 622 927 l 1
 605 823 l 1
 221 823 l 1
 237 927 l 1
EndSplineSet
EndChar

StartChar: Uogonek
Encoding: 370 370 178
Width: 685
Flags: W
LayerCount: 2
Fore
SplineSet
333 -71 m 0
 331 -82 335 -91 344 -96 c 0
 354 -102 369 -105 389 -105 c 0
 419 -105 450 -99 482 -86 c 1
 482 -187 l 1
 446 -201 406 -208 363 -208 c 0
 307 -208 265 -198 238 -178 c 0
 211 -157 200 -129 206 -92 c 0
 211 -63 225 -35 250 -8 c 1
 174 0 120 28 88 74 c 0
 56 122 47 187 60 270 c 2
 133 730 l 1
 270 730 l 1
 200 287 l 2
 190 226 194 181 212 154 c 0
 231 127 265 113 315 113 c 0
 366 113 404 127 432 154 c 0
 458 181 477 226 487 287 c 2
 557 730 l 1
 694 730 l 1
 621 270 l 2
 610 203 588 147 555 103 c 0
 522 59 478 28 424 10 c 1
 367 -19 337 -46 333 -71 c 0
EndSplineSet
EndChar

StartChar: Uring
Encoding: 366 366 179
Width: 709
Flags: W
LayerCount: 2
Fore
SplineSet
98 62 m 0
 58 109 45 179 60 270 c 2
 133 730 l 1
 270 730 l 1
 200 287 l 2
 190 226 194 181 212 154 c 0
 231 127 265 113 315 113 c 0
 366 113 404 127 432 154 c 0
 458 181 477 226 487 287 c 2
 557 730 l 1
 694 730 l 1
 621 270 l 2
 606 179 571 109 516 62 c 0
 461 14 387 -10 296 -10 c 0
 204 -10 138 14 98 62 c 0
327 739 m 0
 306 753 290 772 280 796 c 0
 271 820 268 846 272 875 c 0
 277 904 288 930 306 954 c 0
 323 978 345 997 370 1011 c 0
 396 1025 423 1032 450 1032 c 0
 478 1032 503 1025 524 1011 c 0
 545 997 561 978 571 954 c 0
 581 930 584 904 579 875 c 0
 574 846 563 820 546 796 c 0
 529 772 507 753 482 739 c 0
 456 725 429 718 400 718 c 0
 373 718 348 725 327 739 c 0
464 829 m 0
 478 842 486 857 489 875 c 0
 492 893 488 908 478 921 c 0
 468 934 454 940 436 940 c 0
 419 940 403 934 388 921 c 0
 373 908 365 893 362 875 c 0
 359 857 363 842 374 829 c 0
 384 816 398 810 415 810 c 0
 433 810 449 816 464 829 c 0
EndSplineSet
EndChar

StartChar: Utilde
Encoding: 360 360 180
Width: 709
Flags: W
LayerCount: 2
Fore
SplineSet
98 62 m 0
 58 109 45 179 60 270 c 2
 133 730 l 1
 270 730 l 1
 200 287 l 2
 190 226 194 181 212 154 c 0
 231 127 265 113 315 113 c 0
 366 113 404 127 432 154 c 0
 458 181 477 226 487 287 c 2
 557 730 l 1
 694 730 l 1
 621 270 l 2
 606 179 571 109 516 62 c 0
 461 14 387 -10 296 -10 c 0
 204 -10 138 14 98 62 c 0
468 788 m 0
 450 796 428 807 404 823 c 0
 377 841 358 850 346 850 c 0
 336 850 328 846 323 836 c 0
 318 828 313 811 309 788 c 1
 196 788 l 1
 206 851 222 897 244 927 c 0
 265 957 294 972 329 972 c 0
 363 972 402 957 446 927 c 0
 473 909 492 900 505 900 c 0
 514 900 522 904 527 914 c 0
 532 922 537 939 541 962 c 1
 654 962 l 1
 644 899 628 852 607 822 c 0
 586 793 557 778 522 778 c 0
 505 778 488 782 468 788 c 0
EndSplineSet
EndChar

StartChar: V
Encoding: 86 86 181
Width: 668
Flags: W
LayerCount: 2
Fore
SplineSet
80 730 m 1
 231 730 l 1
 311 140 l 1
 313 140 l 1
 580 730 l 1
 730 730 l 1
 380 0 l 1
 200 0 l 1
 80 730 l 1
EndSplineSet
EndChar

StartChar: W
Encoding: 87 87 182
Width: 918
Flags: W
LayerCount: 2
Fore
SplineSet
505 583 m 1
 504 583 l 1
 302 0 l 1
 140 0 l 1
 90 730 l 1
 230 730 l 1
 245 147 l 1
 247 147 l 1
 444 730 l 1
 615 730 l 1
 628 147 l 1
 629 147 l 1
 830 730 l 1
 966 730 l 1
 685 0 l 1
 522 0 l 1
 505 583 l 1
EndSplineSet
EndChar

StartChar: Wacute
Encoding: 7810 7810 183
Width: 941
Flags: W
LayerCount: 2
Fore
SplineSet
505 583 m 1
 504 583 l 1
 302 0 l 1
 140 0 l 1
 90 730 l 1
 230 730 l 1
 245 147 l 1
 247 147 l 1
 444 730 l 1
 615 730 l 1
 628 147 l 1
 629 147 l 1
 830 730 l 1
 966 730 l 1
 685 0 l 1
 522 0 l 1
 505 583 l 1
595 770 m 1
 468 770 l 1
 582 980 l 1
 749 980 l 1
 595 770 l 1
EndSplineSet
EndChar

StartChar: Wcircumflex
Encoding: 372 372 184
Width: 941
Flags: W
LayerCount: 2
Fore
SplineSet
505 583 m 1
 504 583 l 1
 302 0 l 1
 140 0 l 1
 90 730 l 1
 230 730 l 1
 245 147 l 1
 247 147 l 1
 444 730 l 1
 615 730 l 1
 628 147 l 1
 629 147 l 1
 830 730 l 1
 966 730 l 1
 685 0 l 1
 522 0 l 1
 505 583 l 1
447 980 m 1
 672 980 l 1
 759 770 l 1
 606 770 l 1
 552 923 l 1
 550 923 l 1
 447 770 l 1
 295 770 l 1
 447 980 l 1
EndSplineSet
EndChar

StartChar: Wdieresis
Encoding: 7812 7812 185
Width: 941
Flags: W
LayerCount: 2
Fore
SplineSet
505 583 m 1
 504 583 l 1
 302 0 l 1
 140 0 l 1
 90 730 l 1
 230 730 l 1
 245 147 l 1
 247 147 l 1
 444 730 l 1
 615 730 l 1
 628 147 l 1
 629 147 l 1
 830 730 l 1
 966 730 l 1
 685 0 l 1
 522 0 l 1
 505 583 l 1
351 949 m 1
 496 949 l 1
 473 801 l 1
 328 801 l 1
 351 949 l 1
606 949 m 1
 750 949 l 1
 727 801 l 1
 582 801 l 1
 606 949 l 1
EndSplineSet
EndChar

StartChar: Wgrave
Encoding: 7808 7808 186
Width: 941
Flags: W
LayerCount: 2
Fore
SplineSet
505 583 m 1
 504 583 l 1
 302 0 l 1
 140 0 l 1
 90 730 l 1
 230 730 l 1
 245 147 l 1
 247 147 l 1
 444 730 l 1
 615 730 l 1
 628 147 l 1
 629 147 l 1
 830 730 l 1
 966 730 l 1
 685 0 l 1
 522 0 l 1
 505 583 l 1
399 980 m 1
 565 980 l 1
 613 770 l 1
 486 770 l 1
 399 980 l 1
EndSplineSet
EndChar

StartChar: X
Encoding: 88 88 187
Width: 671
Flags: W
LayerCount: 2
Fore
SplineSet
247 366 m 1
 108 730 l 1
 263 730 l 1
 361 446 l 1
 363 446 l 1
 550 730 l 1
 705 730 l 1
 451 366 l 1
 591 0 l 1
 436 0 l 1
 338 288 l 1
 336 288 l 1
 145 0 l 1
 -10 0 l 1
 247 366 l 1
EndSplineSet
EndChar

StartChar: Y
Encoding: 89 89 188
Width: 650
Flags: W
LayerCount: 2
Fore
SplineSet
255 286 m 1
 76 730 l 1
 230 730 l 1
 345 411 l 1
 347 411 l 1
 562 730 l 1
 716 730 l 1
 398 286 l 1
 352 0 l 1
 209 0 l 1
 255 286 l 1
EndSplineSet
EndChar

StartChar: Yacute
Encoding: 221 221 189
Width: 665
Flags: W
LayerCount: 2
Fore
SplineSet
255 286 m 1
 76 730 l 1
 230 730 l 1
 345 411 l 1
 347 411 l 1
 562 730 l 1
 716 730 l 1
 398 286 l 1
 352 0 l 1
 209 0 l 1
 255 286 l 1
457 770 m 1
 330 770 l 1
 444 980 l 1
 611 980 l 1
 457 770 l 1
EndSplineSet
EndChar

StartChar: Ycircumflex
Encoding: 374 374 190
Width: 665
Flags: W
LayerCount: 2
Fore
SplineSet
255 286 m 1
 76 730 l 1
 230 730 l 1
 345 411 l 1
 347 411 l 1
 562 730 l 1
 716 730 l 1
 398 286 l 1
 352 0 l 1
 209 0 l 1
 255 286 l 1
310 980 m 1
 535 980 l 1
 622 770 l 1
 469 770 l 1
 415 923 l 1
 413 923 l 1
 310 770 l 1
 158 770 l 1
 310 980 l 1
EndSplineSet
EndChar

StartChar: Ydieresis
Encoding: 376 376 191
Width: 665
Flags: W
LayerCount: 2
Fore
SplineSet
255 286 m 1
 76 730 l 1
 230 730 l 1
 345 411 l 1
 347 411 l 1
 562 730 l 1
 716 730 l 1
 398 286 l 1
 352 0 l 1
 209 0 l 1
 255 286 l 1
213 949 m 1
 358 949 l 1
 335 801 l 1
 190 801 l 1
 213 949 l 1
468 949 m 1
 612 949 l 1
 589 801 l 1
 444 801 l 1
 468 949 l 1
EndSplineSet
EndChar

StartChar: uni1EF4
Encoding: 7924 7924 192
Width: 665
Flags: W
LayerCount: 2
Fore
SplineSet
255 286 m 1
 76 730 l 1
 230 730 l 1
 345 411 l 1
 347 411 l 1
 562 730 l 1
 716 730 l 1
 398 286 l 1
 352 0 l 1
 209 0 l 1
 255 286 l 1
219 -71 m 1
 364 -71 l 1
 340 -219 l 1
 195 -219 l 1
 219 -71 l 1
EndSplineSet
EndChar

StartChar: Ygrave
Encoding: 7922 7922 193
Width: 665
Flags: W
LayerCount: 2
Fore
SplineSet
255 286 m 1
 76 730 l 1
 230 730 l 1
 345 411 l 1
 347 411 l 1
 562 730 l 1
 716 730 l 1
 398 286 l 1
 352 0 l 1
 209 0 l 1
 255 286 l 1
261 980 m 1
 427 980 l 1
 475 770 l 1
 348 770 l 1
 261 980 l 1
EndSplineSet
EndChar

StartChar: uni1EF6
Encoding: 7926 7926 194
Width: 665
Flags: W
LayerCount: 2
Fore
SplineSet
255 286 m 1
 76 730 l 1
 230 730 l 1
 345 411 l 1
 347 411 l 1
 562 730 l 1
 716 730 l 1
 398 286 l 1
 352 0 l 1
 209 0 l 1
 255 286 l 1
486 849 m 0
 488 863 485 872 478 877 c 0
 470 882 455 884 432 884 c 0
 387 884 343 877 298 864 c 1
 302 967 l 1
 355 979 412 985 474 985 c 0
 519 985 552 982 574 978 c 0
 597 972 612 964 620 952 c 0
 629 939 631 921 627 898 c 0
 624 881 620 862 612 842 c 0
 606 820 597 802 588 785 c 1
 464 785 l 1
 476 812 483 833 486 849 c 0
EndSplineSet
EndChar

StartChar: uni0232
Encoding: 562 562 195
Width: 665
Flags: W
LayerCount: 2
Fore
SplineSet
255 286 m 1
 76 730 l 1
 230 730 l 1
 345 411 l 1
 347 411 l 1
 562 730 l 1
 716 730 l 1
 398 286 l 1
 352 0 l 1
 209 0 l 1
 255 286 l 1
215 927 m 1
 600 927 l 1
 583 823 l 1
 199 823 l 1
 215 927 l 1
EndSplineSet
EndChar

StartChar: uni1EF8
Encoding: 7928 7928 196
Width: 665
Flags: W
LayerCount: 2
Fore
SplineSet
255 286 m 1
 76 730 l 1
 230 730 l 1
 345 411 l 1
 347 411 l 1
 562 730 l 1
 716 730 l 1
 398 286 l 1
 352 0 l 1
 209 0 l 1
 255 286 l 1
446 788 m 0
 428 796 406 807 382 823 c 0
 355 841 336 850 324 850 c 0
 314 850 306 846 301 836 c 0
 296 828 291 811 287 788 c 1
 174 788 l 1
 184 851 200 897 222 927 c 0
 243 957 272 972 307 972 c 0
 341 972 380 957 424 927 c 0
 451 909 470 900 483 900 c 0
 492 900 500 904 505 914 c 0
 510 922 515 939 519 962 c 1
 632 962 l 1
 622 899 606 852 585 822 c 0
 564 793 535 778 500 778 c 0
 483 778 466 782 446 788 c 0
EndSplineSet
EndChar

StartChar: Z
Encoding: 90 90 197
Width: 618
Flags: W
LayerCount: 2
Fore
SplineSet
29 122 m 1
 451 606 l 1
 451 608 l 1
 106 608 l 1
 125 730 l 1
 635 730 l 1
 615 608 l 1
 194 124 l 1
 194 122 l 1
 539 122 l 1
 519 0 l 1
 10 0 l 1
 29 122 l 1
EndSplineSet
EndChar

StartChar: Zacute
Encoding: 377 377 198
Width: 640
Flags: W
LayerCount: 2
Fore
SplineSet
29 122 m 1
 451 606 l 1
 451 608 l 1
 106 608 l 1
 125 730 l 1
 635 730 l 1
 615 608 l 1
 194 124 l 1
 194 122 l 1
 539 122 l 1
 519 0 l 1
 10 0 l 1
 29 122 l 1
444 770 m 1
 317 770 l 1
 431 980 l 1
 598 980 l 1
 444 770 l 1
EndSplineSet
EndChar

StartChar: Zcaron
Encoding: 381 381 199
Width: 640
Flags: W
LayerCount: 2
Fore
SplineSet
29 122 m 1
 451 606 l 1
 451 608 l 1
 106 608 l 1
 125 730 l 1
 635 730 l 1
 615 608 l 1
 194 124 l 1
 194 122 l 1
 539 122 l 1
 519 0 l 1
 10 0 l 1
 29 122 l 1
178 980 m 1
 331 980 l 1
 385 827 l 1
 387 827 l 1
 490 980 l 1
 642 980 l 1
 489 770 l 1
 264 770 l 1
 178 980 l 1
EndSplineSet
EndChar

StartChar: Zdotaccent
Encoding: 379 379 200
Width: 640
Flags: W
LayerCount: 2
Fore
SplineSet
29 122 m 1
 451 606 l 1
 451 608 l 1
 106 608 l 1
 125 730 l 1
 635 730 l 1
 615 608 l 1
 194 124 l 1
 194 122 l 1
 539 122 l 1
 519 0 l 1
 10 0 l 1
 29 122 l 1
367 949 m 1
 512 949 l 1
 488 801 l 1
 343 801 l 1
 367 949 l 1
EndSplineSet
EndChar

StartChar: a
Encoding: 97 97 201
Width: 524
Flags: W
LayerCount: 2
Fore
SplineSet
418 510 m 0
 446 496 465 474 474 444 c 0
 483 414 484 374 476 323 c 2
 424 0 l 1
 301 0 l 1
 311 66 l 1
 309 66 l 1
 287 41 261 22 232 10 c 0
 202 -4 171 -10 138 -10 c 0
 89 -10 53 4 28 33 c 0
 4 62 -4 100 3 147 c 0
 12 208 44 254 98 286 c 0
 152 319 224 335 315 335 c 2
 348 335 l 1
 351 359 351 377 348 390 c 0
 345 402 338 410 326 416 c 0
 316 420 298 423 275 423 c 0
 213 423 150 409 87 380 c 1
 73 481 l 1
 144 514 220 530 302 530 c 0
 352 530 391 523 418 510 c 0
252 108 m 0
 272 118 289 131 302 148 c 0
 315 164 323 181 326 200 c 2
 333 244 l 1
 300 244 l 2
 194 244 137 216 128 159 c 0
 125 139 129 123 140 112 c 0
 151 100 169 94 192 94 c 0
 213 94 233 99 252 108 c 0
EndSplineSet
EndChar

StartChar: aacute
Encoding: 225 225 202
Width: 559
Flags: W
LayerCount: 2
Fore
SplineSet
418 510 m 0
 446 496 465 474 474 444 c 0
 483 414 484 374 476 323 c 2
 424 0 l 1
 301 0 l 1
 311 66 l 1
 309 66 l 1
 287 41 261 22 232 10 c 0
 202 -4 171 -10 138 -10 c 0
 89 -10 53 4 28 33 c 0
 4 62 -4 100 3 147 c 0
 12 208 44 254 98 286 c 0
 152 319 224 335 315 335 c 2
 348 335 l 1
 351 359 351 377 348 390 c 0
 345 402 338 410 326 416 c 0
 316 420 298 423 275 423 c 0
 213 423 150 409 87 380 c 1
 73 481 l 1
 144 514 220 530 302 530 c 0
 352 530 391 523 418 510 c 0
252 108 m 0
 272 118 289 131 302 148 c 0
 315 164 323 181 326 200 c 2
 333 244 l 1
 300 244 l 2
 194 244 137 216 128 159 c 0
 125 139 129 123 140 112 c 0
 151 100 169 94 192 94 c 0
 213 94 233 99 252 108 c 0
358 560 m 1
 231 560 l 1
 345 770 l 1
 512 770 l 1
 358 560 l 1
EndSplineSet
EndChar

StartChar: abreve
Encoding: 259 259 203
Width: 559
Flags: W
LayerCount: 2
Fore
SplineSet
418 510 m 0
 446 496 465 474 474 444 c 0
 483 414 484 374 476 323 c 2
 424 0 l 1
 301 0 l 1
 311 66 l 1
 309 66 l 1
 287 41 261 22 232 10 c 0
 202 -4 171 -10 138 -10 c 0
 89 -10 53 4 28 33 c 0
 4 62 -4 100 3 147 c 0
 12 208 44 254 98 286 c 0
 152 319 224 335 315 335 c 2
 348 335 l 1
 351 359 351 377 348 390 c 0
 345 402 338 410 326 416 c 0
 316 420 298 423 275 423 c 0
 213 423 150 409 87 380 c 1
 73 481 l 1
 144 514 220 530 302 530 c 0
 352 530 391 523 418 510 c 0
252 108 m 0
 272 118 289 131 302 148 c 0
 315 164 323 181 326 200 c 2
 333 244 l 1
 300 244 l 2
 194 244 137 216 128 159 c 0
 125 139 129 123 140 112 c 0
 151 100 169 94 192 94 c 0
 213 94 233 99 252 108 c 0
182 589 m 0
 153 605 131 627 117 656 c 0
 103 684 98 716 102 752 c 1
 233 752 l 1
 231 695 255 666 304 666 c 0
 353 666 385 695 401 752 c 1
 533 752 l 1
 526 716 511 684 488 656 c 0
 465 627 436 605 402 589 c 0
 366 573 329 565 288 565 c 0
 247 565 212 573 182 589 c 0
EndSplineSet
EndChar

StartChar: uni1EAF
Encoding: 7855 7855 204
Width: 524
Flags: W
LayerCount: 2
Fore
SplineSet
194 589 m 0
 165 605 144 627 131 656 c 0
 118 684 113 716 117 752 c 1
 230 752 l 1
 336 950 l 1
 497 950 l 1
 347 740 l 1
 244 740 l 1
 245 691 268 666 312 666 c 0
 359 666 390 695 406 752 c 1
 533 752 l 1
 526 716 512 684 489 656 c 0
 466 627 438 605 404 589 c 0
 371 573 335 565 296 565 c 0
 257 565 223 573 194 589 c 0
418 510 m 0
 446 496 464 474 474 444 c 0
 482 414 483 374 475 323 c 2
 424 0 l 1
 301 0 l 1
 311 66 l 1
 309 66 l 1
 287 41 261 22 232 10 c 0
 202 -4 171 -10 138 -10 c 0
 89 -10 53 4 28 33 c 0
 4 62 -4 100 3 147 c 0
 12 208 44 254 98 286 c 0
 152 319 224 335 314 335 c 2
 348 335 l 1
 351 359 351 377 348 390 c 0
 345 402 337 410 326 416 c 0
 315 420 298 423 275 423 c 0
 213 423 150 409 87 380 c 1
 73 481 l 1
 144 514 220 530 302 530 c 0
 352 530 391 523 418 510 c 0
252 108 m 0
 272 118 289 131 302 148 c 0
 315 164 323 181 326 200 c 2
 333 244 l 1
 300 244 l 2
 194 244 137 216 128 159 c 0
 125 139 129 123 140 112 c 0
 151 100 169 94 192 94 c 0
 213 94 233 99 252 108 c 0
EndSplineSet
EndChar

StartChar: uni1EB7
Encoding: 7863 7863 205
Width: 559
Flags: W
LayerCount: 2
Fore
SplineSet
418 510 m 0
 446 496 465 474 474 444 c 0
 483 414 484 374 476 323 c 2
 424 0 l 1
 301 0 l 1
 311 66 l 1
 309 66 l 1
 287 41 261 22 232 10 c 0
 202 -4 171 -10 138 -10 c 0
 89 -10 53 4 28 33 c 0
 4 62 -4 100 3 147 c 0
 12 208 44 254 98 286 c 0
 152 319 224 335 315 335 c 2
 348 335 l 1
 351 359 351 377 348 390 c 0
 345 402 338 410 326 416 c 0
 316 420 298 423 275 423 c 0
 213 423 150 409 87 380 c 1
 73 481 l 1
 144 514 220 530 302 530 c 0
 352 530 391 523 418 510 c 0
252 108 m 0
 272 118 289 131 302 148 c 0
 315 164 323 181 326 200 c 2
 333 244 l 1
 300 244 l 2
 194 244 137 216 128 159 c 0
 125 139 129 123 140 112 c 0
 151 100 169 94 192 94 c 0
 213 94 233 99 252 108 c 0
153 -71 m 1
 298 -71 l 1
 274 -219 l 1
 129 -219 l 1
 153 -71 l 1
182 589 m 0
 153 605 131 627 117 656 c 0
 103 684 98 716 102 752 c 1
 233 752 l 1
 231 695 255 666 304 666 c 0
 353 666 385 695 401 752 c 1
 533 752 l 1
 526 716 511 684 488 656 c 0
 465 627 436 605 402 589 c 0
 366 573 329 565 288 565 c 0
 247 565 212 573 182 589 c 0
EndSplineSet
EndChar

StartChar: uni1EB1
Encoding: 7857 7857 206
Width: 524
Flags: W
LayerCount: 2
Fore
SplineSet
367 684 m 0
 382 697 394 715 402 740 c 1
 299 740 l 1
 216 950 l 1
 376 950 l 1
 419 752 l 1
 533 752 l 1
 526 716 512 684 489 656 c 0
 466 627 438 605 404 589 c 0
 371 573 335 565 296 565 c 0
 257 565 223 573 194 589 c 0
 165 605 144 627 131 656 c 0
 118 684 113 716 117 752 c 1
 243 752 l 1
 241 695 264 666 312 666 c 0
 333 666 352 672 367 684 c 0
418 510 m 0
 446 496 464 474 474 444 c 0
 482 414 483 374 475 323 c 2
 424 0 l 1
 301 0 l 1
 311 66 l 1
 309 66 l 1
 287 41 261 22 232 10 c 0
 202 -4 171 -10 138 -10 c 0
 89 -10 53 4 28 33 c 0
 4 62 -4 100 3 147 c 0
 12 208 44 254 98 286 c 0
 152 319 224 335 314 335 c 2
 347 335 l 1
 350 359 350 377 348 390 c 0
 344 402 337 410 326 416 c 0
 315 420 298 423 275 423 c 0
 213 423 150 409 87 380 c 1
 73 481 l 1
 144 514 220 530 302 530 c 0
 352 530 391 523 418 510 c 0
252 108 m 0
 272 118 289 131 302 148 c 0
 315 164 323 181 326 200 c 2
 333 244 l 1
 300 244 l 2
 195 244 137 216 128 159 c 0
 125 139 129 123 140 112 c 0
 151 100 169 94 192 94 c 0
 213 94 233 99 252 108 c 0
EndSplineSet
EndChar

StartChar: uni1EB3
Encoding: 7859 7859 207
Width: 524
Flags: W
LayerCount: 2
Fore
SplineSet
402 742 m 1
 345 742 l 1
 357 769 364 790 367 806 c 0
 369 820 366 829 359 834 c 0
 352 839 337 841 315 841 c 0
 272 841 229 834 185 821 c 1
 190 924 l 1
 241 936 296 942 355 942 c 0
 398 942 430 940 452 934 c 0
 474 930 489 921 496 908 c 0
 504 896 506 878 503 855 c 0
 500 840 496 823 490 804 c 0
 484 785 477 768 469 752 c 1
 532 752 l 1
 525 716 511 684 488 656 c 0
 466 627 438 605 404 589 c 0
 371 573 334 565 295 565 c 0
 256 565 223 573 194 589 c 0
 165 605 144 627 131 656 c 0
 118 684 113 716 117 752 c 1
 243 752 l 1
 241 695 264 666 311 666 c 0
 355 666 385 691 402 742 c 1
418 510 m 0
 445 496 464 474 473 444 c 0
 482 414 483 374 475 323 c 2
 424 0 l 1
 300 0 l 1
 310 66 l 1
 308 66 l 1
 286 41 260 22 231 10 c 0
 202 -4 170 -10 137 -10 c 0
 88 -10 52 4 28 33 c 0
 4 62 -4 100 3 147 c 0
 12 208 44 254 98 286 c 0
 152 319 224 335 314 335 c 2
 347 335 l 1
 350 359 350 377 347 390 c 0
 344 402 336 410 326 416 c 0
 314 420 298 423 275 423 c 0
 213 423 150 409 87 380 c 1
 73 481 l 1
 144 514 220 530 302 530 c 0
 351 530 390 523 418 510 c 0
252 108 m 0
 271 118 288 131 301 148 c 0
 314 164 322 181 325 200 c 2
 332 244 l 1
 299 244 l 2
 194 244 137 216 128 159 c 0
 125 139 129 123 140 112 c 0
 151 100 168 94 191 94 c 0
 212 94 233 99 252 108 c 0
EndSplineSet
EndChar

StartChar: uni1EB5
Encoding: 7861 7861 208
Width: 559
Flags: W
LayerCount: 2
Fore
SplineSet
418 510 m 0
 446 496 465 474 474 444 c 0
 483 414 484 374 476 323 c 2
 424 0 l 1
 301 0 l 1
 311 66 l 1
 309 66 l 1
 287 41 261 22 232 10 c 0
 202 -4 171 -10 138 -10 c 0
 89 -10 53 4 28 33 c 0
 4 62 -4 100 3 147 c 0
 12 208 44 254 98 286 c 0
 152 319 224 335 315 335 c 2
 348 335 l 1
 351 359 351 377 348 390 c 0
 345 402 338 410 326 416 c 0
 316 420 298 423 275 423 c 0
 213 423 150 409 87 380 c 1
 73 481 l 1
 144 514 220 530 302 530 c 0
 352 530 391 523 418 510 c 0
252 108 m 0
 272 118 289 131 302 148 c 0
 315 164 323 181 326 200 c 2
 333 244 l 1
 300 244 l 2
 194 244 137 216 128 159 c 0
 125 139 129 123 140 112 c 0
 151 100 169 94 192 94 c 0
 213 94 233 99 252 108 c 0
182 589 m 0
 153 605 131 627 117 656 c 0
 103 684 98 716 102 752 c 1
 233 752 l 1
 231 695 255 666 304 666 c 0
 353 666 385 695 401 752 c 1
 533 752 l 1
 526 716 511 684 488 656 c 0
 465 627 436 605 402 589 c 0
 366 573 329 565 288 565 c 0
 247 565 212 573 182 589 c 0
382 802 m 0
 364 808 342 820 318 836 c 0
 291 854 272 863 260 863 c 0
 250 863 242 858 237 850 c 0
 232 840 227 824 223 801 c 1
 110 801 l 1
 120 864 136 910 158 940 c 0
 179 970 208 985 243 985 c 0
 277 985 316 970 360 940 c 0
 387 922 406 913 419 913 c 0
 428 913 436 918 441 926 c 0
 446 936 451 952 455 975 c 1
 568 975 l 1
 558 912 542 865 521 836 c 0
 500 806 471 791 436 791 c 0
 419 791 402 794 382 802 c 0
EndSplineSet
EndChar

StartChar: acircumflex
Encoding: 226 226 209
Width: 559
Flags: W
LayerCount: 2
Fore
SplineSet
418 510 m 0
 446 496 465 474 474 444 c 0
 483 414 484 374 476 323 c 2
 424 0 l 1
 301 0 l 1
 311 66 l 1
 309 66 l 1
 287 41 261 22 232 10 c 0
 202 -4 171 -10 138 -10 c 0
 89 -10 53 4 28 33 c 0
 4 62 -4 100 3 147 c 0
 12 208 44 254 98 286 c 0
 152 319 224 335 315 335 c 2
 348 335 l 1
 351 359 351 377 348 390 c 0
 345 402 338 410 326 416 c 0
 316 420 298 423 275 423 c 0
 213 423 150 409 87 380 c 1
 73 481 l 1
 144 514 220 530 302 530 c 0
 352 530 391 523 418 510 c 0
252 108 m 0
 272 118 289 131 302 148 c 0
 315 164 323 181 326 200 c 2
 333 244 l 1
 300 244 l 2
 194 244 137 216 128 159 c 0
 125 139 129 123 140 112 c 0
 151 100 169 94 192 94 c 0
 213 94 233 99 252 108 c 0
211 770 m 1
 436 770 l 1
 523 560 l 1
 370 560 l 1
 316 713 l 1
 314 713 l 1
 211 560 l 1
 59 560 l 1
 211 770 l 1
EndSplineSet
EndChar

StartChar: uni1EA5
Encoding: 7845 7845 210
Width: 529
Flags: W
LayerCount: 2
Fore
SplineSet
533 740 m 1
 449 740 l 1
 519 560 l 1
 372 560 l 1
 320 713 l 1
 318 713 l 1
 218 560 l 1
 71 560 l 1
 219 770 l 1
 427 770 l 1
 522 950 l 1
 683 950 l 1
 533 740 l 1
418 510 m 0
 446 496 465 474 474 444 c 0
 483 414 484 374 476 323 c 2
 424 0 l 1
 301 0 l 1
 311 66 l 1
 309 66 l 1
 287 41 261 22 232 10 c 0
 202 -4 171 -10 138 -10 c 0
 89 -10 53 4 28 33 c 0
 4 62 -4 100 3 147 c 0
 12 208 44 254 98 286 c 0
 152 319 224 335 315 335 c 2
 348 335 l 1
 351 359 351 377 348 390 c 0
 345 402 338 410 326 416 c 0
 316 420 298 423 275 423 c 0
 213 423 150 409 87 380 c 1
 73 481 l 1
 144 514 220 530 302 530 c 0
 352 530 391 523 418 510 c 0
252 108 m 0
 272 118 289 131 302 148 c 0
 315 164 323 181 326 200 c 2
 333 244 l 1
 300 244 l 2
 194 244 137 216 128 159 c 0
 125 139 129 123 140 112 c 0
 151 100 169 94 192 94 c 0
 213 94 233 99 252 108 c 0
EndSplineSet
EndChar

StartChar: uni1EAD
Encoding: 7853 7853 211
Width: 559
Flags: W
LayerCount: 2
Fore
SplineSet
418 510 m 0
 446 496 465 474 474 444 c 0
 483 414 484 374 476 323 c 2
 424 0 l 1
 301 0 l 1
 311 66 l 1
 309 66 l 1
 287 41 261 22 232 10 c 0
 202 -4 171 -10 138 -10 c 0
 89 -10 53 4 28 33 c 0
 4 62 -4 100 3 147 c 0
 12 208 44 254 98 286 c 0
 152 319 224 335 315 335 c 2
 348 335 l 1
 351 359 351 377 348 390 c 0
 345 402 338 410 326 416 c 0
 316 420 298 423 275 423 c 0
 213 423 150 409 87 380 c 1
 73 481 l 1
 144 514 220 530 302 530 c 0
 352 530 391 523 418 510 c 0
252 108 m 0
 272 118 289 131 302 148 c 0
 315 164 323 181 326 200 c 2
 333 244 l 1
 300 244 l 2
 194 244 137 216 128 159 c 0
 125 139 129 123 140 112 c 0
 151 100 169 94 192 94 c 0
 213 94 233 99 252 108 c 0
153 -71 m 1
 298 -71 l 1
 274 -219 l 1
 129 -219 l 1
 153 -71 l 1
211 770 m 1
 436 770 l 1
 523 560 l 1
 370 560 l 1
 316 713 l 1
 314 713 l 1
 211 560 l 1
 59 560 l 1
 211 770 l 1
EndSplineSet
EndChar

StartChar: uni1EA7
Encoding: 7847 7847 212
Width: 529
Flags: W
LayerCount: 2
Fore
SplineSet
203 740 m 1
 117 740 l 1
 34 950 l 1
 194 950 l 1
 233 770 l 1
 441 770 l 1
 523 560 l 1
 376 560 l 1
 324 713 l 1
 322 713 l 1
 222 560 l 1
 75 560 l 1
 203 740 l 1
423 510 m 0
 451 496 470 474 478 444 c 0
 488 414 488 374 480 323 c 2
 429 0 l 1
 305 0 l 1
 315 66 l 1
 313 66 l 1
 291 41 265 22 236 10 c 0
 206 -4 175 -10 142 -10 c 0
 93 -10 57 4 32 33 c 0
 8 62 0 100 7 147 c 0
 16 208 48 254 102 286 c 0
 157 319 229 335 319 335 c 2
 352 335 l 1
 355 359 355 377 352 390 c 0
 349 402 342 410 330 416 c 0
 320 420 303 423 280 423 c 0
 218 423 155 409 91 380 c 1
 77 481 l 1
 148 514 224 530 307 530 c 0
 356 530 395 523 423 510 c 0
256 108 m 0
 276 118 293 131 306 148 c 0
 319 164 328 181 331 200 c 2
 337 244 l 1
 304 244 l 2
 198 244 141 216 132 159 c 0
 129 139 133 123 144 112 c 0
 156 100 173 94 196 94 c 0
 217 94 237 99 256 108 c 0
EndSplineSet
EndChar

StartChar: uni1EA9
Encoding: 7849 7849 213
Width: 525
Flags: W
LayerCount: 2
Fore
SplineSet
449 738 m 1
 519 560 l 1
 372 560 l 1
 320 713 l 1
 318 713 l 1
 218 560 l 1
 71 560 l 1
 219 770 l 1
 425 770 l 1
 430 786 433 797 434 802 c 0
 436 816 433 825 426 830 c 0
 419 835 404 837 382 837 c 0
 339 837 295 830 251 817 c 1
 256 920 l 1
 307 932 363 938 422 938 c 0
 465 938 497 936 519 930 c 0
 541 926 556 917 564 904 c 0
 571 892 573 874 570 851 c 0
 567 834 562 816 555 794 c 0
 548 774 540 755 531 738 c 1
 449 738 l 1
418 510 m 0
 446 496 465 474 474 444 c 0
 483 414 484 374 476 323 c 2
 424 0 l 1
 301 0 l 1
 311 66 l 1
 309 66 l 1
 287 41 261 22 232 10 c 0
 202 -4 171 -10 138 -10 c 0
 89 -10 53 4 28 33 c 0
 4 62 -4 100 3 147 c 0
 12 208 44 254 98 286 c 0
 152 319 224 335 315 335 c 2
 348 335 l 1
 351 359 351 377 348 390 c 0
 345 402 338 410 326 416 c 0
 316 420 298 423 275 423 c 0
 213 423 150 409 87 380 c 1
 73 481 l 1
 144 514 220 530 302 530 c 0
 352 530 391 523 418 510 c 0
252 108 m 0
 272 118 289 131 302 148 c 0
 315 164 323 181 326 200 c 2
 333 244 l 1
 300 244 l 2
 194 244 137 216 128 159 c 0
 125 139 129 123 140 112 c 0
 151 100 169 94 192 94 c 0
 213 94 233 99 252 108 c 0
EndSplineSet
EndChar

StartChar: uni1EAB
Encoding: 7851 7851 214
Width: 559
Flags: W
LayerCount: 2
Fore
SplineSet
418 510 m 0
 446 496 465 474 474 444 c 0
 483 414 484 374 476 323 c 2
 424 0 l 1
 301 0 l 1
 311 66 l 1
 309 66 l 1
 287 41 261 22 232 10 c 0
 202 -4 171 -10 138 -10 c 0
 89 -10 53 4 28 33 c 0
 4 62 -4 100 3 147 c 0
 12 208 44 254 98 286 c 0
 152 319 224 335 315 335 c 2
 348 335 l 1
 351 359 351 377 348 390 c 0
 345 402 338 410 326 416 c 0
 316 420 298 423 275 423 c 0
 213 423 150 409 87 380 c 1
 73 481 l 1
 144 514 220 530 302 530 c 0
 352 530 391 523 418 510 c 0
252 108 m 0
 272 118 289 131 302 148 c 0
 315 164 323 181 326 200 c 2
 333 244 l 1
 300 244 l 2
 194 244 137 216 128 159 c 0
 125 139 129 123 140 112 c 0
 151 100 169 94 192 94 c 0
 213 94 233 99 252 108 c 0
211 770 m 1
 436 770 l 1
 523 560 l 1
 370 560 l 1
 316 713 l 1
 314 713 l 1
 211 560 l 1
 59 560 l 1
 211 770 l 1
382 802 m 0
 364 808 342 820 318 836 c 0
 291 854 272 863 260 863 c 0
 250 863 242 858 237 850 c 0
 232 840 227 824 223 801 c 1
 110 801 l 1
 120 864 136 910 158 940 c 0
 179 970 208 985 243 985 c 0
 277 985 316 970 360 940 c 0
 387 922 406 913 419 913 c 0
 428 913 436 918 441 926 c 0
 446 936 451 952 455 975 c 1
 568 975 l 1
 558 912 542 865 521 836 c 0
 500 806 471 791 436 791 c 0
 419 791 402 794 382 802 c 0
EndSplineSet
EndChar

StartChar: uni0201
Encoding: 513 513 215
Width: 559
Flags: W
LayerCount: 2
Fore
SplineSet
418 510 m 0
 446 496 465 474 474 444 c 0
 483 414 484 374 476 323 c 2
 424 0 l 1
 301 0 l 1
 311 66 l 1
 309 66 l 1
 287 41 261 22 232 10 c 0
 202 -4 171 -10 138 -10 c 0
 89 -10 53 4 28 33 c 0
 4 62 -4 100 3 147 c 0
 12 208 44 254 98 286 c 0
 152 319 224 335 315 335 c 2
 348 335 l 1
 351 359 351 377 348 390 c 0
 345 402 338 410 326 416 c 0
 316 420 298 423 275 423 c 0
 213 423 150 409 87 380 c 1
 73 481 l 1
 144 514 220 530 302 530 c 0
 352 530 391 523 418 510 c 0
252 108 m 0
 272 118 289 131 302 148 c 0
 315 164 323 181 326 200 c 2
 333 244 l 1
 300 244 l 2
 194 244 137 216 128 159 c 0
 125 139 129 123 140 112 c 0
 151 100 169 94 192 94 c 0
 213 94 233 99 252 108 c 0
43 770 m 1
 210 770 l 1
 258 560 l 1
 130 560 l 1
 43 770 l 1
278 770 m 1
 445 770 l 1
 493 560 l 1
 366 560 l 1
 278 770 l 1
EndSplineSet
EndChar

StartChar: adieresis
Encoding: 228 228 216
Width: 559
Flags: W
LayerCount: 2
Fore
SplineSet
418 510 m 0
 446 496 465 474 474 444 c 0
 483 414 484 374 476 323 c 2
 424 0 l 1
 301 0 l 1
 311 66 l 1
 309 66 l 1
 287 41 261 22 232 10 c 0
 202 -4 171 -10 138 -10 c 0
 89 -10 53 4 28 33 c 0
 4 62 -4 100 3 147 c 0
 12 208 44 254 98 286 c 0
 152 319 224 335 315 335 c 2
 348 335 l 1
 351 359 351 377 348 390 c 0
 345 402 338 410 326 416 c 0
 316 420 298 423 275 423 c 0
 213 423 150 409 87 380 c 1
 73 481 l 1
 144 514 220 530 302 530 c 0
 352 530 391 523 418 510 c 0
252 108 m 0
 272 118 289 131 302 148 c 0
 315 164 323 181 326 200 c 2
 333 244 l 1
 300 244 l 2
 194 244 137 216 128 159 c 0
 125 139 129 123 140 112 c 0
 151 100 169 94 192 94 c 0
 213 94 233 99 252 108 c 0
114 739 m 1
 259 739 l 1
 236 591 l 1
 91 591 l 1
 114 739 l 1
369 739 m 1
 513 739 l 1
 490 591 l 1
 345 591 l 1
 369 739 l 1
EndSplineSet
EndChar

StartChar: uni1EA1
Encoding: 7841 7841 217
Width: 559
Flags: W
LayerCount: 2
Fore
SplineSet
418 510 m 0
 446 496 465 474 474 444 c 0
 483 414 484 374 476 323 c 2
 424 0 l 1
 301 0 l 1
 311 66 l 1
 309 66 l 1
 287 41 261 22 232 10 c 0
 202 -4 171 -10 138 -10 c 0
 89 -10 53 4 28 33 c 0
 4 62 -4 100 3 147 c 0
 12 208 44 254 98 286 c 0
 152 319 224 335 315 335 c 2
 348 335 l 1
 351 359 351 377 348 390 c 0
 345 402 338 410 326 416 c 0
 316 420 298 423 275 423 c 0
 213 423 150 409 87 380 c 1
 73 481 l 1
 144 514 220 530 302 530 c 0
 352 530 391 523 418 510 c 0
252 108 m 0
 272 118 289 131 302 148 c 0
 315 164 323 181 326 200 c 2
 333 244 l 1
 300 244 l 2
 194 244 137 216 128 159 c 0
 125 139 129 123 140 112 c 0
 151 100 169 94 192 94 c 0
 213 94 233 99 252 108 c 0
153 -71 m 1
 298 -71 l 1
 274 -219 l 1
 129 -219 l 1
 153 -71 l 1
EndSplineSet
EndChar

StartChar: agrave
Encoding: 224 224 218
Width: 559
Flags: W
LayerCount: 2
Fore
SplineSet
418 510 m 0
 446 496 465 474 474 444 c 0
 483 414 484 374 476 323 c 2
 424 0 l 1
 301 0 l 1
 311 66 l 1
 309 66 l 1
 287 41 261 22 232 10 c 0
 202 -4 171 -10 138 -10 c 0
 89 -10 53 4 28 33 c 0
 4 62 -4 100 3 147 c 0
 12 208 44 254 98 286 c 0
 152 319 224 335 315 335 c 2
 348 335 l 1
 351 359 351 377 348 390 c 0
 345 402 338 410 326 416 c 0
 316 420 298 423 275 423 c 0
 213 423 150 409 87 380 c 1
 73 481 l 1
 144 514 220 530 302 530 c 0
 352 530 391 523 418 510 c 0
252 108 m 0
 272 118 289 131 302 148 c 0
 315 164 323 181 326 200 c 2
 333 244 l 1
 300 244 l 2
 194 244 137 216 128 159 c 0
 125 139 129 123 140 112 c 0
 151 100 169 94 192 94 c 0
 213 94 233 99 252 108 c 0
162 770 m 1
 328 770 l 1
 376 560 l 1
 249 560 l 1
 162 770 l 1
EndSplineSet
EndChar

StartChar: uni1EA3
Encoding: 7843 7843 219
Width: 559
Flags: W
LayerCount: 2
Fore
SplineSet
418 510 m 0
 446 496 465 474 474 444 c 0
 483 414 484 374 476 323 c 2
 424 0 l 1
 301 0 l 1
 311 66 l 1
 309 66 l 1
 287 41 261 22 232 10 c 0
 202 -4 171 -10 138 -10 c 0
 89 -10 53 4 28 33 c 0
 4 62 -4 100 3 147 c 0
 12 208 44 254 98 286 c 0
 152 319 224 335 315 335 c 2
 348 335 l 1
 351 359 351 377 348 390 c 0
 345 402 338 410 326 416 c 0
 316 420 298 423 275 423 c 0
 213 423 150 409 87 380 c 1
 73 481 l 1
 144 514 220 530 302 530 c 0
 352 530 391 523 418 510 c 0
252 108 m 0
 272 118 289 131 302 148 c 0
 315 164 323 181 326 200 c 2
 333 244 l 1
 300 244 l 2
 194 244 137 216 128 159 c 0
 125 139 129 123 140 112 c 0
 151 100 169 94 192 94 c 0
 213 94 233 99 252 108 c 0
387 639 m 0
 389 653 386 662 378 667 c 0
 371 672 356 674 333 674 c 0
 288 674 244 667 199 654 c 1
 203 757 l 1
 256 769 313 775 375 775 c 0
 420 775 453 772 476 768 c 0
 498 762 513 754 522 742 c 0
 530 729 532 711 528 688 c 0
 525 671 520 652 514 632 c 0
 506 610 498 592 489 575 c 1
 365 575 l 1
 377 602 384 623 387 639 c 0
EndSplineSet
EndChar

StartChar: uni0203
Encoding: 515 515 220
Width: 559
Flags: W
LayerCount: 2
Fore
SplineSet
418 510 m 0
 446 496 465 474 474 444 c 0
 483 414 484 374 476 323 c 2
 424 0 l 1
 301 0 l 1
 311 66 l 1
 309 66 l 1
 287 41 261 22 232 10 c 0
 202 -4 171 -10 138 -10 c 0
 89 -10 53 4 28 33 c 0
 4 62 -4 100 3 147 c 0
 12 208 44 254 98 286 c 0
 152 319 224 335 315 335 c 2
 348 335 l 1
 351 359 351 377 348 390 c 0
 345 402 338 410 326 416 c 0
 316 420 298 423 275 423 c 0
 213 423 150 409 87 380 c 1
 73 481 l 1
 144 514 220 530 302 530 c 0
 352 530 391 523 418 510 c 0
252 108 m 0
 272 118 289 131 302 148 c 0
 315 164 323 181 326 200 c 2
 333 244 l 1
 300 244 l 2
 194 244 137 216 128 159 c 0
 125 139 129 123 140 112 c 0
 151 100 169 94 192 94 c 0
 213 94 233 99 252 108 c 0
426 741 m 0
 455 725 477 703 491 674 c 0
 505 646 510 614 506 578 c 1
 373 578 l 1
 375 635 352 664 304 664 c 0
 255 664 222 635 206 578 c 1
 75 578 l 1
 82 614 97 646 120 674 c 0
 143 703 172 725 206 741 c 0
 242 757 279 765 320 765 c 0
 361 765 396 757 426 741 c 0
EndSplineSet
EndChar

StartChar: amacron
Encoding: 257 257 221
Width: 559
Flags: W
LayerCount: 2
Fore
SplineSet
418 510 m 0
 446 496 465 474 474 444 c 0
 483 414 484 374 476 323 c 2
 424 0 l 1
 301 0 l 1
 311 66 l 1
 309 66 l 1
 287 41 261 22 232 10 c 0
 202 -4 171 -10 138 -10 c 0
 89 -10 53 4 28 33 c 0
 4 62 -4 100 3 147 c 0
 12 208 44 254 98 286 c 0
 152 319 224 335 315 335 c 2
 348 335 l 1
 351 359 351 377 348 390 c 0
 345 402 338 410 326 416 c 0
 316 420 298 423 275 423 c 0
 213 423 150 409 87 380 c 1
 73 481 l 1
 144 514 220 530 302 530 c 0
 352 530 391 523 418 510 c 0
252 108 m 0
 272 118 289 131 302 148 c 0
 315 164 323 181 326 200 c 2
 333 244 l 1
 300 244 l 2
 194 244 137 216 128 159 c 0
 125 139 129 123 140 112 c 0
 151 100 169 94 192 94 c 0
 213 94 233 99 252 108 c 0
116 717 m 1
 501 717 l 1
 484 613 l 1
 100 613 l 1
 116 717 l 1
EndSplineSet
EndChar

StartChar: aogonek
Encoding: 261 261 222
Width: 527
Flags: W
LayerCount: 2
Fore
SplineSet
478 -197 m 1
 443 -211 405 -218 363 -218 c 0
 309 -218 269 -208 243 -188 c 0
 217 -167 207 -139 213 -102 c 0
 216 -79 226 -58 240 -36 c 0
 256 -16 277 6 305 27 c 1
 310 66 l 1
 308 66 l 1
 286 41 260 22 231 10 c 0
 202 -4 171 -10 138 -10 c 0
 89 -10 53 4 28 33 c 0
 4 62 -4 100 3 147 c 0
 12 208 44 254 98 286 c 0
 152 319 224 335 314 335 c 2
 347 335 l 1
 350 359 350 377 347 390 c 0
 344 402 336 410 326 416 c 0
 314 420 298 423 275 423 c 0
 213 423 150 409 87 380 c 1
 73 481 l 1
 144 514 220 530 302 530 c 0
 351 530 390 523 418 510 c 0
 446 496 464 474 474 444 c 0
 482 414 483 374 475 323 c 2
 424 0 l 1
 369 -29 339 -56 335 -81 c 0
 333 -92 337 -101 346 -106 c 0
 355 -112 370 -115 389 -115 c 0
 418 -115 448 -109 479 -96 c 1
 478 -197 l 1
252 108 m 0
 271 118 288 131 301 148 c 0
 314 164 323 181 326 200 c 2
 333 244 l 1
 299 244 l 2
 194 244 137 216 128 159 c 0
 125 139 129 123 140 112 c 0
 151 100 168 94 191 94 c 0
 212 94 233 99 252 108 c 0
EndSplineSet
EndChar

StartChar: aring
Encoding: 229 229 223
Width: 524
Flags: W
LayerCount: 2
Fore
SplineSet
464 468 m 0
 481 436 485 388 475 323 c 2
 424 0 l 1
 300 0 l 1
 310 66 l 1
 308 66 l 1
 286 41 260 22 231 10 c 0
 202 -4 170 -10 137 -10 c 0
 88 -10 52 4 28 33 c 0
 4 62 -4 100 3 147 c 0
 12 208 44 254 98 286 c 0
 152 319 224 335 314 335 c 2
 347 335 l 1
 350 359 350 377 347 390 c 0
 344 402 336 410 326 416 c 0
 314 420 298 423 275 423 c 0
 213 423 150 409 87 380 c 1
 73 481 l 1
 120 502 170 517 223 525 c 1
 200 538 184 556 173 582 c 0
 162 606 159 634 164 665 c 0
 169 694 180 720 196 744 c 0
 214 768 234 787 259 801 c 0
 284 815 309 822 336 822 c 0
 363 822 387 815 408 801 c 0
 428 787 443 768 452 744 c 0
 461 720 464 694 459 665 c 0
 454 636 443 609 425 584 c 0
 407 559 385 540 359 526 c 1
 411 519 446 500 464 468 c 0
275 711 m 0
 261 698 252 683 249 665 c 0
 246 647 250 632 260 619 c 0
 270 606 284 600 301 600 c 0
 319 600 335 606 348 619 c 0
 362 632 370 647 373 665 c 0
 376 683 372 698 362 711 c 0
 353 724 339 730 321 730 c 0
 304 730 289 724 275 711 c 0
252 108 m 0
 271 118 288 131 301 148 c 0
 314 164 323 181 326 200 c 2
 333 244 l 1
 299 244 l 2
 194 244 137 216 128 159 c 0
 125 139 129 123 140 112 c 0
 151 100 168 94 191 94 c 0
 212 94 233 99 252 108 c 0
EndSplineSet
EndChar

StartChar: aringacute
Encoding: 507 507 224
Width: 524
Flags: W
LayerCount: 2
Fore
SplineSet
464 468 m 0
 481 436 485 388 475 323 c 2
 424 0 l 1
 300 0 l 1
 310 66 l 1
 308 66 l 1
 286 41 260 22 231 10 c 0
 202 -4 170 -10 137 -10 c 0
 88 -10 52 4 28 33 c 0
 4 62 -4 100 3 147 c 0
 12 208 44 254 98 286 c 0
 152 319 224 335 314 335 c 2
 347 335 l 1
 350 359 350 377 347 390 c 0
 344 402 336 410 326 416 c 0
 314 420 298 423 275 423 c 0
 213 423 150 409 87 380 c 1
 73 481 l 1
 120 502 170 517 223 525 c 1
 200 538 184 556 173 582 c 0
 162 606 159 634 164 665 c 0
 168 688 176 710 188 731 c 0
 200 752 215 769 233 783 c 1
 341 987 l 1
 502 987 l 1
 380 815 l 1
 409 805 431 786 446 759 c 0
 461 732 465 700 459 665 c 0
 454 636 443 609 425 584 c 0
 407 559 385 540 359 526 c 1
 411 519 446 500 464 468 c 0
348 619 m 0
 362 632 370 647 373 665 c 0
 376 683 372 698 362 711 c 0
 353 724 339 730 321 730 c 0
 304 730 288 724 274 711 c 0
 261 698 252 683 249 665 c 0
 246 647 250 632 260 619 c 0
 270 606 284 600 301 600 c 0
 318 600 334 606 348 619 c 0
252 108 m 0
 271 118 288 131 301 148 c 0
 314 164 323 181 326 200 c 2
 333 244 l 1
 299 244 l 2
 194 244 137 216 128 159 c 0
 125 139 129 123 140 112 c 0
 151 100 168 94 191 94 c 0
 212 94 233 99 252 108 c 0
EndSplineSet
EndChar

StartChar: atilde
Encoding: 227 227 225
Width: 559
Flags: W
LayerCount: 2
Fore
SplineSet
418 510 m 0
 446 496 465 474 474 444 c 0
 483 414 484 374 476 323 c 2
 424 0 l 1
 301 0 l 1
 311 66 l 1
 309 66 l 1
 287 41 261 22 232 10 c 0
 202 -4 171 -10 138 -10 c 0
 89 -10 53 4 28 33 c 0
 4 62 -4 100 3 147 c 0
 12 208 44 254 98 286 c 0
 152 319 224 335 315 335 c 2
 348 335 l 1
 351 359 351 377 348 390 c 0
 345 402 338 410 326 416 c 0
 316 420 298 423 275 423 c 0
 213 423 150 409 87 380 c 1
 73 481 l 1
 144 514 220 530 302 530 c 0
 352 530 391 523 418 510 c 0
252 108 m 0
 272 118 289 131 302 148 c 0
 315 164 323 181 326 200 c 2
 333 244 l 1
 300 244 l 2
 194 244 137 216 128 159 c 0
 125 139 129 123 140 112 c 0
 151 100 169 94 192 94 c 0
 213 94 233 99 252 108 c 0
348 578 m 0
 328 586 307 597 283 613 c 0
 256 631 237 640 225 640 c 0
 215 640 207 636 202 626 c 0
 197 618 192 601 188 578 c 1
 75 578 l 1
 85 641 101 687 122 717 c 0
 144 747 173 762 208 762 c 0
 242 762 281 747 325 717 c 0
 352 699 371 690 384 690 c 0
 393 690 401 694 406 704 c 0
 411 712 416 729 420 752 c 1
 533 752 l 1
 523 689 507 642 486 612 c 0
 465 583 436 568 401 568 c 0
 384 568 366 572 348 578 c 0
EndSplineSet
EndChar

StartChar: ae
Encoding: 230 230 226
Width: 842
Flags: W
LayerCount: 2
Fore
SplineSet
800 210 m 1
 455 210 l 1
 452 171 461 142 482 123 c 0
 503 104 536 95 581 95 c 0
 606 95 632 98 658 103 c 0
 684 108 708 116 730 126 c 1
 738 27 l 1
 711 16 682 7 651 0 c 0
 620 -7 588 -10 557 -10 c 0
 469 -10 406 15 368 65 c 1
 317 15 250 -10 168 -10 c 0
 107 -10 62 4 34 30 c 0
 5 58 -5 96 3 147 c 0
 12 208 44 254 98 286 c 0
 152 319 224 335 315 335 c 2
 348 335 l 1
 351 359 351 377 348 390 c 0
 345 402 338 410 326 416 c 0
 316 420 298 423 275 423 c 0
 213 423 150 409 87 380 c 1
 73 481 l 1
 144 514 220 530 303 530 c 0
 342 530 373 526 398 518 c 0
 423 509 441 496 454 478 c 1
 500 513 555 530 620 530 c 0
 695 530 748 507 781 461 c 0
 814 415 823 349 810 263 c 0
 807 244 804 226 800 210 c 1
518 400 m 0
 497 379 481 348 470 305 c 1
 694 305 l 1
 698 348 693 380 678 400 c 0
 663 420 639 430 604 430 c 0
 569 430 540 420 518 400 c 0
252 108 m 0
 272 118 289 131 302 148 c 0
 315 164 323 181 326 200 c 2
 333 244 l 1
 300 244 l 2
 194 244 137 216 128 159 c 0
 125 139 129 123 140 112 c 0
 151 100 169 94 192 94 c 0
 213 94 233 99 252 108 c 0
EndSplineSet
EndChar

StartChar: aeacute
Encoding: 509 509 227
Width: 892
Flags: W
LayerCount: 2
Fore
SplineSet
800 210 m 1
 455 210 l 1
 452 171 461 142 482 123 c 0
 503 104 536 95 581 95 c 0
 606 95 632 98 658 103 c 0
 684 108 708 116 730 126 c 1
 738 27 l 1
 711 16 682 7 651 0 c 0
 620 -7 588 -10 557 -10 c 0
 469 -10 406 15 368 65 c 1
 317 15 250 -10 168 -10 c 0
 107 -10 62 4 34 30 c 0
 5 58 -5 96 3 147 c 0
 12 208 44 254 98 286 c 0
 152 319 224 335 315 335 c 2
 348 335 l 1
 351 359 351 377 348 390 c 0
 345 402 338 410 326 416 c 0
 316 420 298 423 275 423 c 0
 213 423 150 409 87 380 c 1
 73 481 l 1
 144 514 220 530 303 530 c 0
 342 530 373 526 398 518 c 0
 423 509 441 496 454 478 c 1
 500 513 555 530 620 530 c 0
 695 530 748 507 781 461 c 0
 814 415 823 349 810 263 c 0
 807 244 804 226 800 210 c 1
518 400 m 0
 497 379 481 348 470 305 c 1
 694 305 l 1
 698 348 693 380 678 400 c 0
 663 420 639 430 604 430 c 0
 569 430 540 420 518 400 c 0
252 108 m 0
 272 118 289 131 302 148 c 0
 315 164 323 181 326 200 c 2
 333 244 l 1
 300 244 l 2
 194 244 137 216 128 159 c 0
 125 139 129 123 140 112 c 0
 151 100 169 94 192 94 c 0
 213 94 233 99 252 108 c 0
539 560 m 1
 412 560 l 1
 526 770 l 1
 693 770 l 1
 539 560 l 1
EndSplineSet
EndChar

StartChar: b
Encoding: 98 98 228
Width: 571
Flags: W
LayerCount: 2
Fore
SplineSet
517 460 m 0
 542 414 548 347 534 260 c 0
 520 173 493 106 454 60 c 0
 414 13 363 -10 302 -10 c 0
 270 -10 241 -3 216 10 c 0
 190 23 169 42 153 67 c 1
 152 67 l 1
 139 0 l 1
 17 0 l 1
 136 750 l 1
 264 750 l 1
 217 453 l 1
 219 453 l 1
 242 478 267 498 296 510 c 0
 325 524 355 530 388 530 c 0
 449 530 492 507 517 460 c 0
360 142 m 0
 383 171 398 210 406 260 c 0
 414 310 411 349 398 378 c 0
 384 406 360 420 327 420 c 0
 294 420 265 407 239 380 c 0
 213 353 197 320 190 279 c 2
 184 241 l 2
 177 200 183 167 200 140 c 0
 218 113 243 100 276 100 c 0
 309 100 337 114 360 142 c 0
EndSplineSet
EndChar

StartChar: c
Encoding: 99 99 229
Width: 505
Flags: W
LayerCount: 2
Fore
SplineSet
66 60 m 0
 26 108 14 174 27 260 c 0
 40 346 74 412 128 460 c 0
 182 506 251 530 336 530 c 0
 396 530 447 517 490 491 c 1
 440 393 l 1
 403 413 365 423 326 423 c 0
 280 423 242 409 214 382 c 0
 184 354 166 313 158 260 c 0
 149 207 155 166 175 138 c 0
 195 111 228 97 274 97 c 0
 313 97 354 107 398 127 c 1
 417 29 l 1
 366 3 311 -10 250 -10 c 0
 166 -10 104 14 66 60 c 0
EndSplineSet
EndChar

StartChar: cacute
Encoding: 263 263 230
Width: 537
Flags: W
LayerCount: 2
Fore
SplineSet
66 60 m 0
 26 108 14 174 27 260 c 0
 40 346 74 412 128 460 c 0
 182 506 251 530 336 530 c 0
 396 530 447 517 490 491 c 1
 440 393 l 1
 403 413 365 423 326 423 c 0
 280 423 242 409 214 382 c 0
 184 354 166 313 158 260 c 0
 149 207 155 166 175 138 c 0
 195 111 228 97 274 97 c 0
 313 97 354 107 398 127 c 1
 417 29 l 1
 366 3 311 -10 250 -10 c 0
 166 -10 104 14 66 60 c 0
376 560 m 1
 249 560 l 1
 363 770 l 1
 530 770 l 1
 376 560 l 1
EndSplineSet
EndChar

StartChar: ccaron
Encoding: 269 269 231
Width: 537
Flags: W
LayerCount: 2
Fore
SplineSet
66 60 m 0
 26 108 14 174 27 260 c 0
 40 346 74 412 128 460 c 0
 182 506 251 530 336 530 c 0
 396 530 447 517 490 491 c 1
 440 393 l 1
 403 413 365 423 326 423 c 0
 280 423 242 409 214 382 c 0
 184 354 166 313 158 260 c 0
 149 207 155 166 175 138 c 0
 195 111 228 97 274 97 c 0
 313 97 354 107 398 127 c 1
 417 29 l 1
 366 3 311 -10 250 -10 c 0
 166 -10 104 14 66 60 c 0
110 770 m 1
 263 770 l 1
 317 617 l 1
 319 617 l 1
 422 770 l 1
 574 770 l 1
 421 560 l 1
 196 560 l 1
 110 770 l 1
EndSplineSet
EndChar

StartChar: ccedilla
Encoding: 231 231 232
Width: 504
Flags: W
LayerCount: 2
Fore
SplineSet
415 29 m 1
 387 15 359 5 331 -1 c 1
 354 -34 363 -68 358 -102 c 0
 352 -139 333 -167 300 -188 c 0
 267 -208 224 -218 170 -218 c 0
 129 -218 93 -211 62 -197 c 1
 93 -96 l 1
 120 -109 148 -115 177 -115 c 0
 196 -115 212 -112 223 -106 c 0
 234 -101 241 -92 242 -81 c 0
 246 -57 227 -32 185 -5 c 1
 122 6 78 35 50 80 c 0
 24 126 16 186 27 260 c 0
 40 346 74 412 128 460 c 0
 182 506 251 530 335 530 c 0
 395 530 446 517 489 491 c 1
 439 393 l 1
 402 413 364 423 325 423 c 0
 279 423 242 409 213 382 c 0
 184 354 166 313 158 260 c 0
 149 207 155 166 175 138 c 0
 195 111 228 97 274 97 c 0
 313 97 354 107 397 127 c 1
 415 29 l 1
EndSplineSet
EndChar

StartChar: ccircumflex
Encoding: 265 265 233
Width: 537
Flags: W
LayerCount: 2
Fore
SplineSet
66 60 m 0
 26 108 14 174 27 260 c 0
 40 346 74 412 128 460 c 0
 182 506 251 530 336 530 c 0
 396 530 447 517 490 491 c 1
 440 393 l 1
 403 413 365 423 326 423 c 0
 280 423 242 409 214 382 c 0
 184 354 166 313 158 260 c 0
 149 207 155 166 175 138 c 0
 195 111 228 97 274 97 c 0
 313 97 354 107 398 127 c 1
 417 29 l 1
 366 3 311 -10 250 -10 c 0
 166 -10 104 14 66 60 c 0
229 770 m 1
 454 770 l 1
 541 560 l 1
 388 560 l 1
 334 713 l 1
 332 713 l 1
 229 560 l 1
 77 560 l 1
 229 770 l 1
EndSplineSet
EndChar

StartChar: cdotaccent
Encoding: 267 267 234
Width: 537
Flags: W
LayerCount: 2
Fore
SplineSet
66 60 m 0
 26 108 14 174 27 260 c 0
 40 346 74 412 128 460 c 0
 182 506 251 530 336 530 c 0
 396 530 447 517 490 491 c 1
 440 393 l 1
 403 413 365 423 326 423 c 0
 280 423 242 409 214 382 c 0
 184 354 166 313 158 260 c 0
 149 207 155 166 175 138 c 0
 195 111 228 97 274 97 c 0
 313 97 354 107 398 127 c 1
 417 29 l 1
 366 3 311 -10 250 -10 c 0
 166 -10 104 14 66 60 c 0
299 739 m 1
 444 739 l 1
 420 591 l 1
 275 591 l 1
 299 739 l 1
EndSplineSet
EndChar

StartChar: d
Encoding: 100 100 235
Width: 572
Flags: W
LayerCount: 2
Fore
SplineSet
584 750 m 1
 466 0 l 1
 343 0 l 1
 352 67 l 1
 350 67 l 1
 326 42 299 22 270 10 c 0
 240 -4 209 -10 176 -10 c 0
 115 -10 72 13 48 60 c 0
 22 107 17 173 31 260 c 0
 45 347 72 413 112 460 c 0
 151 507 201 530 262 530 c 0
 294 530 322 524 346 510 c 0
 371 498 391 478 406 453 c 1
 408 453 l 1
 455 750 l 1
 584 750 l 1
325 140 m 0
 351 167 367 200 374 241 c 2
 380 279 l 2
 387 320 381 353 364 380 c 0
 346 407 320 420 287 420 c 0
 255 420 228 406 204 378 c 0
 182 349 166 310 159 260 c 0
 151 210 154 171 168 142 c 0
 181 114 204 100 237 100 c 0
 270 100 299 113 325 140 c 0
EndSplineSet
EndChar

StartChar: eth
Encoding: 240 240 236
Width: 566
Flags: W
LayerCount: 2
Fore
SplineSet
481 616 m 1
 505 571 521 519 528 460 c 0
 535 402 534 338 523 269 c 0
 508 178 476 108 427 61 c 0
 378 14 313 -10 232 -10 c 0
 155 -10 98 13 61 58 c 0
 24 103 12 166 25 245 c 0
 37 319 66 377 113 418 c 0
 160 459 219 480 291 480 c 0
 340 480 376 469 400 446 c 1
 402 447 l 1
 399 494 386 535 363 570 c 1
 142 483 l 1
 119 582 l 1
 284 647 l 1
 249 669 208 682 163 687 c 1
 205 790 l 1
 290 781 361 751 416 699 c 1
 562 757 l 1
 586 658 l 1
 481 616 l 1
342 134 m 0
 367 159 383 196 391 245 c 0
 398 292 394 328 378 350 c 0
 362 374 334 385 294 385 c 0
 254 385 222 374 200 350 c 0
 176 328 161 292 154 245 c 0
 146 196 150 159 166 134 c 0
 183 108 210 95 248 95 c 0
 287 95 318 108 342 134 c 0
EndSplineSet
EndChar

StartChar: dcaron
Encoding: 271 271 237
Width: 827
Flags: W
LayerCount: 2
Fore
SplineSet
584 750 m 1
 466 0 l 1
 343 0 l 1
 352 67 l 1
 350 67 l 1
 326 42 299 22 270 10 c 0
 240 -4 209 -10 176 -10 c 0
 115 -10 72 13 48 60 c 0
 22 107 17 173 31 260 c 0
 45 347 72 413 112 460 c 0
 151 507 201 530 262 530 c 0
 294 530 322 524 346 510 c 0
 371 498 391 478 406 453 c 1
 408 453 l 1
 455 750 l 1
 584 750 l 1
325 140 m 0
 351 167 367 200 374 241 c 2
 380 279 l 2
 387 320 381 353 364 380 c 0
 346 407 320 420 287 420 c 0
 255 420 228 406 204 378 c 0
 182 349 166 310 159 260 c 0
 151 210 154 171 168 142 c 0
 181 114 204 100 237 100 c 0
 270 100 299 113 325 140 c 0
728 770 m 1
 881 770 l 1
 719 470 l 1
 605 470 l 1
 728 770 l 1
EndSplineSet
EndChar

StartChar: dcroat
Encoding: 273 273 238
Width: 635
Flags: W
LayerCount: 2
Fore
SplineSet
657 572 m 1
 556 572 l 1
 466 0 l 1
 343 0 l 1
 352 67 l 1
 350 67 l 1
 326 42 299 22 270 10 c 0
 240 -4 209 -10 176 -10 c 0
 115 -10 72 13 48 60 c 0
 22 107 17 173 31 260 c 0
 45 347 72 413 112 460 c 0
 151 507 201 530 262 530 c 0
 294 530 322 524 346 510 c 0
 371 498 391 478 406 453 c 1
 408 453 l 1
 427 572 l 1
 259 572 l 1
 276 678 l 1
 443 678 l 1
 455 750 l 1
 584 750 l 1
 573 678 l 1
 674 678 l 1
 657 572 l 1
325 140 m 0
 351 167 367 200 374 241 c 2
 380 279 l 2
 387 320 381 353 364 380 c 0
 346 407 320 420 287 420 c 0
 255 420 228 406 204 378 c 0
 182 349 166 310 159 260 c 0
 151 210 154 171 168 142 c 0
 181 114 204 100 237 100 c 0
 270 100 299 113 325 140 c 0
EndSplineSet
EndChar

StartChar: uni01C6
Encoding: 454 454 239
Width: 1154
Flags: W
LayerCount: 2
Fore
SplineSet
584 750 m 1
 466 0 l 1
 343 0 l 1
 352 67 l 1
 350 67 l 1
 326 42 299 22 270 10 c 0
 240 -4 209 -10 176 -10 c 0
 115 -10 72 13 48 60 c 0
 22 107 17 173 31 260 c 0
 45 347 72 413 112 460 c 0
 151 507 201 530 262 530 c 0
 294 530 322 524 346 510 c 0
 371 498 391 478 406 453 c 1
 408 453 l 1
 455 750 l 1
 584 750 l 1
325 140 m 0
 351 167 367 200 374 241 c 2
 380 279 l 2
 387 320 381 353 364 380 c 0
 346 407 320 420 287 420 c 0
 255 420 228 406 204 378 c 0
 182 349 166 310 159 260 c 0
 151 210 154 171 168 142 c 0
 181 114 204 100 237 100 c 0
 270 100 299 113 325 140 c 0
631 107 m 1
 929 411 l 1
 929 413 l 1
 680 413 l 1
 697 520 l 1
 1111 520 l 1
 1094 413 l 1
 796 109 l 1
 795 107 l 1
 1045 107 l 1
 1028 0 l 1
 614 0 l 1
 631 107 l 1
707 770 m 1
 860 770 l 1
 914 617 l 1
 916 617 l 1
 1019 770 l 1
 1171 770 l 1
 1018 560 l 1
 793 560 l 1
 707 770 l 1
EndSplineSet
EndChar

StartChar: e
Encoding: 101 101 240
Width: 534
Flags: W
LayerCount: 2
Fore
SplineSet
491 210 m 1
 147 210 l 1
 144 171 154 142 176 123 c 0
 198 104 233 95 281 95 c 0
 330 95 377 104 424 122 c 1
 432 22 l 1
 407 12 380 4 349 -2 c 0
 318 -7 288 -10 257 -10 c 0
 169 -10 105 13 66 60 c 0
 27 107 14 173 27 260 c 0
 40 345 72 411 122 458 c 0
 173 506 236 530 311 530 c 0
 386 530 440 507 474 461 c 0
 506 415 516 349 502 263 c 0
 501 252 497 234 491 210 c 1
210 400 m 0
 189 379 173 348 162 305 c 1
 386 305 l 1
 389 348 384 379 369 400 c 0
 354 420 330 430 295 430 c 0
 260 430 232 420 210 400 c 0
EndSplineSet
EndChar

StartChar: eacute
Encoding: 233 233 241
Width: 567
Flags: W
LayerCount: 2
Fore
SplineSet
491 210 m 1
 147 210 l 1
 144 171 154 142 176 123 c 0
 198 104 233 95 281 95 c 0
 330 95 377 104 424 122 c 1
 432 22 l 1
 407 12 380 4 349 -2 c 0
 318 -7 288 -10 257 -10 c 0
 169 -10 105 13 66 60 c 0
 27 107 14 173 27 260 c 0
 40 345 72 411 122 458 c 0
 173 506 236 530 311 530 c 0
 386 530 440 507 474 461 c 0
 506 415 516 349 502 263 c 0
 501 252 497 234 491 210 c 1
210 400 m 0
 189 379 173 348 162 305 c 1
 386 305 l 1
 389 348 384 379 369 400 c 0
 354 420 330 430 295 430 c 0
 260 430 232 420 210 400 c 0
379 560 m 1
 252 560 l 1
 366 770 l 1
 533 770 l 1
 379 560 l 1
EndSplineSet
EndChar

StartChar: ebreve
Encoding: 277 277 242
Width: 567
Flags: W
LayerCount: 2
Fore
SplineSet
491 210 m 1
 147 210 l 1
 144 171 154 142 176 123 c 0
 198 104 233 95 281 95 c 0
 330 95 377 104 424 122 c 1
 432 22 l 1
 407 12 380 4 349 -2 c 0
 318 -7 288 -10 257 -10 c 0
 169 -10 105 13 66 60 c 0
 27 107 14 173 27 260 c 0
 40 345 72 411 122 458 c 0
 173 506 236 530 311 530 c 0
 386 530 440 507 474 461 c 0
 506 415 516 349 502 263 c 0
 501 252 497 234 491 210 c 1
210 400 m 0
 189 379 173 348 162 305 c 1
 386 305 l 1
 389 348 384 379 369 400 c 0
 354 420 330 430 295 430 c 0
 260 430 232 420 210 400 c 0
204 589 m 0
 174 605 152 627 138 656 c 0
 124 684 119 716 123 752 c 1
 254 752 l 1
 252 695 276 666 325 666 c 0
 374 666 406 695 422 752 c 1
 554 752 l 1
 547 716 532 684 509 656 c 0
 486 627 458 605 422 589 c 0
 388 573 350 565 309 565 c 0
 268 565 233 573 204 589 c 0
EndSplineSet
EndChar

StartChar: ecaron
Encoding: 283 283 243
Width: 567
Flags: W
LayerCount: 2
Fore
SplineSet
491 210 m 1
 147 210 l 1
 144 171 154 142 176 123 c 0
 198 104 233 95 281 95 c 0
 330 95 377 104 424 122 c 1
 432 22 l 1
 407 12 380 4 349 -2 c 0
 318 -7 288 -10 257 -10 c 0
 169 -10 105 13 66 60 c 0
 27 107 14 173 27 260 c 0
 40 345 72 411 122 458 c 0
 173 506 236 530 311 530 c 0
 386 530 440 507 474 461 c 0
 506 415 516 349 502 263 c 0
 501 252 497 234 491 210 c 1
210 400 m 0
 189 379 173 348 162 305 c 1
 386 305 l 1
 389 348 384 379 369 400 c 0
 354 420 330 430 295 430 c 0
 260 430 232 420 210 400 c 0
113 770 m 1
 266 770 l 1
 320 617 l 1
 322 617 l 1
 425 770 l 1
 577 770 l 1
 424 560 l 1
 199 560 l 1
 113 770 l 1
EndSplineSet
EndChar

StartChar: ecircumflex
Encoding: 234 234 244
Width: 567
Flags: W
LayerCount: 2
Fore
SplineSet
491 210 m 1
 147 210 l 1
 144 171 154 142 176 123 c 0
 198 104 233 95 281 95 c 0
 330 95 377 104 424 122 c 1
 432 22 l 1
 407 12 380 4 349 -2 c 0
 318 -7 288 -10 257 -10 c 0
 169 -10 105 13 66 60 c 0
 27 107 14 173 27 260 c 0
 40 345 72 411 122 458 c 0
 173 506 236 530 311 530 c 0
 386 530 440 507 474 461 c 0
 506 415 516 349 502 263 c 0
 501 252 497 234 491 210 c 1
210 400 m 0
 189 379 173 348 162 305 c 1
 386 305 l 1
 389 348 384 379 369 400 c 0
 354 420 330 430 295 430 c 0
 260 430 232 420 210 400 c 0
232 770 m 1
 457 770 l 1
 544 560 l 1
 391 560 l 1
 337 713 l 1
 335 713 l 1
 232 560 l 1
 80 560 l 1
 232 770 l 1
EndSplineSet
EndChar

StartChar: uni1EBF
Encoding: 7871 7871 245
Width: 538
Flags: W
LayerCount: 2
Fore
SplineSet
338 713 m 1
 238 560 l 1
 91 560 l 1
 239 770 l 1
 448 770 l 1
 544 950 l 1
 705 950 l 1
 555 740 l 1
 468 740 l 1
 540 560 l 1
 392 560 l 1
 340 713 l 1
 338 713 l 1
474 461 m 0
 506 415 516 349 502 263 c 0
 500 252 496 234 491 210 c 1
 147 210 l 1
 144 171 154 142 176 123 c 0
 198 104 233 95 281 95 c 0
 330 95 377 104 424 122 c 1
 432 22 l 1
 407 12 380 4 349 -2 c 0
 318 -7 288 -10 257 -10 c 0
 169 -10 105 13 66 60 c 0
 27 107 14 173 27 260 c 0
 40 345 72 411 122 458 c 0
 173 506 236 530 311 530 c 0
 386 530 440 507 474 461 c 0
210 400 m 0
 189 379 173 348 162 305 c 1
 386 305 l 1
 389 348 384 379 369 400 c 0
 354 420 330 430 295 430 c 0
 260 430 232 420 210 400 c 0
EndSplineSet
EndChar

StartChar: uni1EC7
Encoding: 7879 7879 246
Width: 567
Flags: W
LayerCount: 2
Fore
SplineSet
491 210 m 1
 147 210 l 1
 144 171 154 142 176 123 c 0
 198 104 233 95 281 95 c 0
 330 95 377 104 424 122 c 1
 432 22 l 1
 407 12 380 4 349 -2 c 0
 318 -7 288 -10 257 -10 c 0
 169 -10 105 13 66 60 c 0
 27 107 14 173 27 260 c 0
 40 345 72 411 122 458 c 0
 173 506 236 530 311 530 c 0
 386 530 440 507 474 461 c 0
 506 415 516 349 502 263 c 0
 501 252 497 234 491 210 c 1
210 400 m 0
 189 379 173 348 162 305 c 1
 386 305 l 1
 389 348 384 379 369 400 c 0
 354 420 330 430 295 430 c 0
 260 430 232 420 210 400 c 0
174 -71 m 1
 319 -71 l 1
 295 -219 l 1
 150 -219 l 1
 174 -71 l 1
232 770 m 1
 457 770 l 1
 544 560 l 1
 391 560 l 1
 337 713 l 1
 335 713 l 1
 232 560 l 1
 80 560 l 1
 232 770 l 1
EndSplineSet
EndChar

StartChar: uni1EC1
Encoding: 7873 7873 247
Width: 538
Flags: W
LayerCount: 2
Fore
SplineSet
222 740 m 1
 136 740 l 1
 53 950 l 1
 213 950 l 1
 252 770 l 1
 460 770 l 1
 543 560 l 1
 395 560 l 1
 343 713 l 1
 342 713 l 1
 241 560 l 1
 94 560 l 1
 222 740 l 1
495 210 m 1
 151 210 l 1
 148 171 158 142 180 123 c 0
 201 104 236 95 285 95 c 0
 334 95 381 104 427 122 c 1
 435 22 l 1
 410 12 383 4 352 -2 c 0
 321 -7 291 -10 261 -10 c 0
 173 -10 109 13 70 60 c 0
 30 107 17 173 31 260 c 0
 44 345 76 411 126 458 c 0
 176 506 239 530 315 530 c 0
 390 530 444 507 477 461 c 0
 510 415 519 349 506 263 c 0
 505 252 501 234 495 210 c 1
214 400 m 0
 193 379 177 348 166 305 c 1
 390 305 l 1
 393 348 388 379 373 400 c 0
 358 420 334 430 299 430 c 0
 264 430 235 420 214 400 c 0
EndSplineSet
EndChar

StartChar: uni1EC3
Encoding: 7875 7875 248
Width: 533
Flags: W
LayerCount: 2
Fore
SplineSet
238 560 m 1
 91 560 l 1
 239 770 l 1
 445 770 l 1
 450 786 453 797 454 802 c 0
 456 816 453 825 446 830 c 0
 438 835 423 837 401 837 c 0
 358 837 314 830 271 817 c 1
 276 920 l 1
 327 932 382 938 441 938 c 0
 484 938 516 936 538 930 c 0
 560 926 575 917 583 904 c 0
 591 892 593 874 589 851 c 0
 586 834 582 816 574 794 c 0
 568 774 560 755 551 738 c 1
 469 738 l 1
 538 560 l 1
 392 560 l 1
 340 713 l 1
 338 713 l 1
 238 560 l 1
490 210 m 1
 147 210 l 1
 144 171 154 142 176 123 c 0
 197 104 232 95 280 95 c 0
 329 95 376 104 423 122 c 1
 431 22 l 1
 406 12 379 4 348 -2 c 0
 317 -7 287 -10 256 -10 c 0
 169 -10 105 13 66 60 c 0
 27 107 14 173 27 260 c 0
 40 345 72 411 122 458 c 0
 172 506 235 530 310 530 c 0
 385 530 439 507 472 461 c 0
 505 415 514 349 501 263 c 0
 500 252 496 234 490 210 c 1
210 400 m 0
 189 379 173 348 162 305 c 1
 386 305 l 1
 389 348 384 379 369 400 c 0
 354 420 330 430 295 430 c 0
 260 430 232 420 210 400 c 0
EndSplineSet
EndChar

StartChar: uni1EC5
Encoding: 7877 7877 249
Width: 567
Flags: W
LayerCount: 2
Fore
SplineSet
491 210 m 1
 147 210 l 1
 144 171 154 142 176 123 c 0
 198 104 233 95 281 95 c 0
 330 95 377 104 424 122 c 1
 432 22 l 1
 407 12 380 4 349 -2 c 0
 318 -7 288 -10 257 -10 c 0
 169 -10 105 13 66 60 c 0
 27 107 14 173 27 260 c 0
 40 345 72 411 122 458 c 0
 173 506 236 530 311 530 c 0
 386 530 440 507 474 461 c 0
 506 415 516 349 502 263 c 0
 501 252 497 234 491 210 c 1
210 400 m 0
 189 379 173 348 162 305 c 1
 386 305 l 1
 389 348 384 379 369 400 c 0
 354 420 330 430 295 430 c 0
 260 430 232 420 210 400 c 0
232 770 m 1
 457 770 l 1
 544 560 l 1
 391 560 l 1
 337 713 l 1
 335 713 l 1
 232 560 l 1
 80 560 l 1
 232 770 l 1
404 802 m 0
 386 808 364 820 340 836 c 0
 313 854 294 863 282 863 c 0
 272 863 264 858 259 850 c 0
 254 840 249 824 245 801 c 1
 132 801 l 1
 142 864 158 910 180 940 c 0
 201 970 230 985 265 985 c 0
 299 985 338 970 382 940 c 0
 409 922 428 913 441 913 c 0
 450 913 458 918 463 926 c 0
 468 936 473 952 477 975 c 1
 590 975 l 1
 580 912 564 865 543 836 c 0
 522 806 493 791 458 791 c 0
 441 791 424 794 404 802 c 0
EndSplineSet
EndChar

StartChar: uni0205
Encoding: 517 517 250
Width: 567
Flags: W
LayerCount: 2
Fore
SplineSet
491 210 m 1
 147 210 l 1
 144 171 154 142 176 123 c 0
 198 104 233 95 281 95 c 0
 330 95 377 104 424 122 c 1
 432 22 l 1
 407 12 380 4 349 -2 c 0
 318 -7 288 -10 257 -10 c 0
 169 -10 105 13 66 60 c 0
 27 107 14 173 27 260 c 0
 40 345 72 411 122 458 c 0
 173 506 236 530 311 530 c 0
 386 530 440 507 474 461 c 0
 506 415 516 349 502 263 c 0
 501 252 497 234 491 210 c 1
210 400 m 0
 189 379 173 348 162 305 c 1
 386 305 l 1
 389 348 384 379 369 400 c 0
 354 420 330 430 295 430 c 0
 260 430 232 420 210 400 c 0
65 770 m 1
 232 770 l 1
 280 560 l 1
 152 560 l 1
 65 770 l 1
300 770 m 1
 467 770 l 1
 515 560 l 1
 388 560 l 1
 300 770 l 1
EndSplineSet
EndChar

StartChar: edieresis
Encoding: 235 235 251
Width: 567
Flags: W
LayerCount: 2
Fore
SplineSet
491 210 m 1
 147 210 l 1
 144 171 154 142 176 123 c 0
 198 104 233 95 281 95 c 0
 330 95 377 104 424 122 c 1
 432 22 l 1
 407 12 380 4 349 -2 c 0
 318 -7 288 -10 257 -10 c 0
 169 -10 105 13 66 60 c 0
 27 107 14 173 27 260 c 0
 40 345 72 411 122 458 c 0
 173 506 236 530 311 530 c 0
 386 530 440 507 474 461 c 0
 506 415 516 349 502 263 c 0
 501 252 497 234 491 210 c 1
210 400 m 0
 189 379 173 348 162 305 c 1
 386 305 l 1
 389 348 384 379 369 400 c 0
 354 420 330 430 295 430 c 0
 260 430 232 420 210 400 c 0
135 739 m 1
 280 739 l 1
 257 591 l 1
 112 591 l 1
 135 739 l 1
390 739 m 1
 534 739 l 1
 511 591 l 1
 366 591 l 1
 390 739 l 1
EndSplineSet
EndChar

StartChar: edotaccent
Encoding: 279 279 252
Width: 567
Flags: W
LayerCount: 2
Fore
SplineSet
491 210 m 1
 147 210 l 1
 144 171 154 142 176 123 c 0
 198 104 233 95 281 95 c 0
 330 95 377 104 424 122 c 1
 432 22 l 1
 407 12 380 4 349 -2 c 0
 318 -7 288 -10 257 -10 c 0
 169 -10 105 13 66 60 c 0
 27 107 14 173 27 260 c 0
 40 345 72 411 122 458 c 0
 173 506 236 530 311 530 c 0
 386 530 440 507 474 461 c 0
 506 415 516 349 502 263 c 0
 501 252 497 234 491 210 c 1
210 400 m 0
 189 379 173 348 162 305 c 1
 386 305 l 1
 389 348 384 379 369 400 c 0
 354 420 330 430 295 430 c 0
 260 430 232 420 210 400 c 0
302 739 m 1
 447 739 l 1
 423 591 l 1
 278 591 l 1
 302 739 l 1
EndSplineSet
EndChar

StartChar: uni1EB9
Encoding: 7865 7865 253
Width: 567
Flags: W
LayerCount: 2
Fore
SplineSet
491 210 m 1
 147 210 l 1
 144 171 154 142 176 123 c 0
 198 104 233 95 281 95 c 0
 330 95 377 104 424 122 c 1
 432 22 l 1
 407 12 380 4 349 -2 c 0
 318 -7 288 -10 257 -10 c 0
 169 -10 105 13 66 60 c 0
 27 107 14 173 27 260 c 0
 40 345 72 411 122 458 c 0
 173 506 236 530 311 530 c 0
 386 530 440 507 474 461 c 0
 506 415 516 349 502 263 c 0
 501 252 497 234 491 210 c 1
210 400 m 0
 189 379 173 348 162 305 c 1
 386 305 l 1
 389 348 384 379 369 400 c 0
 354 420 330 430 295 430 c 0
 260 430 232 420 210 400 c 0
174 -71 m 1
 319 -71 l 1
 295 -219 l 1
 150 -219 l 1
 174 -71 l 1
EndSplineSet
EndChar

StartChar: egrave
Encoding: 232 232 254
Width: 567
Flags: W
LayerCount: 2
Fore
SplineSet
491 210 m 1
 147 210 l 1
 144 171 154 142 176 123 c 0
 198 104 233 95 281 95 c 0
 330 95 377 104 424 122 c 1
 432 22 l 1
 407 12 380 4 349 -2 c 0
 318 -7 288 -10 257 -10 c 0
 169 -10 105 13 66 60 c 0
 27 107 14 173 27 260 c 0
 40 345 72 411 122 458 c 0
 173 506 236 530 311 530 c 0
 386 530 440 507 474 461 c 0
 506 415 516 349 502 263 c 0
 501 252 497 234 491 210 c 1
210 400 m 0
 189 379 173 348 162 305 c 1
 386 305 l 1
 389 348 384 379 369 400 c 0
 354 420 330 430 295 430 c 0
 260 430 232 420 210 400 c 0
184 770 m 1
 350 770 l 1
 398 560 l 1
 271 560 l 1
 184 770 l 1
EndSplineSet
EndChar

StartChar: uni1EBB
Encoding: 7867 7867 255
Width: 567
Flags: W
LayerCount: 2
Fore
SplineSet
491 210 m 1
 147 210 l 1
 144 171 154 142 176 123 c 0
 198 104 233 95 281 95 c 0
 330 95 377 104 424 122 c 1
 432 22 l 1
 407 12 380 4 349 -2 c 0
 318 -7 288 -10 257 -10 c 0
 169 -10 105 13 66 60 c 0
 27 107 14 173 27 260 c 0
 40 345 72 411 122 458 c 0
 173 506 236 530 311 530 c 0
 386 530 440 507 474 461 c 0
 506 415 516 349 502 263 c 0
 501 252 497 234 491 210 c 1
210 400 m 0
 189 379 173 348 162 305 c 1
 386 305 l 1
 389 348 384 379 369 400 c 0
 354 420 330 430 295 430 c 0
 260 430 232 420 210 400 c 0
408 639 m 0
 410 653 407 662 400 667 c 0
 392 672 377 674 354 674 c 0
 309 674 265 667 220 654 c 1
 224 757 l 1
 277 769 334 775 396 775 c 0
 441 775 474 772 496 768 c 0
 519 762 534 754 542 742 c 0
 551 729 553 711 549 688 c 0
 546 671 542 652 534 632 c 0
 528 610 519 592 510 575 c 1
 386 575 l 1
 398 602 405 623 408 639 c 0
EndSplineSet
EndChar

StartChar: uni0207
Encoding: 519 519 256
Width: 567
Flags: W
LayerCount: 2
Fore
SplineSet
491 210 m 1
 147 210 l 1
 144 171 154 142 176 123 c 0
 198 104 233 95 281 95 c 0
 330 95 377 104 424 122 c 1
 432 22 l 1
 407 12 380 4 349 -2 c 0
 318 -7 288 -10 257 -10 c 0
 169 -10 105 13 66 60 c 0
 27 107 14 173 27 260 c 0
 40 345 72 411 122 458 c 0
 173 506 236 530 311 530 c 0
 386 530 440 507 474 461 c 0
 506 415 516 349 502 263 c 0
 501 252 497 234 491 210 c 1
210 400 m 0
 189 379 173 348 162 305 c 1
 386 305 l 1
 389 348 384 379 369 400 c 0
 354 420 330 430 295 430 c 0
 260 430 232 420 210 400 c 0
446 741 m 0
 476 725 498 703 512 674 c 0
 526 646 531 614 527 578 c 1
 394 578 l 1
 396 635 373 664 325 664 c 0
 276 664 243 635 227 578 c 1
 96 578 l 1
 103 614 118 646 141 674 c 0
 164 703 192 725 228 741 c 0
 262 757 300 765 341 765 c 0
 382 765 417 757 446 741 c 0
EndSplineSet
EndChar

StartChar: emacron
Encoding: 275 275 257
Width: 567
Flags: W
LayerCount: 2
Fore
SplineSet
491 210 m 1
 147 210 l 1
 144 171 154 142 176 123 c 0
 198 104 233 95 281 95 c 0
 330 95 377 104 424 122 c 1
 432 22 l 1
 407 12 380 4 349 -2 c 0
 318 -7 288 -10 257 -10 c 0
 169 -10 105 13 66 60 c 0
 27 107 14 173 27 260 c 0
 40 345 72 411 122 458 c 0
 173 506 236 530 311 530 c 0
 386 530 440 507 474 461 c 0
 506 415 516 349 502 263 c 0
 501 252 497 234 491 210 c 1
210 400 m 0
 189 379 173 348 162 305 c 1
 386 305 l 1
 389 348 384 379 369 400 c 0
 354 420 330 430 295 430 c 0
 260 430 232 420 210 400 c 0
138 717 m 1
 523 717 l 1
 506 613 l 1
 122 613 l 1
 138 717 l 1
EndSplineSet
EndChar

StartChar: eogonek
Encoding: 281 281 258
Width: 535
Flags: W
LayerCount: 2
Fore
SplineSet
485 -173 m 1
 450 -187 411 -194 370 -194 c 0
 316 -194 276 -184 250 -164 c 0
 224 -143 214 -115 219 -78 c 0
 222 -55 232 -33 249 -10 c 1
 164 -9 103 15 64 62 c 0
 26 109 14 175 27 260 c 0
 40 345 72 411 122 458 c 0
 172 506 235 530 310 530 c 0
 385 530 439 507 472 461 c 0
 505 415 514 349 501 263 c 0
 499 252 495 234 490 210 c 1
 147 210 l 1
 144 171 154 142 176 123 c 0
 197 104 232 95 280 95 c 0
 329 95 376 104 423 122 c 1
 430 24 l 1
 430 24 431 24 431 24 c 1
 431 24 430 22 430 22 c 2
 427 21 423 19 418 18 c 0
 370 -9 344 -34 341 -57 c 0
 339 -68 343 -77 352 -82 c 0
 361 -88 376 -91 395 -91 c 0
 424 -91 455 -85 486 -72 c 1
 485 -173 l 1
210 400 m 0
 189 379 173 348 162 305 c 1
 385 305 l 1
 388 348 383 379 368 400 c 0
 353 420 329 430 294 430 c 0
 259 430 231 420 210 400 c 0
EndSplineSet
EndChar

StartChar: uni1EBD
Encoding: 7869 7869 259
Width: 567
Flags: W
LayerCount: 2
Fore
SplineSet
491 210 m 1
 147 210 l 1
 144 171 154 142 176 123 c 0
 198 104 233 95 281 95 c 0
 330 95 377 104 424 122 c 1
 432 22 l 1
 407 12 380 4 349 -2 c 0
 318 -7 288 -10 257 -10 c 0
 169 -10 105 13 66 60 c 0
 27 107 14 173 27 260 c 0
 40 345 72 411 122 458 c 0
 173 506 236 530 311 530 c 0
 386 530 440 507 474 461 c 0
 506 415 516 349 502 263 c 0
 501 252 497 234 491 210 c 1
210 400 m 0
 189 379 173 348 162 305 c 1
 386 305 l 1
 389 348 384 379 369 400 c 0
 354 420 330 430 295 430 c 0
 260 430 232 420 210 400 c 0
370 578 m 0
 350 586 329 597 305 613 c 0
 278 631 259 640 247 640 c 0
 237 640 229 636 224 626 c 0
 219 618 214 601 210 578 c 1
 97 578 l 1
 107 641 123 687 144 717 c 0
 166 747 195 762 230 762 c 0
 264 762 303 747 347 717 c 0
 374 699 393 690 406 690 c 0
 415 690 423 694 428 704 c 0
 433 712 438 729 442 752 c 1
 555 752 l 1
 545 689 529 642 508 612 c 0
 487 583 458 568 423 568 c 0
 406 568 388 572 370 578 c 0
EndSplineSet
EndChar

StartChar: uni0259
Encoding: 601 601 260
Width: 534
Flags: W
LayerCount: 2
Fore
SplineSet
461 460 m 0
 500 413 513 347 500 260 c 0
 487 175 455 109 404 62 c 0
 354 14 291 -10 216 -10 c 0
 141 -10 86 13 54 59 c 0
 20 105 11 171 25 257 c 0
 27 268 31 286 36 310 c 1
 380 310 l 1
 383 349 373 378 351 397 c 0
 329 416 294 425 246 425 c 0
 197 425 150 416 103 398 c 1
 95 498 l 1
 120 508 147 516 178 522 c 0
 209 527 239 530 270 530 c 0
 358 530 422 507 461 460 c 0
316 120 m 0
 338 141 354 172 365 215 c 1
 141 215 l 1
 138 172 143 141 158 120 c 0
 173 100 197 90 232 90 c 0
 267 90 295 100 316 120 c 0
EndSplineSet
EndChar

StartChar: f
Encoding: 102 102 261
Width: 449
Flags: W
LayerCount: 2
Fore
SplineSet
40 413 m 1
 56 520 l 1
 181 520 l 1
 188 563 l 2
 209 694 277 760 393 760 c 0
 428 760 465 755 504 745 c 1
 469 640 l 1
 442 649 418 653 397 653 c 0
 372 653 354 647 344 634 c 0
 332 621 324 598 318 563 c 2
 312 520 l 1
 461 520 l 1
 444 413 l 1
 295 413 l 1
 229 0 l 1
 99 0 l 1
 164 413 l 1
 40 413 l 1
EndSplineSet
EndChar

StartChar: g
Encoding: 103 103 262
Width: 571
Flags: W
LayerCount: 2
Fore
SplineSet
548 520 m 1
 474 50 l 2
 459 -41 426 -110 373 -158 c 0
 320 -206 252 -230 167 -230 c 0
 102 -230 38 -216 -26 -189 c 1
 16 -91 l 1
 71 -112 121 -123 166 -123 c 0
 217 -123 258 -109 286 -80 c 0
 316 -52 335 -9 344 50 c 2
 347 67 l 1
 345 67 l 1
 323 42 298 22 269 10 c 0
 240 -4 210 -10 177 -10 c 0
 116 -10 72 13 48 60 c 0
 22 106 17 173 31 260 c 0
 45 347 72 414 112 460 c 0
 151 507 202 530 263 530 c 0
 295 530 324 524 349 510 c 0
 374 498 395 478 411 453 c 1
 413 453 l 1
 425 520 l 1
 548 520 l 1
325 140 m 0
 351 167 367 200 374 241 c 2
 380 279 l 2
 387 320 381 353 364 380 c 0
 346 407 320 420 287 420 c 0
 255 420 228 406 204 378 c 0
 182 349 166 310 159 260 c 0
 151 210 154 171 168 142 c 0
 181 114 204 100 237 100 c 0
 270 100 299 113 325 140 c 0
EndSplineSet
EndChar

StartChar: gbreve
Encoding: 287 287 263
Width: 609
Flags: W
LayerCount: 2
Fore
SplineSet
548 520 m 1
 474 50 l 2
 459 -41 426 -110 373 -158 c 0
 320 -206 252 -230 167 -230 c 0
 102 -230 38 -216 -26 -189 c 1
 16 -91 l 1
 71 -112 121 -123 166 -123 c 0
 217 -123 258 -109 286 -80 c 0
 316 -52 335 -9 344 50 c 2
 347 67 l 1
 345 67 l 1
 323 42 298 22 269 10 c 0
 240 -4 210 -10 177 -10 c 0
 116 -10 72 13 48 60 c 0
 22 106 17 173 31 260 c 0
 45 347 72 414 112 460 c 0
 151 507 202 530 263 530 c 0
 295 530 324 524 349 510 c 0
 374 498 395 478 411 453 c 1
 413 453 l 1
 425 520 l 1
 548 520 l 1
325 140 m 0
 351 167 367 200 374 241 c 2
 380 279 l 2
 387 320 381 353 364 380 c 0
 346 407 320 420 287 420 c 0
 255 420 228 406 204 378 c 0
 182 349 166 310 159 260 c 0
 151 210 154 171 168 142 c 0
 181 114 204 100 237 100 c 0
 270 100 299 113 325 140 c 0
220 589 m 0
 190 605 168 627 154 656 c 0
 140 684 135 716 139 752 c 1
 270 752 l 1
 268 695 292 666 341 666 c 0
 390 666 422 695 438 752 c 1
 570 752 l 1
 563 716 548 684 525 656 c 0
 502 627 474 605 438 589 c 0
 404 573 366 565 325 565 c 0
 284 565 249 573 220 589 c 0
EndSplineSet
EndChar

StartChar: gcaron
Encoding: 487 487 264
Width: 609
Flags: W
LayerCount: 2
Fore
SplineSet
548 520 m 1
 474 50 l 2
 459 -41 426 -110 373 -158 c 0
 320 -206 252 -230 167 -230 c 0
 102 -230 38 -216 -26 -189 c 1
 16 -91 l 1
 71 -112 121 -123 166 -123 c 0
 217 -123 258 -109 286 -80 c 0
 316 -52 335 -9 344 50 c 2
 347 67 l 1
 345 67 l 1
 323 42 298 22 269 10 c 0
 240 -4 210 -10 177 -10 c 0
 116 -10 72 13 48 60 c 0
 22 106 17 173 31 260 c 0
 45 347 72 414 112 460 c 0
 151 507 202 530 263 530 c 0
 295 530 324 524 349 510 c 0
 374 498 395 478 411 453 c 1
 413 453 l 1
 425 520 l 1
 548 520 l 1
325 140 m 0
 351 167 367 200 374 241 c 2
 380 279 l 2
 387 320 381 353 364 380 c 0
 346 407 320 420 287 420 c 0
 255 420 228 406 204 378 c 0
 182 349 166 310 159 260 c 0
 151 210 154 171 168 142 c 0
 181 114 204 100 237 100 c 0
 270 100 299 113 325 140 c 0
128 770 m 1
 281 770 l 1
 335 617 l 1
 337 617 l 1
 440 770 l 1
 592 770 l 1
 439 560 l 1
 214 560 l 1
 128 770 l 1
EndSplineSet
EndChar

StartChar: gcircumflex
Encoding: 285 285 265
Width: 609
Flags: W
LayerCount: 2
Fore
SplineSet
548 520 m 1
 474 50 l 2
 459 -41 426 -110 373 -158 c 0
 320 -206 252 -230 167 -230 c 0
 102 -230 38 -216 -26 -189 c 1
 16 -91 l 1
 71 -112 121 -123 166 -123 c 0
 217 -123 258 -109 286 -80 c 0
 316 -52 335 -9 344 50 c 2
 347 67 l 1
 345 67 l 1
 323 42 298 22 269 10 c 0
 240 -4 210 -10 177 -10 c 0
 116 -10 72 13 48 60 c 0
 22 106 17 173 31 260 c 0
 45 347 72 414 112 460 c 0
 151 507 202 530 263 530 c 0
 295 530 324 524 349 510 c 0
 374 498 395 478 411 453 c 1
 413 453 l 1
 425 520 l 1
 548 520 l 1
325 140 m 0
 351 167 367 200 374 241 c 2
 380 279 l 2
 387 320 381 353 364 380 c 0
 346 407 320 420 287 420 c 0
 255 420 228 406 204 378 c 0
 182 349 166 310 159 260 c 0
 151 210 154 171 168 142 c 0
 181 114 204 100 237 100 c 0
 270 100 299 113 325 140 c 0
247 770 m 1
 472 770 l 1
 559 560 l 1
 406 560 l 1
 352 713 l 1
 350 713 l 1
 247 560 l 1
 95 560 l 1
 247 770 l 1
EndSplineSet
EndChar

StartChar: uni0123
Encoding: 291 291 266
Width: 609
Flags: W
LayerCount: 2
Fore
SplineSet
548 520 m 1
 474 50 l 2
 459 -41 426 -110 373 -158 c 0
 320 -206 252 -230 167 -230 c 0
 102 -230 38 -216 -26 -189 c 1
 16 -91 l 1
 71 -112 121 -123 166 -123 c 0
 217 -123 258 -109 286 -80 c 0
 316 -52 335 -9 344 50 c 2
 347 67 l 1
 345 67 l 1
 323 42 298 22 269 10 c 0
 240 -4 210 -10 177 -10 c 0
 116 -10 72 13 48 60 c 0
 22 106 17 173 31 260 c 0
 45 347 72 414 112 460 c 0
 151 507 202 530 263 530 c 0
 295 530 324 524 349 510 c 0
 374 498 395 478 411 453 c 1
 413 453 l 1
 425 520 l 1
 548 520 l 1
325 140 m 0
 351 167 367 200 374 241 c 2
 380 279 l 2
 387 320 381 353 364 380 c 0
 346 407 320 420 287 420 c 0
 255 420 228 406 204 378 c 0
 182 349 166 310 159 260 c 0
 151 210 154 171 168 142 c 0
 181 114 204 100 237 100 c 0
 270 100 299 113 325 140 c 0
401 770 m 1
 528 770 l 1
 414 560 l 1
 247 560 l 1
 401 770 l 1
EndSplineSet
EndChar

StartChar: gdotaccent
Encoding: 289 289 267
Width: 609
Flags: W
LayerCount: 2
Fore
SplineSet
548 520 m 1
 474 50 l 2
 459 -41 426 -110 373 -158 c 0
 320 -206 252 -230 167 -230 c 0
 102 -230 38 -216 -26 -189 c 1
 16 -91 l 1
 71 -112 121 -123 166 -123 c 0
 217 -123 258 -109 286 -80 c 0
 316 -52 335 -9 344 50 c 2
 347 67 l 1
 345 67 l 1
 323 42 298 22 269 10 c 0
 240 -4 210 -10 177 -10 c 0
 116 -10 72 13 48 60 c 0
 22 106 17 173 31 260 c 0
 45 347 72 414 112 460 c 0
 151 507 202 530 263 530 c 0
 295 530 324 524 349 510 c 0
 374 498 395 478 411 453 c 1
 413 453 l 1
 425 520 l 1
 548 520 l 1
325 140 m 0
 351 167 367 200 374 241 c 2
 380 279 l 2
 387 320 381 353 364 380 c 0
 346 407 320 420 287 420 c 0
 255 420 228 406 204 378 c 0
 182 349 166 310 159 260 c 0
 151 210 154 171 168 142 c 0
 181 114 204 100 237 100 c 0
 270 100 299 113 325 140 c 0
317 739 m 1
 462 739 l 1
 438 591 l 1
 293 591 l 1
 317 739 l 1
EndSplineSet
EndChar

StartChar: h
Encoding: 104 104 268
Width: 570
Flags: W
LayerCount: 2
Fore
SplineSet
508 480 m 0
 528 446 532 393 521 320 c 2
 470 0 l 1
 340 0 l 1
 387 293 l 2
 394 336 393 367 384 387 c 0
 376 407 359 417 334 417 c 0
 313 417 292 410 272 398 c 0
 250 384 232 367 218 346 c 0
 202 324 193 301 190 277 c 2
 146 0 l 1
 17 0 l 1
 136 750 l 1
 264 750 l 1
 217 449 l 1
 219 449 l 1
 267 503 326 530 396 530 c 0
 450 530 487 513 508 480 c 0
EndSplineSet
EndChar

StartChar: hbar
Encoding: 295 295 269
Width: 633
Flags: W
LayerCount: 2
Fore
SplineSet
571 480 m 0
 591 446 595 393 583 320 c 2
 533 0 l 1
 404 0 l 1
 450 293 l 2
 457 336 456 367 448 387 c 0
 439 407 423 417 398 417 c 0
 377 417 356 410 335 398 c 0
 314 384 296 367 281 346 c 0
 266 324 257 301 253 277 c 2
 209 0 l 1
 79 0 l 1
 170 572 l 1
 69 572 l 1
 86 678 l 1
 187 678 l 1
 198 750 l 1
 328 750 l 1
 316 678 l 1
 484 678 l 1
 467 572 l 1
 300 572 l 1
 280 449 l 1
 282 449 l 1
 330 503 389 530 460 530 c 0
 514 530 551 513 571 480 c 0
EndSplineSet
EndChar

StartChar: hcircumflex
Encoding: 293 293 270
Width: 609
Flags: W
LayerCount: 2
Fore
SplineSet
508 480 m 0
 528 446 532 393 521 320 c 2
 470 0 l 1
 340 0 l 1
 387 293 l 2
 394 336 393 367 384 387 c 0
 376 407 359 417 334 417 c 0
 313 417 292 410 272 398 c 0
 250 384 232 367 218 346 c 0
 202 324 193 301 190 277 c 2
 146 0 l 1
 17 0 l 1
 136 750 l 1
 264 750 l 1
 217 449 l 1
 219 449 l 1
 267 503 326 530 396 530 c 0
 450 530 487 513 508 480 c 0
277 1000 m 1
 502 1000 l 1
 589 790 l 1
 436 790 l 1
 382 943 l 1
 380 943 l 1
 277 790 l 1
 125 790 l 1
 277 1000 l 1
EndSplineSet
EndChar

StartChar: i
Encoding: 105 105 271
Width: 267
Flags: W
LayerCount: 2
Fore
SplineSet
140 743 m 1
 272 743 l 1
 252 617 l 1
 120 617 l 1
 140 743 l 1
105 520 m 1
 236 520 l 1
 154 0 l 1
 22 0 l 1
 105 520 l 1
EndSplineSet
EndChar

StartChar: dotlessi
Encoding: 305 305 272
Width: 267
Flags: W
LayerCount: 2
Fore
SplineSet
105 520 m 1
 236 520 l 1
 154 0 l 1
 22 0 l 1
 105 520 l 1
EndSplineSet
EndChar

StartChar: iacute
Encoding: 237 237 273
Width: 289
Flags: W
LayerCount: 2
Fore
SplineSet
105 520 m 1
 236 520 l 1
 154 0 l 1
 22 0 l 1
 105 520 l 1
236 560 m 1
 109 560 l 1
 223 770 l 1
 390 770 l 1
 236 560 l 1
EndSplineSet
EndChar

StartChar: ibreve
Encoding: 301 301 274
Width: 289
Flags: W
LayerCount: 2
Fore
SplineSet
105 520 m 1
 236 520 l 1
 154 0 l 1
 22 0 l 1
 105 520 l 1
60 589 m 0
 31 605 9 627 -5 656 c 0
 -19 684 -24 716 -20 752 c 1
 111 752 l 1
 109 695 133 666 182 666 c 0
 231 666 263 695 279 752 c 1
 411 752 l 1
 404 716 389 684 366 656 c 0
 343 627 314 605 280 589 c 0
 244 573 207 565 166 565 c 0
 125 565 90 573 60 589 c 0
EndSplineSet
EndChar

StartChar: icircumflex
Encoding: 238 238 275
Width: 289
Flags: W
LayerCount: 2
Fore
SplineSet
105 520 m 1
 236 520 l 1
 154 0 l 1
 22 0 l 1
 105 520 l 1
88 770 m 1
 313 770 l 1
 400 560 l 1
 247 560 l 1
 193 713 l 1
 191 713 l 1
 88 560 l 1
 -64 560 l 1
 88 770 l 1
EndSplineSet
EndChar

StartChar: uni0209
Encoding: 521 521 276
Width: 289
Flags: W
LayerCount: 2
Fore
SplineSet
105 520 m 1
 236 520 l 1
 154 0 l 1
 22 0 l 1
 105 520 l 1
-79 770 m 1
 88 770 l 1
 136 560 l 1
 8 560 l 1
 -79 770 l 1
156 770 m 1
 323 770 l 1
 371 560 l 1
 244 560 l 1
 156 770 l 1
EndSplineSet
EndChar

StartChar: idieresis
Encoding: 239 239 277
Width: 289
Flags: W
LayerCount: 2
Fore
SplineSet
105 520 m 1
 236 520 l 1
 154 0 l 1
 22 0 l 1
 105 520 l 1
-8 739 m 1
 137 739 l 1
 114 591 l 1
 -31 591 l 1
 -8 739 l 1
247 739 m 1
 391 739 l 1
 368 591 l 1
 223 591 l 1
 247 739 l 1
EndSplineSet
EndChar

StartChar: i.loclTRK
Encoding: 1114113 -1 278
Width: 289
Flags: W
LayerCount: 2
Fore
SplineSet
105 520 m 1
 236 520 l 1
 154 0 l 1
 22 0 l 1
 105 520 l 1
158 739 m 1
 303 739 l 1
 279 591 l 1
 134 591 l 1
 158 739 l 1
EndSplineSet
EndChar

StartChar: uni1ECB
Encoding: 7883 7883 279
Width: 289
Flags: W
LayerCount: 2
Fore
SplineSet
140 743 m 1
 272 743 l 1
 252 617 l 1
 120 617 l 1
 140 743 l 1
105 520 m 1
 236 520 l 1
 154 0 l 1
 22 0 l 1
 105 520 l 1
30 -71 m 1
 175 -71 l 1
 151 -219 l 1
 6 -219 l 1
 30 -71 l 1
EndSplineSet
EndChar

StartChar: igrave
Encoding: 236 236 280
Width: 289
Flags: W
LayerCount: 2
Fore
SplineSet
105 520 m 1
 236 520 l 1
 154 0 l 1
 22 0 l 1
 105 520 l 1
40 770 m 1
 206 770 l 1
 254 560 l 1
 127 560 l 1
 40 770 l 1
EndSplineSet
EndChar

StartChar: uni1EC9
Encoding: 7881 7881 281
Width: 289
Flags: W
LayerCount: 2
Fore
SplineSet
105 520 m 1
 236 520 l 1
 154 0 l 1
 22 0 l 1
 105 520 l 1
265 639 m 0
 267 653 264 662 256 667 c 0
 249 672 234 674 211 674 c 0
 166 674 122 667 77 654 c 1
 81 757 l 1
 134 769 191 775 253 775 c 0
 298 775 331 772 354 768 c 0
 376 762 391 754 400 742 c 0
 408 729 410 711 406 688 c 0
 403 671 398 652 392 632 c 0
 384 610 376 592 367 575 c 1
 243 575 l 1
 255 602 262 623 265 639 c 0
EndSplineSet
EndChar

StartChar: uni020B
Encoding: 523 523 282
Width: 289
Flags: W
LayerCount: 2
Fore
SplineSet
105 520 m 1
 236 520 l 1
 154 0 l 1
 22 0 l 1
 105 520 l 1
304 741 m 0
 333 725 355 703 369 674 c 0
 383 646 388 614 384 578 c 1
 251 578 l 1
 253 635 230 664 182 664 c 0
 133 664 100 635 84 578 c 1
 -47 578 l 1
 -40 614 -25 646 -2 674 c 0
 21 703 50 725 84 741 c 0
 120 757 157 765 198 765 c 0
 239 765 274 757 304 741 c 0
EndSplineSet
EndChar

StartChar: imacron
Encoding: 299 299 283
Width: 289
Flags: W
LayerCount: 2
Fore
SplineSet
105 520 m 1
 236 520 l 1
 154 0 l 1
 22 0 l 1
 105 520 l 1
-6 717 m 1
 379 717 l 1
 362 613 l 1
 -22 613 l 1
 -6 717 l 1
EndSplineSet
EndChar

StartChar: iogonek
Encoding: 303 303 284
Width: 272
Flags: W
LayerCount: 2
Fore
SplineSet
277 739 m 1
 253 591 l 1
 114 591 l 1
 138 739 l 1
 277 739 l 1
210 -197 m 1
 175 -211 137 -218 96 -218 c 0
 42 -218 2 -208 -24 -188 c 0
 -50 -167 -60 -139 -55 -102 c 0
 -48 -61 -21 -20 28 20 c 1
 107 520 l 1
 238 520 l 1
 156 0 l 1
 101 -29 71 -56 67 -81 c 0
 65 -92 69 -101 78 -106 c 0
 87 -112 102 -115 121 -115 c 0
 150 -115 180 -109 211 -96 c 1
 210 -197 l 1
EndSplineSet
EndChar

StartChar: itilde
Encoding: 297 297 285
Width: 289
Flags: W
LayerCount: 2
Fore
SplineSet
105 520 m 1
 236 520 l 1
 154 0 l 1
 22 0 l 1
 105 520 l 1
226 578 m 0
 206 586 185 597 161 613 c 0
 134 631 115 640 103 640 c 0
 93 640 85 636 80 626 c 0
 75 618 70 601 66 578 c 1
 -47 578 l 1
 -37 641 -21 687 0 717 c 0
 22 747 51 762 86 762 c 0
 120 762 159 747 203 717 c 0
 230 699 249 690 262 690 c 0
 271 690 279 694 284 704 c 0
 289 712 294 729 298 752 c 1
 411 752 l 1
 401 689 385 642 364 612 c 0
 343 583 314 568 279 568 c 0
 262 568 244 572 226 578 c 0
EndSplineSet
EndChar

StartChar: j
Encoding: 106 106 286
Width: 323
Flags: W
LayerCount: 2
Fore
SplineSet
197 743 m 1
 328 743 l 1
 308 617 l 1
 177 617 l 1
 197 743 l 1
-1 -112 m 0
 25 -104 44 -91 56 -71 c 0
 67 -51 76 -18 83 27 c 2
 162 520 l 1
 293 520 l 1
 215 27 l 2
 204 -41 187 -93 163 -130 c 0
 139 -166 104 -192 58 -207 c 0
 12 -222 -52 -230 -133 -230 c 1
 -123 -122 l 1
 -68 -122 -27 -118 -1 -112 c 0
EndSplineSet
EndChar

StartChar: uni0237
Encoding: 567 567 287
Width: 323
Flags: W
LayerCount: 2
Fore
SplineSet
-1 -112 m 0
 25 -104 44 -91 56 -71 c 0
 67 -51 76 -18 83 27 c 2
 162 520 l 1
 293 520 l 1
 215 27 l 2
 204 -41 187 -93 163 -130 c 0
 139 -166 104 -192 58 -207 c 0
 12 -222 -52 -230 -133 -230 c 1
 -123 -122 l 1
 -68 -122 -27 -118 -1 -112 c 0
EndSplineSet
EndChar

StartChar: jcircumflex
Encoding: 309 309 288
Width: 342
Flags: W
LayerCount: 2
Fore
SplineSet
-1 -112 m 0
 25 -104 44 -91 56 -71 c 0
 67 -51 76 -18 83 27 c 2
 162 520 l 1
 293 520 l 1
 215 27 l 2
 204 -41 187 -93 163 -130 c 0
 139 -166 104 -192 58 -207 c 0
 12 -222 -52 -230 -133 -230 c 1
 -123 -122 l 1
 -68 -122 -27 -118 -1 -112 c 0
115 770 m 1
 340 770 l 1
 427 560 l 1
 274 560 l 1
 220 713 l 1
 218 713 l 1
 115 560 l 1
 -37 560 l 1
 115 770 l 1
EndSplineSet
EndChar

StartChar: k
Encoding: 107 107 289
Width: 557
Flags: W
LayerCount: 2
Fore
SplineSet
136 750 m 1
 264 750 l 1
 195 312 l 1
 197 312 l 1
 409 520 l 1
 568 520 l 1
 300 270 l 1
 493 0 l 1
 334 0 l 1
 184 228 l 1
 182 228 l 1
 146 0 l 1
 17 0 l 1
 136 750 l 1
EndSplineSet
EndChar

StartChar: uni0137
Encoding: 311 311 290
Width: 592
Flags: W
LayerCount: 2
Fore
SplineSet
136 750 m 1
 264 750 l 1
 195 312 l 1
 197 312 l 1
 409 520 l 1
 568 520 l 1
 300 270 l 1
 493 0 l 1
 334 0 l 1
 184 228 l 1
 182 228 l 1
 146 0 l 1
 17 0 l 1
 136 750 l 1
134 -250 m 1
 6 -250 l 1
 121 -40 l 1
 288 -40 l 1
 134 -250 l 1
EndSplineSet
EndChar

StartChar: kgreenlandic
Encoding: 312 312 291
Width: 557
Flags: W
LayerCount: 2
Fore
SplineSet
99 520 m 1
 228 520 l 1
 195 312 l 1
 197 312 l 1
 409 520 l 1
 568 520 l 1
 300 270 l 1
 493 0 l 1
 334 0 l 1
 184 228 l 1
 182 228 l 1
 146 0 l 1
 17 0 l 1
 99 520 l 1
EndSplineSet
EndChar

StartChar: l
Encoding: 108 108 292
Width: 351
Flags: W
LayerCount: 2
Fore
SplineSet
141 750 m 1
 271 750 l 1
 183 190 l 2
 176 149 176 122 183 110 c 0
 190 96 205 90 230 90 c 0
 261 90 290 96 318 107 c 1
 318 10 l 1
 277 -3 234 -10 189 -10 c 0
 130 -10 89 4 68 31 c 0
 46 58 40 104 50 167 c 2
 141 750 l 1
EndSplineSet
EndChar

StartChar: lacute
Encoding: 314 314 293
Width: 351
Flags: W
LayerCount: 2
Fore
SplineSet
141 750 m 1
 271 750 l 1
 183 190 l 2
 176 149 176 122 183 110 c 0
 190 96 205 90 230 90 c 0
 261 90 290 96 318 107 c 1
 318 10 l 1
 277 -3 234 -10 189 -10 c 0
 130 -10 89 4 68 31 c 0
 46 58 40 104 50 167 c 2
 141 750 l 1
272 790 m 1
 145 790 l 1
 259 1000 l 1
 426 1000 l 1
 272 790 l 1
EndSplineSet
EndChar

StartChar: lcaron
Encoding: 318 318 294
Width: 500
Flags: W
LayerCount: 2
Fore
SplineSet
141 750 m 1
 271 750 l 1
 183 190 l 2
 176 149 176 122 183 110 c 0
 190 96 205 90 230 90 c 0
 261 90 290 96 318 107 c 1
 318 10 l 1
 277 -3 234 -10 189 -10 c 0
 130 -10 89 4 68 31 c 0
 46 58 40 104 50 167 c 2
 141 750 l 1
401 770 m 1
 554 770 l 1
 392 470 l 1
 278 470 l 1
 401 770 l 1
EndSplineSet
EndChar

StartChar: uni013C
Encoding: 316 316 295
Width: 351
Flags: W
LayerCount: 2
Fore
SplineSet
141 750 m 1
 271 750 l 1
 183 190 l 2
 176 149 176 122 183 110 c 0
 190 96 205 90 230 90 c 0
 261 90 290 96 318 107 c 1
 318 10 l 1
 277 -3 234 -10 189 -10 c 0
 130 -10 89 4 68 31 c 0
 46 58 40 104 50 167 c 2
 141 750 l 1
105 -250 m 1
 -23 -250 l 1
 92 -40 l 1
 259 -40 l 1
 105 -250 l 1
EndSplineSet
EndChar

StartChar: ldot
Encoding: 320 320 296
Width: 489
Flags: W
LayerCount: 2
Fore
SplineSet
141 750 m 1
 271 750 l 1
 183 190 l 2
 176 149 176 122 183 110 c 0
 190 96 205 90 230 90 c 0
 261 90 290 96 318 107 c 1
 318 10 l 1
 277 -3 234 -10 189 -10 c 0
 130 -10 89 4 68 31 c 0
 46 58 40 104 50 167 c 2
 141 750 l 1
316 451 m 1
 466 451 l 1
 441 298 l 1
 292 298 l 1
 316 451 l 1
EndSplineSet
EndChar

StartChar: uni01C9
Encoding: 457 457 297
Width: 627
Flags: W
LayerCount: 2
Fore
SplineSet
141 750 m 1
 271 750 l 1
 183 190 l 2
 176 149 176 122 183 110 c 0
 190 96 205 90 230 90 c 0
 261 90 290 96 318 107 c 1
 318 10 l 1
 277 -3 234 -10 189 -10 c 0
 130 -10 89 4 68 31 c 0
 46 58 40 104 50 167 c 2
 141 750 l 1
482 743 m 1
 613 743 l 1
 593 617 l 1
 462 617 l 1
 482 743 l 1
284 -112 m 0
 310 -104 329 -91 340 -71 c 0
 352 -51 361 -18 368 27 c 2
 447 520 l 1
 578 520 l 1
 500 27 l 2
 489 -41 472 -93 448 -130 c 0
 424 -166 389 -192 343 -207 c 0
 297 -222 233 -230 152 -230 c 1
 162 -122 l 1
 217 -122 258 -118 284 -112 c 0
EndSplineSet
EndChar

StartChar: lslash
Encoding: 322 322 298
Width: 455
Flags: W
LayerCount: 2
Fore
SplineSet
467 402 m 1
 39 228 l 1
 14 328 l 1
 442 502 l 1
 467 402 l 1
236 750 m 1
 366 750 l 1
 278 190 l 2
 271 149 271 122 278 110 c 0
 285 96 300 90 325 90 c 0
 356 90 385 96 413 107 c 1
 413 10 l 1
 372 -3 329 -10 284 -10 c 0
 225 -10 184 4 162 31 c 0
 141 58 135 104 145 167 c 2
 236 750 l 1
EndSplineSet
EndChar

StartChar: m
Encoding: 109 109 299
Width: 795
Flags: W
LayerCount: 2
Fore
SplineSet
738 480 m 0
 755 447 757 393 746 320 c 2
 695 0 l 1
 569 0 l 1
 615 293 l 2
 628 376 615 417 575 417 c 0
 558 417 542 411 527 398 c 0
 512 386 498 369 486 348 c 0
 475 327 467 304 463 279 c 2
 419 0 l 1
 293 0 l 1
 339 293 l 2
 352 376 339 417 299 417 c 0
 282 417 266 410 250 398 c 0
 234 384 220 367 209 344 c 0
 198 321 190 297 186 270 c 2
 143 0 l 1
 17 0 l 1
 99 520 l 1
 220 520 l 1
 210 453 l 1
 212 453 l 1
 256 504 307 530 365 530 c 0
 423 530 458 504 471 453 c 1
 473 453 l 1
 522 504 578 530 641 530 c 0
 689 530 721 513 738 480 c 0
EndSplineSet
EndChar

StartChar: n
Encoding: 110 110 300
Width: 570
Flags: W
LayerCount: 2
Fore
SplineSet
506 478 m 0
 528 444 532 391 521 320 c 2
 470 0 l 1
 340 0 l 1
 387 293 l 2
 394 335 392 366 383 386 c 0
 374 407 356 417 331 417 c 0
 310 417 290 410 270 398 c 0
 249 384 232 367 217 346 c 0
 202 325 193 302 190 277 c 2
 146 0 l 1
 17 0 l 1
 99 520 l 1
 221 520 l 1
 212 449 l 1
 214 449 l 1
 264 503 324 530 393 530 c 0
 448 530 486 513 506 478 c 0
EndSplineSet
EndChar

StartChar: nacute
Encoding: 324 324 301
Width: 609
Flags: W
LayerCount: 2
Fore
SplineSet
506 478 m 0
 528 444 532 391 521 320 c 2
 470 0 l 1
 340 0 l 1
 387 293 l 2
 394 335 392 366 383 386 c 0
 374 407 356 417 331 417 c 0
 310 417 290 410 270 398 c 0
 249 384 232 367 217 346 c 0
 202 325 193 302 190 277 c 2
 146 0 l 1
 17 0 l 1
 99 520 l 1
 221 520 l 1
 212 449 l 1
 214 449 l 1
 264 503 324 530 393 530 c 0
 448 530 486 513 506 478 c 0
396 560 m 1
 269 560 l 1
 383 770 l 1
 550 770 l 1
 396 560 l 1
EndSplineSet
EndChar

StartChar: ncaron
Encoding: 328 328 302
Width: 609
Flags: W
LayerCount: 2
Fore
SplineSet
506 478 m 0
 528 444 532 391 521 320 c 2
 470 0 l 1
 340 0 l 1
 387 293 l 2
 394 335 392 366 383 386 c 0
 374 407 356 417 331 417 c 0
 310 417 290 410 270 398 c 0
 249 384 232 367 217 346 c 0
 202 325 193 302 190 277 c 2
 146 0 l 1
 17 0 l 1
 99 520 l 1
 221 520 l 1
 212 449 l 1
 214 449 l 1
 264 503 324 530 393 530 c 0
 448 530 486 513 506 478 c 0
130 770 m 1
 283 770 l 1
 337 617 l 1
 339 617 l 1
 442 770 l 1
 594 770 l 1
 441 560 l 1
 216 560 l 1
 130 770 l 1
EndSplineSet
EndChar

StartChar: uni0146
Encoding: 326 326 303
Width: 609
Flags: W
LayerCount: 2
Fore
SplineSet
506 478 m 0
 528 444 532 391 521 320 c 2
 470 0 l 1
 340 0 l 1
 387 293 l 2
 394 335 392 366 383 386 c 0
 374 407 356 417 331 417 c 0
 310 417 290 410 270 398 c 0
 249 384 232 367 217 346 c 0
 202 325 193 302 190 277 c 2
 146 0 l 1
 17 0 l 1
 99 520 l 1
 221 520 l 1
 212 449 l 1
 214 449 l 1
 264 503 324 530 393 530 c 0
 448 530 486 513 506 478 c 0
166 -250 m 1
 38 -250 l 1
 153 -40 l 1
 320 -40 l 1
 166 -250 l 1
EndSplineSet
EndChar

StartChar: eng
Encoding: 331 331 304
Width: 570
Flags: W
LayerCount: 2
Fore
SplineSet
506 478 m 0
 528 444 532 391 521 320 c 2
 468 -14 l 2
 456 -89 434 -143 401 -176 c 0
 368 -208 320 -224 257 -224 c 0
 220 -224 181 -219 141 -208 c 1
 176 -96 l 1
 199 -103 223 -107 248 -107 c 0
 275 -107 296 -100 310 -86 c 0
 323 -72 333 -48 338 -14 c 2
 387 293 l 2
 394 335 392 366 383 386 c 0
 374 407 356 417 331 417 c 0
 310 417 290 410 270 398 c 0
 249 384 232 367 217 346 c 0
 202 325 193 302 190 277 c 2
 146 0 l 1
 17 0 l 1
 99 520 l 1
 221 520 l 1
 212 449 l 1
 214 449 l 1
 264 503 324 530 393 530 c 0
 448 530 486 513 506 478 c 0
EndSplineSet
EndChar

StartChar: uni01CC
Encoding: 460 460 305
Width: 951
Flags: W
LayerCount: 2
Fore
SplineSet
506 478 m 0
 528 444 532 391 521 320 c 2
 470 0 l 1
 340 0 l 1
 387 293 l 2
 394 335 392 366 383 386 c 0
 374 407 356 417 331 417 c 0
 310 417 290 410 270 398 c 0
 249 384 232 367 217 346 c 0
 202 325 193 302 190 277 c 2
 146 0 l 1
 17 0 l 1
 99 520 l 1
 221 520 l 1
 212 449 l 1
 214 449 l 1
 264 503 324 530 393 530 c 0
 448 530 486 513 506 478 c 0
806 743 m 1
 937 743 l 1
 917 617 l 1
 786 617 l 1
 806 743 l 1
608 -112 m 0
 634 -104 653 -91 664 -71 c 0
 676 -51 685 -18 692 27 c 2
 771 520 l 1
 902 520 l 1
 824 27 l 2
 813 -41 796 -93 772 -130 c 0
 748 -166 713 -192 667 -207 c 0
 621 -222 557 -230 476 -230 c 1
 486 -122 l 1
 541 -122 582 -118 608 -112 c 0
EndSplineSet
EndChar

StartChar: ntilde
Encoding: 241 241 306
Width: 609
Flags: W
LayerCount: 2
Fore
SplineSet
506 478 m 0
 528 444 532 391 521 320 c 2
 470 0 l 1
 340 0 l 1
 387 293 l 2
 394 335 392 366 383 386 c 0
 374 407 356 417 331 417 c 0
 310 417 290 410 270 398 c 0
 249 384 232 367 217 346 c 0
 202 325 193 302 190 277 c 2
 146 0 l 1
 17 0 l 1
 99 520 l 1
 221 520 l 1
 212 449 l 1
 214 449 l 1
 264 503 324 530 393 530 c 0
 448 530 486 513 506 478 c 0
386 578 m 0
 366 586 345 597 321 613 c 0
 294 631 275 640 263 640 c 0
 253 640 245 636 240 626 c 0
 235 618 230 601 226 578 c 1
 113 578 l 1
 123 641 139 687 160 717 c 0
 182 747 211 762 246 762 c 0
 280 762 319 747 363 717 c 0
 390 699 409 690 422 690 c 0
 431 690 439 694 444 704 c 0
 449 712 454 729 458 752 c 1
 571 752 l 1
 561 689 545 642 524 612 c 0
 503 583 474 568 439 568 c 0
 422 568 404 572 386 578 c 0
EndSplineSet
EndChar

StartChar: o
Encoding: 111 111 307
Width: 554
Flags: W
LayerCount: 2
Fore
SplineSet
60 60 m 0
 24 107 14 173 27 260 c 0
 41 347 73 413 122 460 c 0
 172 507 237 530 316 530 c 0
 395 530 452 507 487 460 c 0
 522 413 533 347 519 260 c 0
 505 173 473 107 423 60 c 0
 373 13 309 -10 230 -10 c 0
 151 -10 94 13 60 60 c 0
390 260 m 0
 407 369 377 423 299 423 c 0
 260 423 229 409 205 382 c 0
 181 355 165 314 156 260 c 0
 147 206 151 165 166 138 c 0
 181 111 208 97 247 97 c 0
 325 97 373 151 390 260 c 0
EndSplineSet
EndChar

StartChar: oacute
Encoding: 243 243 308
Width: 589
Flags: W
LayerCount: 2
Fore
SplineSet
60 60 m 0
 24 107 14 173 27 260 c 0
 41 347 73 413 122 460 c 0
 172 507 237 530 316 530 c 0
 395 530 452 507 487 460 c 0
 522 413 533 347 519 260 c 0
 505 173 473 107 423 60 c 0
 373 13 309 -10 230 -10 c 0
 151 -10 94 13 60 60 c 0
390 260 m 0
 407 369 377 423 299 423 c 0
 260 423 229 409 205 382 c 0
 181 355 165 314 156 260 c 0
 147 206 151 165 166 138 c 0
 181 111 208 97 247 97 c 0
 325 97 373 151 390 260 c 0
385 560 m 1
 258 560 l 1
 372 770 l 1
 539 770 l 1
 385 560 l 1
EndSplineSet
EndChar

StartChar: obreve
Encoding: 335 335 309
Width: 589
Flags: W
LayerCount: 2
Fore
SplineSet
60 60 m 0
 24 107 14 173 27 260 c 0
 41 347 73 413 122 460 c 0
 172 507 237 530 316 530 c 0
 395 530 452 507 487 460 c 0
 522 413 533 347 519 260 c 0
 505 173 473 107 423 60 c 0
 373 13 309 -10 230 -10 c 0
 151 -10 94 13 60 60 c 0
390 260 m 0
 407 369 377 423 299 423 c 0
 260 423 229 409 205 382 c 0
 181 355 165 314 156 260 c 0
 147 206 151 165 166 138 c 0
 181 111 208 97 247 97 c 0
 325 97 373 151 390 260 c 0
210 589 m 0
 180 605 158 627 144 656 c 0
 130 684 125 716 129 752 c 1
 260 752 l 1
 258 695 282 666 331 666 c 0
 380 666 412 695 428 752 c 1
 560 752 l 1
 553 716 538 684 515 656 c 0
 492 627 464 605 428 589 c 0
 394 573 356 565 315 565 c 0
 274 565 239 573 210 589 c 0
EndSplineSet
EndChar

StartChar: ocircumflex
Encoding: 244 244 310
Width: 589
Flags: W
LayerCount: 2
Fore
SplineSet
60 60 m 0
 24 107 14 173 27 260 c 0
 41 347 73 413 122 460 c 0
 172 507 237 530 316 530 c 0
 395 530 452 507 487 460 c 0
 522 413 533 347 519 260 c 0
 505 173 473 107 423 60 c 0
 373 13 309 -10 230 -10 c 0
 151 -10 94 13 60 60 c 0
390 260 m 0
 407 369 377 423 299 423 c 0
 260 423 229 409 205 382 c 0
 181 355 165 314 156 260 c 0
 147 206 151 165 166 138 c 0
 181 111 208 97 247 97 c 0
 325 97 373 151 390 260 c 0
238 770 m 1
 463 770 l 1
 550 560 l 1
 397 560 l 1
 343 713 l 1
 341 713 l 1
 238 560 l 1
 86 560 l 1
 238 770 l 1
EndSplineSet
EndChar

StartChar: uni1ED1
Encoding: 7889 7889 311
Width: 557
Flags: W
LayerCount: 2
Fore
SplineSet
344 713 m 1
 243 560 l 1
 96 560 l 1
 244 770 l 1
 453 770 l 1
 549 950 l 1
 709 950 l 1
 560 740 l 1
 474 740 l 1
 544 560 l 1
 397 560 l 1
 345 713 l 1
 344 713 l 1
487 460 m 0
 522 413 533 347 519 260 c 0
 505 173 473 107 423 60 c 0
 373 13 309 -10 230 -10 c 0
 151 -10 94 13 60 60 c 0
 24 107 14 173 27 260 c 0
 41 347 73 413 122 460 c 0
 172 507 237 530 316 530 c 0
 395 530 452 507 487 460 c 0
390 260 m 0
 407 369 377 423 299 423 c 0
 260 423 229 409 205 382 c 0
 181 355 165 314 156 260 c 0
 147 206 151 165 166 138 c 0
 181 111 208 97 247 97 c 0
 325 97 373 151 390 260 c 0
EndSplineSet
EndChar

StartChar: uni1ED9
Encoding: 7897 7897 312
Width: 589
Flags: W
LayerCount: 2
Fore
SplineSet
60 60 m 0
 24 107 14 173 27 260 c 0
 41 347 73 413 122 460 c 0
 172 507 237 530 316 530 c 0
 395 530 452 507 487 460 c 0
 522 413 533 347 519 260 c 0
 505 173 473 107 423 60 c 0
 373 13 309 -10 230 -10 c 0
 151 -10 94 13 60 60 c 0
390 260 m 0
 407 369 377 423 299 423 c 0
 260 423 229 409 205 382 c 0
 181 355 165 314 156 260 c 0
 147 206 151 165 166 138 c 0
 181 111 208 97 247 97 c 0
 325 97 373 151 390 260 c 0
180 -71 m 1
 325 -71 l 1
 301 -219 l 1
 156 -219 l 1
 180 -71 l 1
238 770 m 1
 463 770 l 1
 550 560 l 1
 397 560 l 1
 343 713 l 1
 341 713 l 1
 238 560 l 1
 86 560 l 1
 238 770 l 1
EndSplineSet
EndChar

StartChar: uni1ED3
Encoding: 7891 7891 313
Width: 557
Flags: W
LayerCount: 2
Fore
SplineSet
227 740 m 1
 141 740 l 1
 58 950 l 1
 219 950 l 1
 257 770 l 1
 465 770 l 1
 548 560 l 1
 401 560 l 1
 349 713 l 1
 347 713 l 1
 247 560 l 1
 100 560 l 1
 227 740 l 1
490 460 m 0
 525 413 536 347 523 260 c 0
 509 173 477 107 427 60 c 0
 377 13 312 -10 233 -10 c 0
 154 -10 98 13 62 60 c 0
 28 107 17 173 31 260 c 0
 45 347 77 413 126 460 c 0
 176 507 240 530 319 530 c 0
 398 530 455 507 490 460 c 0
393 260 m 0
 410 369 380 423 302 423 c 0
 263 423 232 409 208 382 c 0
 184 355 168 314 159 260 c 0
 150 206 154 165 169 138 c 0
 184 111 211 97 250 97 c 0
 328 97 376 151 393 260 c 0
EndSplineSet
EndChar

